G04 #@! TF.GenerationSoftware,KiCad,Pcbnew,(5.0.2)-1*
G04 #@! TF.CreationDate,2019-08-29T18:00:00-04:00*
G04 #@! TF.ProjectId,IGEM_Device,4947454d-5f44-4657-9669-63652e6b6963,rev?*
G04 #@! TF.SameCoordinates,Original*
G04 #@! TF.FileFunction,Soldermask,Top*
G04 #@! TF.FilePolarity,Negative*
%FSLAX46Y46*%
G04 Gerber Fmt 4.6, Leading zero omitted, Abs format (unit mm)*
G04 Created by KiCad (PCBNEW (5.0.2)-1) date 2019-08-29 6:00:00 PM*
%MOMM*%
%LPD*%
G01*
G04 APERTURE LIST*
%ADD10C,0.100000*%
G04 APERTURE END LIST*
D10*
G36*
X173525997Y-67720342D02*
X173610666Y-67737183D01*
X173676738Y-67764551D01*
X173770177Y-67803255D01*
X173913739Y-67899180D01*
X174035820Y-68021261D01*
X174131745Y-68164823D01*
X174197817Y-68324335D01*
X174231500Y-68493671D01*
X174231500Y-68666329D01*
X174197817Y-68835665D01*
X174131745Y-68995177D01*
X174035820Y-69138739D01*
X173913739Y-69260820D01*
X173770177Y-69356745D01*
X173676738Y-69395449D01*
X173610666Y-69422817D01*
X173525997Y-69439658D01*
X173441329Y-69456500D01*
X173268671Y-69456500D01*
X173184003Y-69439658D01*
X173099334Y-69422817D01*
X173033262Y-69395449D01*
X172939823Y-69356745D01*
X172796261Y-69260820D01*
X172674180Y-69138739D01*
X172578255Y-68995177D01*
X172512183Y-68835665D01*
X172478500Y-68666329D01*
X172478500Y-68493671D01*
X172512183Y-68324335D01*
X172578255Y-68164823D01*
X172674180Y-68021261D01*
X172796261Y-67899180D01*
X172939823Y-67803255D01*
X173033262Y-67764551D01*
X173099334Y-67737183D01*
X173184003Y-67720342D01*
X173268671Y-67703500D01*
X173441329Y-67703500D01*
X173525997Y-67720342D01*
X173525997Y-67720342D01*
G37*
G36*
X141775997Y-67720342D02*
X141860666Y-67737183D01*
X141926738Y-67764551D01*
X142020177Y-67803255D01*
X142163739Y-67899180D01*
X142285820Y-68021261D01*
X142381745Y-68164823D01*
X142447817Y-68324335D01*
X142481500Y-68493671D01*
X142481500Y-68666329D01*
X142447817Y-68835665D01*
X142381745Y-68995177D01*
X142285820Y-69138739D01*
X142163739Y-69260820D01*
X142020177Y-69356745D01*
X141926738Y-69395449D01*
X141860666Y-69422817D01*
X141775997Y-69439658D01*
X141691329Y-69456500D01*
X141518671Y-69456500D01*
X141434003Y-69439658D01*
X141349334Y-69422817D01*
X141283262Y-69395449D01*
X141189823Y-69356745D01*
X141046261Y-69260820D01*
X140924180Y-69138739D01*
X140828255Y-68995177D01*
X140762183Y-68835665D01*
X140728500Y-68666329D01*
X140728500Y-68493671D01*
X140762183Y-68324335D01*
X140828255Y-68164823D01*
X140924180Y-68021261D01*
X141046261Y-67899180D01*
X141189823Y-67803255D01*
X141283262Y-67764551D01*
X141349334Y-67737183D01*
X141434003Y-67720342D01*
X141518671Y-67703500D01*
X141691329Y-67703500D01*
X141775997Y-67720342D01*
X141775997Y-67720342D01*
G37*
G36*
X144966000Y-69256000D02*
X143864000Y-69256000D01*
X143864000Y-67904000D01*
X144966000Y-67904000D01*
X144966000Y-69256000D01*
X144966000Y-69256000D01*
G37*
G36*
X146966000Y-69256000D02*
X145864000Y-69256000D01*
X145864000Y-67904000D01*
X146966000Y-67904000D01*
X146966000Y-69256000D01*
X146966000Y-69256000D01*
G37*
G36*
X164912066Y-67351554D02*
X164900515Y-67373165D01*
X164893402Y-67396614D01*
X164891000Y-67421000D01*
X164891000Y-68201000D01*
X153029000Y-68201000D01*
X153029000Y-67339000D01*
X164904000Y-67339000D01*
X164923985Y-67337032D01*
X164912066Y-67351554D01*
X164912066Y-67351554D01*
G37*
G36*
X165016000Y-58434000D02*
X165891000Y-58434000D01*
X165891000Y-67296000D01*
X165016000Y-67296000D01*
X164996015Y-67297968D01*
X165007934Y-67283446D01*
X165019485Y-67261835D01*
X165026598Y-67238386D01*
X165029000Y-67214000D01*
X165029000Y-58516000D01*
X165026598Y-58491614D01*
X165019485Y-58468165D01*
X165007934Y-58446554D01*
X164996015Y-58432032D01*
X165016000Y-58434000D01*
X165016000Y-58434000D01*
G37*
G36*
X141775997Y-65180342D02*
X141860666Y-65197183D01*
X141926738Y-65224551D01*
X142020177Y-65263255D01*
X142163739Y-65359180D01*
X142285820Y-65481261D01*
X142381745Y-65624823D01*
X142420449Y-65718262D01*
X142447817Y-65784334D01*
X142481500Y-65953672D01*
X142481500Y-66126328D01*
X142447817Y-66295666D01*
X142420449Y-66361738D01*
X142381745Y-66455177D01*
X142285820Y-66598739D01*
X142163739Y-66720820D01*
X142020177Y-66816745D01*
X141926738Y-66855449D01*
X141860666Y-66882817D01*
X141775997Y-66899659D01*
X141691329Y-66916500D01*
X141518671Y-66916500D01*
X141434003Y-66899659D01*
X141349334Y-66882817D01*
X141283262Y-66855449D01*
X141189823Y-66816745D01*
X141046261Y-66720820D01*
X140924180Y-66598739D01*
X140828255Y-66455177D01*
X140789551Y-66361738D01*
X140762183Y-66295666D01*
X140728500Y-66126328D01*
X140728500Y-65953672D01*
X140762183Y-65784334D01*
X140789551Y-65718262D01*
X140828255Y-65624823D01*
X140924180Y-65481261D01*
X141046261Y-65359180D01*
X141189823Y-65263255D01*
X141283262Y-65224551D01*
X141349334Y-65197183D01*
X141434003Y-65180342D01*
X141518671Y-65163500D01*
X141691329Y-65163500D01*
X141775997Y-65180342D01*
X141775997Y-65180342D01*
G37*
G36*
X173525997Y-65180342D02*
X173610666Y-65197183D01*
X173676738Y-65224551D01*
X173770177Y-65263255D01*
X173913739Y-65359180D01*
X174035820Y-65481261D01*
X174131745Y-65624823D01*
X174170449Y-65718262D01*
X174197817Y-65784334D01*
X174231500Y-65953672D01*
X174231500Y-66126328D01*
X174197817Y-66295666D01*
X174170449Y-66361738D01*
X174131745Y-66455177D01*
X174035820Y-66598739D01*
X173913739Y-66720820D01*
X173770177Y-66816745D01*
X173676738Y-66855449D01*
X173610666Y-66882817D01*
X173525997Y-66899659D01*
X173441329Y-66916500D01*
X173268671Y-66916500D01*
X173184003Y-66899659D01*
X173099334Y-66882817D01*
X173033262Y-66855449D01*
X172939823Y-66816745D01*
X172796261Y-66720820D01*
X172674180Y-66598739D01*
X172578255Y-66455177D01*
X172539551Y-66361738D01*
X172512183Y-66295666D01*
X172478500Y-66126328D01*
X172478500Y-65953672D01*
X172512183Y-65784334D01*
X172539551Y-65718262D01*
X172578255Y-65624823D01*
X172674180Y-65481261D01*
X172796261Y-65359180D01*
X172939823Y-65263255D01*
X173033262Y-65224551D01*
X173099334Y-65197183D01*
X173184003Y-65180342D01*
X173268671Y-65163500D01*
X173441329Y-65163500D01*
X173525997Y-65180342D01*
X173525997Y-65180342D01*
G37*
G36*
X146966000Y-66716000D02*
X145864000Y-66716000D01*
X145864000Y-65364000D01*
X146966000Y-65364000D01*
X146966000Y-66716000D01*
X146966000Y-66716000D01*
G37*
G36*
X171731000Y-66716000D02*
X170629000Y-66716000D01*
X170629000Y-65364000D01*
X171731000Y-65364000D01*
X171731000Y-66716000D01*
X171731000Y-66716000D01*
G37*
G36*
X169731000Y-66716000D02*
X168629000Y-66716000D01*
X168629000Y-65364000D01*
X169731000Y-65364000D01*
X169731000Y-66716000D01*
X169731000Y-66716000D01*
G37*
G36*
X144966000Y-66716000D02*
X143864000Y-66716000D01*
X143864000Y-65364000D01*
X144966000Y-65364000D01*
X144966000Y-66716000D01*
X144966000Y-66716000D01*
G37*
G36*
X161641000Y-64566000D02*
X160779000Y-64566000D01*
X160779000Y-63704000D01*
X161641000Y-63704000D01*
X161641000Y-64566000D01*
X161641000Y-64566000D01*
G37*
G36*
X162911000Y-64566000D02*
X162049000Y-64566000D01*
X162049000Y-63704000D01*
X162911000Y-63704000D01*
X162911000Y-64566000D01*
X162911000Y-64566000D01*
G37*
G36*
X160371000Y-64566000D02*
X159509000Y-64566000D01*
X159509000Y-63704000D01*
X160371000Y-63704000D01*
X160371000Y-64566000D01*
X160371000Y-64566000D01*
G37*
G36*
X173525997Y-62640342D02*
X173610666Y-62657183D01*
X173676738Y-62684551D01*
X173770177Y-62723255D01*
X173913739Y-62819180D01*
X174035820Y-62941261D01*
X174131745Y-63084823D01*
X174197817Y-63244335D01*
X174231500Y-63413671D01*
X174231500Y-63586329D01*
X174197817Y-63755665D01*
X174131745Y-63915177D01*
X174035820Y-64058739D01*
X173913739Y-64180820D01*
X173770177Y-64276745D01*
X173723691Y-64296000D01*
X173610666Y-64342817D01*
X173525997Y-64359659D01*
X173441329Y-64376500D01*
X173268671Y-64376500D01*
X173184003Y-64359659D01*
X173099334Y-64342817D01*
X172986309Y-64296000D01*
X172939823Y-64276745D01*
X172796261Y-64180820D01*
X172674180Y-64058739D01*
X172578255Y-63915177D01*
X172512183Y-63755665D01*
X172478500Y-63586329D01*
X172478500Y-63413671D01*
X172512183Y-63244335D01*
X172578255Y-63084823D01*
X172674180Y-62941261D01*
X172796261Y-62819180D01*
X172939823Y-62723255D01*
X173033262Y-62684551D01*
X173099334Y-62657183D01*
X173184003Y-62640342D01*
X173268671Y-62623500D01*
X173441329Y-62623500D01*
X173525997Y-62640342D01*
X173525997Y-62640342D01*
G37*
G36*
X141775997Y-62640342D02*
X141860666Y-62657183D01*
X141926738Y-62684551D01*
X142020177Y-62723255D01*
X142163739Y-62819180D01*
X142285820Y-62941261D01*
X142381745Y-63084823D01*
X142447817Y-63244335D01*
X142481500Y-63413671D01*
X142481500Y-63586329D01*
X142447817Y-63755665D01*
X142381745Y-63915177D01*
X142285820Y-64058739D01*
X142163739Y-64180820D01*
X142020177Y-64276745D01*
X141973691Y-64296000D01*
X141860666Y-64342817D01*
X141775997Y-64359659D01*
X141691329Y-64376500D01*
X141518671Y-64376500D01*
X141434003Y-64359659D01*
X141349334Y-64342817D01*
X141236309Y-64296000D01*
X141189823Y-64276745D01*
X141046261Y-64180820D01*
X140924180Y-64058739D01*
X140828255Y-63915177D01*
X140762183Y-63755665D01*
X140728500Y-63586329D01*
X140728500Y-63413671D01*
X140762183Y-63244335D01*
X140828255Y-63084823D01*
X140924180Y-62941261D01*
X141046261Y-62819180D01*
X141189823Y-62723255D01*
X141283262Y-62684551D01*
X141349334Y-62657183D01*
X141434003Y-62640342D01*
X141518671Y-62623500D01*
X141691329Y-62623500D01*
X141775997Y-62640342D01*
X141775997Y-62640342D01*
G37*
G36*
X169731000Y-64176000D02*
X168629000Y-64176000D01*
X168629000Y-62824000D01*
X169731000Y-62824000D01*
X169731000Y-64176000D01*
X169731000Y-64176000D01*
G37*
G36*
X171731000Y-64176000D02*
X170629000Y-64176000D01*
X170629000Y-62824000D01*
X171731000Y-62824000D01*
X171731000Y-64176000D01*
X171731000Y-64176000D01*
G37*
G36*
X162891000Y-62026000D02*
X162029000Y-62026000D01*
X162029000Y-61164000D01*
X162891000Y-61164000D01*
X162891000Y-62026000D01*
X162891000Y-62026000D01*
G37*
G36*
X161641000Y-62026000D02*
X160779000Y-62026000D01*
X160779000Y-61164000D01*
X161641000Y-61164000D01*
X161641000Y-62026000D01*
X161641000Y-62026000D01*
G37*
G36*
X160371000Y-62026000D02*
X159509000Y-62026000D01*
X159509000Y-61164000D01*
X160371000Y-61164000D01*
X160371000Y-62026000D01*
X160371000Y-62026000D01*
G37*
G36*
X172954807Y-59550935D02*
X172954809Y-59550936D01*
X172954810Y-59550936D01*
X173101310Y-59611618D01*
X173139988Y-59637462D01*
X173233161Y-59699718D01*
X173345282Y-59811839D01*
X173345284Y-59811842D01*
X173433382Y-59943690D01*
X173452766Y-59990488D01*
X173494065Y-60090193D01*
X173525000Y-60245713D01*
X173525000Y-60404287D01*
X173511424Y-60472539D01*
X173494064Y-60559810D01*
X173433382Y-60706310D01*
X173433381Y-60706311D01*
X173345282Y-60838161D01*
X173233161Y-60950282D01*
X173233158Y-60950284D01*
X173101310Y-61038382D01*
X172954810Y-61099064D01*
X172954809Y-61099064D01*
X172954807Y-61099065D01*
X172799287Y-61130000D01*
X172640713Y-61130000D01*
X172485193Y-61099065D01*
X172485191Y-61099064D01*
X172485190Y-61099064D01*
X172338690Y-61038382D01*
X172206842Y-60950284D01*
X172206839Y-60950282D01*
X172094718Y-60838161D01*
X172006619Y-60706311D01*
X172006618Y-60706310D01*
X171945936Y-60559810D01*
X171928577Y-60472539D01*
X171915000Y-60404287D01*
X171915000Y-60245713D01*
X171945935Y-60090193D01*
X171987234Y-59990488D01*
X172006618Y-59943690D01*
X172094716Y-59811842D01*
X172094718Y-59811839D01*
X172206839Y-59699718D01*
X172300012Y-59637462D01*
X172338690Y-59611618D01*
X172485190Y-59550936D01*
X172485191Y-59550936D01*
X172485193Y-59550935D01*
X172640713Y-59520000D01*
X172799287Y-59520000D01*
X172954807Y-59550935D01*
X172954807Y-59550935D01*
G37*
G36*
X170414807Y-59550935D02*
X170414809Y-59550936D01*
X170414810Y-59550936D01*
X170561310Y-59611618D01*
X170599988Y-59637462D01*
X170693161Y-59699718D01*
X170805282Y-59811839D01*
X170805284Y-59811842D01*
X170893382Y-59943690D01*
X170912766Y-59990488D01*
X170954065Y-60090193D01*
X170985000Y-60245713D01*
X170985000Y-60404287D01*
X170971424Y-60472539D01*
X170954064Y-60559810D01*
X170893382Y-60706310D01*
X170893381Y-60706311D01*
X170805282Y-60838161D01*
X170693161Y-60950282D01*
X170693158Y-60950284D01*
X170561310Y-61038382D01*
X170414810Y-61099064D01*
X170414809Y-61099064D01*
X170414807Y-61099065D01*
X170259287Y-61130000D01*
X170100713Y-61130000D01*
X169945193Y-61099065D01*
X169945191Y-61099064D01*
X169945190Y-61099064D01*
X169798690Y-61038382D01*
X169666842Y-60950284D01*
X169666839Y-60950282D01*
X169554718Y-60838161D01*
X169466619Y-60706311D01*
X169466618Y-60706310D01*
X169405936Y-60559810D01*
X169388577Y-60472539D01*
X169375000Y-60404287D01*
X169375000Y-60245713D01*
X169405935Y-60090193D01*
X169447234Y-59990488D01*
X169466618Y-59943690D01*
X169554716Y-59811842D01*
X169554718Y-59811839D01*
X169666839Y-59699718D01*
X169760012Y-59637462D01*
X169798690Y-59611618D01*
X169945190Y-59550936D01*
X169945191Y-59550936D01*
X169945193Y-59550935D01*
X170100713Y-59520000D01*
X170259287Y-59520000D01*
X170414807Y-59550935D01*
X170414807Y-59550935D01*
G37*
G36*
X141161056Y-59425171D02*
X141280259Y-59474547D01*
X141348285Y-59520000D01*
X141387539Y-59546229D01*
X141478771Y-59637461D01*
X141550453Y-59744741D01*
X141599829Y-59863944D01*
X141625000Y-59990487D01*
X141625000Y-60119513D01*
X141599829Y-60246056D01*
X141579141Y-60296000D01*
X141550453Y-60365259D01*
X141524376Y-60404287D01*
X141478771Y-60472539D01*
X141387539Y-60563771D01*
X141280259Y-60635453D01*
X141161056Y-60684829D01*
X141034513Y-60710000D01*
X140905487Y-60710000D01*
X140778944Y-60684829D01*
X140659741Y-60635453D01*
X140552461Y-60563771D01*
X140461229Y-60472539D01*
X140415625Y-60404287D01*
X140389547Y-60365259D01*
X140360859Y-60296000D01*
X140340171Y-60246056D01*
X140315000Y-60119513D01*
X140315000Y-59990487D01*
X140340171Y-59863944D01*
X140389547Y-59744741D01*
X140461229Y-59637461D01*
X140552461Y-59546229D01*
X140591716Y-59520000D01*
X140659741Y-59474547D01*
X140778944Y-59425171D01*
X140905487Y-59400000D01*
X141034513Y-59400000D01*
X141161056Y-59425171D01*
X141161056Y-59425171D01*
G37*
G36*
X141625000Y-58710000D02*
X140315000Y-58710000D01*
X140315000Y-57400000D01*
X141625000Y-57400000D01*
X141625000Y-58710000D01*
X141625000Y-58710000D01*
G37*
G36*
X170414807Y-57010935D02*
X170414809Y-57010936D01*
X170414810Y-57010936D01*
X170561310Y-57071618D01*
X170561311Y-57071619D01*
X170693161Y-57159718D01*
X170805282Y-57271839D01*
X170805284Y-57271842D01*
X170893382Y-57403690D01*
X170954064Y-57550190D01*
X170985000Y-57705714D01*
X170985000Y-57864286D01*
X170954064Y-58019810D01*
X170893382Y-58166310D01*
X170893381Y-58166311D01*
X170805282Y-58298161D01*
X170693161Y-58410282D01*
X170693158Y-58410284D01*
X170561310Y-58498382D01*
X170414810Y-58559064D01*
X170414809Y-58559064D01*
X170414807Y-58559065D01*
X170259287Y-58590000D01*
X170100713Y-58590000D01*
X169945193Y-58559065D01*
X169945191Y-58559064D01*
X169945190Y-58559064D01*
X169798690Y-58498382D01*
X169666842Y-58410284D01*
X169666839Y-58410282D01*
X169554718Y-58298161D01*
X169466619Y-58166311D01*
X169466618Y-58166310D01*
X169405936Y-58019810D01*
X169375000Y-57864286D01*
X169375000Y-57705714D01*
X169405936Y-57550190D01*
X169466618Y-57403690D01*
X169554716Y-57271842D01*
X169554718Y-57271839D01*
X169666839Y-57159718D01*
X169798689Y-57071619D01*
X169798690Y-57071618D01*
X169945190Y-57010936D01*
X169945191Y-57010936D01*
X169945193Y-57010935D01*
X170100713Y-56980000D01*
X170259287Y-56980000D01*
X170414807Y-57010935D01*
X170414807Y-57010935D01*
G37*
G36*
X172954807Y-57010935D02*
X172954809Y-57010936D01*
X172954810Y-57010936D01*
X173101310Y-57071618D01*
X173101311Y-57071619D01*
X173233161Y-57159718D01*
X173345282Y-57271839D01*
X173345284Y-57271842D01*
X173433382Y-57403690D01*
X173494064Y-57550190D01*
X173525000Y-57705714D01*
X173525000Y-57864286D01*
X173494064Y-58019810D01*
X173433382Y-58166310D01*
X173433381Y-58166311D01*
X173345282Y-58298161D01*
X173233161Y-58410282D01*
X173233158Y-58410284D01*
X173101310Y-58498382D01*
X172954810Y-58559064D01*
X172954809Y-58559064D01*
X172954807Y-58559065D01*
X172799287Y-58590000D01*
X172640713Y-58590000D01*
X172485193Y-58559065D01*
X172485191Y-58559064D01*
X172485190Y-58559064D01*
X172338690Y-58498382D01*
X172206842Y-58410284D01*
X172206839Y-58410282D01*
X172094718Y-58298161D01*
X172006619Y-58166311D01*
X172006618Y-58166310D01*
X171945936Y-58019810D01*
X171915000Y-57864286D01*
X171915000Y-57705714D01*
X171945936Y-57550190D01*
X172006618Y-57403690D01*
X172094716Y-57271842D01*
X172094718Y-57271839D01*
X172206839Y-57159718D01*
X172338689Y-57071619D01*
X172338690Y-57071618D01*
X172485190Y-57010936D01*
X172485191Y-57010936D01*
X172485193Y-57010935D01*
X172640713Y-56980000D01*
X172799287Y-56980000D01*
X172954807Y-57010935D01*
X172954807Y-57010935D01*
G37*
G36*
X164891000Y-58309000D02*
X164893402Y-58333386D01*
X164900515Y-58356835D01*
X164912066Y-58378446D01*
X164923985Y-58392968D01*
X164904000Y-58391000D01*
X153029000Y-58391000D01*
X153029000Y-57529000D01*
X164891000Y-57529000D01*
X164891000Y-58309000D01*
X164891000Y-58309000D01*
G37*
G36*
X170414807Y-54470935D02*
X170414809Y-54470936D01*
X170414810Y-54470936D01*
X170561310Y-54531618D01*
X170561311Y-54531619D01*
X170693161Y-54619718D01*
X170805282Y-54731839D01*
X170805284Y-54731842D01*
X170893382Y-54863690D01*
X170954064Y-55010190D01*
X170985000Y-55165714D01*
X170985000Y-55324286D01*
X170954064Y-55479810D01*
X170893382Y-55626310D01*
X170893381Y-55626311D01*
X170805282Y-55758161D01*
X170693161Y-55870282D01*
X170693158Y-55870284D01*
X170561310Y-55958382D01*
X170414810Y-56019064D01*
X170414809Y-56019064D01*
X170414807Y-56019065D01*
X170259287Y-56050000D01*
X170100713Y-56050000D01*
X169945193Y-56019065D01*
X169945191Y-56019064D01*
X169945190Y-56019064D01*
X169798690Y-55958382D01*
X169666842Y-55870284D01*
X169666839Y-55870282D01*
X169554718Y-55758161D01*
X169466619Y-55626311D01*
X169466618Y-55626310D01*
X169405936Y-55479810D01*
X169375000Y-55324286D01*
X169375000Y-55165714D01*
X169405936Y-55010190D01*
X169466618Y-54863690D01*
X169554716Y-54731842D01*
X169554718Y-54731839D01*
X169666839Y-54619718D01*
X169798689Y-54531619D01*
X169798690Y-54531618D01*
X169945190Y-54470936D01*
X169945191Y-54470936D01*
X169945193Y-54470935D01*
X170100713Y-54440000D01*
X170259287Y-54440000D01*
X170414807Y-54470935D01*
X170414807Y-54470935D01*
G37*
G36*
X172954807Y-54470935D02*
X172954809Y-54470936D01*
X172954810Y-54470936D01*
X173101310Y-54531618D01*
X173101311Y-54531619D01*
X173233161Y-54619718D01*
X173345282Y-54731839D01*
X173345284Y-54731842D01*
X173433382Y-54863690D01*
X173494064Y-55010190D01*
X173525000Y-55165714D01*
X173525000Y-55324286D01*
X173494064Y-55479810D01*
X173433382Y-55626310D01*
X173433381Y-55626311D01*
X173345282Y-55758161D01*
X173233161Y-55870282D01*
X173233158Y-55870284D01*
X173101310Y-55958382D01*
X172954810Y-56019064D01*
X172954809Y-56019064D01*
X172954807Y-56019065D01*
X172799287Y-56050000D01*
X172640713Y-56050000D01*
X172485193Y-56019065D01*
X172485191Y-56019064D01*
X172485190Y-56019064D01*
X172338690Y-55958382D01*
X172206842Y-55870284D01*
X172206839Y-55870282D01*
X172094718Y-55758161D01*
X172006619Y-55626311D01*
X172006618Y-55626310D01*
X171945936Y-55479810D01*
X171915000Y-55324286D01*
X171915000Y-55165714D01*
X171945936Y-55010190D01*
X172006618Y-54863690D01*
X172094716Y-54731842D01*
X172094718Y-54731839D01*
X172206839Y-54619718D01*
X172338689Y-54531619D01*
X172338690Y-54531618D01*
X172485190Y-54470936D01*
X172485191Y-54470936D01*
X172485193Y-54470935D01*
X172640713Y-54440000D01*
X172799287Y-54440000D01*
X172954807Y-54470935D01*
X172954807Y-54470935D01*
G37*
G36*
X143551000Y-55526000D02*
X142199000Y-55526000D01*
X142199000Y-54424000D01*
X143551000Y-54424000D01*
X143551000Y-55526000D01*
X143551000Y-55526000D01*
G37*
G36*
X148691800Y-55255401D02*
X147269000Y-55255401D01*
X147269000Y-54594601D01*
X148691800Y-54594601D01*
X148691800Y-55255401D01*
X148691800Y-55255401D01*
G37*
G36*
X146101000Y-55255401D02*
X144678200Y-55255401D01*
X144678200Y-54594601D01*
X146101000Y-54594601D01*
X146101000Y-55255401D01*
X146101000Y-55255401D01*
G37*
G36*
X158987142Y-53193242D02*
X159135102Y-53254530D01*
X159268258Y-53343502D01*
X159381498Y-53456742D01*
X159470470Y-53589898D01*
X159531758Y-53737858D01*
X159563000Y-53894925D01*
X159563000Y-54055075D01*
X159531758Y-54212142D01*
X159470470Y-54360102D01*
X159381498Y-54493258D01*
X159268258Y-54606498D01*
X159135102Y-54695470D01*
X158987142Y-54756758D01*
X158830075Y-54788000D01*
X158669925Y-54788000D01*
X158512858Y-54756758D01*
X158364898Y-54695470D01*
X158231742Y-54606498D01*
X158118502Y-54493258D01*
X158029530Y-54360102D01*
X157968242Y-54212142D01*
X157937000Y-54055075D01*
X157937000Y-53894925D01*
X157968242Y-53737858D01*
X158029530Y-53589898D01*
X158118502Y-53456742D01*
X158231742Y-53343502D01*
X158364898Y-53254530D01*
X158512858Y-53193242D01*
X158669925Y-53162000D01*
X158830075Y-53162000D01*
X158987142Y-53193242D01*
X158987142Y-53193242D01*
G37*
G36*
X156447142Y-53193242D02*
X156595102Y-53254530D01*
X156728258Y-53343502D01*
X156841498Y-53456742D01*
X156930470Y-53589898D01*
X156991758Y-53737858D01*
X157023000Y-53894925D01*
X157023000Y-54055075D01*
X156991758Y-54212142D01*
X156930470Y-54360102D01*
X156841498Y-54493258D01*
X156728258Y-54606498D01*
X156595102Y-54695470D01*
X156447142Y-54756758D01*
X156290075Y-54788000D01*
X156129925Y-54788000D01*
X155972858Y-54756758D01*
X155824898Y-54695470D01*
X155691742Y-54606498D01*
X155578502Y-54493258D01*
X155489530Y-54360102D01*
X155428242Y-54212142D01*
X155397000Y-54055075D01*
X155397000Y-53894925D01*
X155428242Y-53737858D01*
X155489530Y-53589898D01*
X155578502Y-53456742D01*
X155691742Y-53343502D01*
X155824898Y-53254530D01*
X155972858Y-53193242D01*
X156129925Y-53162000D01*
X156290075Y-53162000D01*
X156447142Y-53193242D01*
X156447142Y-53193242D01*
G37*
G36*
X153907142Y-53193242D02*
X154055102Y-53254530D01*
X154188258Y-53343502D01*
X154301498Y-53456742D01*
X154390470Y-53589898D01*
X154451758Y-53737858D01*
X154483000Y-53894925D01*
X154483000Y-54055075D01*
X154451758Y-54212142D01*
X154390470Y-54360102D01*
X154301498Y-54493258D01*
X154188258Y-54606498D01*
X154055102Y-54695470D01*
X153907142Y-54756758D01*
X153750075Y-54788000D01*
X153589925Y-54788000D01*
X153432858Y-54756758D01*
X153284898Y-54695470D01*
X153151742Y-54606498D01*
X153038502Y-54493258D01*
X152949530Y-54360102D01*
X152888242Y-54212142D01*
X152857000Y-54055075D01*
X152857000Y-53894925D01*
X152888242Y-53737858D01*
X152949530Y-53589898D01*
X153038502Y-53456742D01*
X153151742Y-53343502D01*
X153284898Y-53254530D01*
X153432858Y-53193242D01*
X153589925Y-53162000D01*
X153750075Y-53162000D01*
X153907142Y-53193242D01*
X153907142Y-53193242D01*
G37*
G36*
X161527142Y-53193242D02*
X161675102Y-53254530D01*
X161808258Y-53343502D01*
X161921498Y-53456742D01*
X162010470Y-53589898D01*
X162071758Y-53737858D01*
X162103000Y-53894925D01*
X162103000Y-54055075D01*
X162071758Y-54212142D01*
X162010470Y-54360102D01*
X161921498Y-54493258D01*
X161808258Y-54606498D01*
X161675102Y-54695470D01*
X161527142Y-54756758D01*
X161370075Y-54788000D01*
X161209925Y-54788000D01*
X161052858Y-54756758D01*
X160904898Y-54695470D01*
X160771742Y-54606498D01*
X160658502Y-54493258D01*
X160569530Y-54360102D01*
X160508242Y-54212142D01*
X160477000Y-54055075D01*
X160477000Y-53894925D01*
X160508242Y-53737858D01*
X160569530Y-53589898D01*
X160658502Y-53456742D01*
X160771742Y-53343502D01*
X160904898Y-53254530D01*
X161052858Y-53193242D01*
X161209925Y-53162000D01*
X161370075Y-53162000D01*
X161527142Y-53193242D01*
X161527142Y-53193242D01*
G37*
G36*
X146101000Y-54305400D02*
X144678200Y-54305400D01*
X144678200Y-53644600D01*
X146101000Y-53644600D01*
X146101000Y-54305400D01*
X146101000Y-54305400D01*
G37*
G36*
X143551000Y-53526000D02*
X142199000Y-53526000D01*
X142199000Y-52424000D01*
X143551000Y-52424000D01*
X143551000Y-53526000D01*
X143551000Y-53526000D01*
G37*
G36*
X170414807Y-51930935D02*
X170414809Y-51930936D01*
X170414810Y-51930936D01*
X170561310Y-51991618D01*
X170561311Y-51991619D01*
X170693161Y-52079718D01*
X170805282Y-52191839D01*
X170805284Y-52191842D01*
X170893382Y-52323690D01*
X170954064Y-52470190D01*
X170985000Y-52625714D01*
X170985000Y-52784286D01*
X170954064Y-52939810D01*
X170893382Y-53086310D01*
X170821932Y-53193242D01*
X170805282Y-53218161D01*
X170693161Y-53330282D01*
X170693158Y-53330284D01*
X170561310Y-53418382D01*
X170414810Y-53479064D01*
X170414809Y-53479064D01*
X170414807Y-53479065D01*
X170259287Y-53510000D01*
X170100713Y-53510000D01*
X169945193Y-53479065D01*
X169945191Y-53479064D01*
X169945190Y-53479064D01*
X169798690Y-53418382D01*
X169666842Y-53330284D01*
X169666839Y-53330282D01*
X169554718Y-53218161D01*
X169538068Y-53193242D01*
X169466618Y-53086310D01*
X169405936Y-52939810D01*
X169375000Y-52784286D01*
X169375000Y-52625714D01*
X169405936Y-52470190D01*
X169466618Y-52323690D01*
X169554716Y-52191842D01*
X169554718Y-52191839D01*
X169666839Y-52079718D01*
X169798689Y-51991619D01*
X169798690Y-51991618D01*
X169945190Y-51930936D01*
X169945191Y-51930936D01*
X169945193Y-51930935D01*
X170100713Y-51900000D01*
X170259287Y-51900000D01*
X170414807Y-51930935D01*
X170414807Y-51930935D01*
G37*
G36*
X173525000Y-53510000D02*
X171915000Y-53510000D01*
X171915000Y-51900000D01*
X173525000Y-51900000D01*
X173525000Y-53510000D01*
X173525000Y-53510000D01*
G37*
G36*
X146101000Y-53355399D02*
X144678200Y-53355399D01*
X144678200Y-52694599D01*
X146101000Y-52694599D01*
X146101000Y-53355399D01*
X146101000Y-53355399D01*
G37*
G36*
X148691800Y-53355399D02*
X147269000Y-53355399D01*
X147269000Y-52694599D01*
X148691800Y-52694599D01*
X148691800Y-53355399D01*
X148691800Y-53355399D01*
G37*
M02*
