G04 #@! TF.GenerationSoftware,KiCad,Pcbnew,(5.0.2)-1*
G04 #@! TF.CreationDate,2019-08-29T18:00:00-04:00*
G04 #@! TF.ProjectId,IGEM_Device,4947454d-5f44-4657-9669-63652e6b6963,rev?*
G04 #@! TF.SameCoordinates,Original*
G04 #@! TF.FileFunction,Legend,Bot*
G04 #@! TF.FilePolarity,Positive*
%FSLAX46Y46*%
G04 Gerber Fmt 4.6, Leading zero omitted, Abs format (unit mm)*
G04 Created by KiCad (PCBNEW (5.0.2)-1) date 2019-08-29 6:00:00 PM*
%MOMM*%
%LPD*%
G01*
G04 APERTURE LIST*
%ADD10C,0.100000*%
%ADD11C,0.120000*%
%ADD12C,0.152400*%
%ADD13C,0.150000*%
G04 APERTURE END LIST*
D10*
X141978095Y-59825000D02*
X142073333Y-59777380D01*
X142216190Y-59777380D01*
X142359047Y-59825000D01*
X142454285Y-59920238D01*
X142501904Y-60015476D01*
X142549523Y-60205952D01*
X142549523Y-60348809D01*
X142501904Y-60539285D01*
X142454285Y-60634523D01*
X142359047Y-60729761D01*
X142216190Y-60777380D01*
X142120952Y-60777380D01*
X141978095Y-60729761D01*
X141930476Y-60682142D01*
X141930476Y-60348809D01*
X142120952Y-60348809D01*
X142620952Y-57856428D02*
X141859047Y-57856428D01*
X142240000Y-58237380D02*
X142240000Y-57475476D01*
X170941904Y-68080000D02*
X171037142Y-68032380D01*
X171180000Y-68032380D01*
X171322857Y-68080000D01*
X171418095Y-68175238D01*
X171465714Y-68270476D01*
X171513333Y-68460952D01*
X171513333Y-68603809D01*
X171465714Y-68794285D01*
X171418095Y-68889523D01*
X171322857Y-68984761D01*
X171180000Y-69032380D01*
X171084761Y-69032380D01*
X170941904Y-68984761D01*
X170894285Y-68937142D01*
X170894285Y-68603809D01*
X171084761Y-68603809D01*
X170465714Y-69032380D02*
X170465714Y-68032380D01*
X169894285Y-69032380D01*
X169894285Y-68032380D01*
X169418095Y-69032380D02*
X169418095Y-68032380D01*
X169180000Y-68032380D01*
X169037142Y-68080000D01*
X168941904Y-68175238D01*
X168894285Y-68270476D01*
X168846666Y-68460952D01*
X168846666Y-68603809D01*
X168894285Y-68794285D01*
X168941904Y-68889523D01*
X169037142Y-68984761D01*
X169180000Y-69032380D01*
X169418095Y-69032380D01*
X170941904Y-65540000D02*
X171037142Y-65492380D01*
X171180000Y-65492380D01*
X171322857Y-65540000D01*
X171418095Y-65635238D01*
X171465714Y-65730476D01*
X171513333Y-65920952D01*
X171513333Y-66063809D01*
X171465714Y-66254285D01*
X171418095Y-66349523D01*
X171322857Y-66444761D01*
X171180000Y-66492380D01*
X171084761Y-66492380D01*
X170941904Y-66444761D01*
X170894285Y-66397142D01*
X170894285Y-66063809D01*
X171084761Y-66063809D01*
X170465714Y-66492380D02*
X170465714Y-65492380D01*
X169894285Y-66492380D01*
X169894285Y-65492380D01*
X169418095Y-66492380D02*
X169418095Y-65492380D01*
X169180000Y-65492380D01*
X169037142Y-65540000D01*
X168941904Y-65635238D01*
X168894285Y-65730476D01*
X168846666Y-65920952D01*
X168846666Y-66063809D01*
X168894285Y-66254285D01*
X168941904Y-66349523D01*
X169037142Y-66444761D01*
X169180000Y-66492380D01*
X169418095Y-66492380D01*
X170941904Y-63000000D02*
X171037142Y-62952380D01*
X171180000Y-62952380D01*
X171322857Y-63000000D01*
X171418095Y-63095238D01*
X171465714Y-63190476D01*
X171513333Y-63380952D01*
X171513333Y-63523809D01*
X171465714Y-63714285D01*
X171418095Y-63809523D01*
X171322857Y-63904761D01*
X171180000Y-63952380D01*
X171084761Y-63952380D01*
X170941904Y-63904761D01*
X170894285Y-63857142D01*
X170894285Y-63523809D01*
X171084761Y-63523809D01*
X170465714Y-63952380D02*
X170465714Y-62952380D01*
X169894285Y-63952380D01*
X169894285Y-62952380D01*
X169418095Y-63952380D02*
X169418095Y-62952380D01*
X169180000Y-62952380D01*
X169037142Y-63000000D01*
X168941904Y-63095238D01*
X168894285Y-63190476D01*
X168846666Y-63380952D01*
X168846666Y-63523809D01*
X168894285Y-63714285D01*
X168941904Y-63809523D01*
X169037142Y-63904761D01*
X169180000Y-63952380D01*
X169418095Y-63952380D01*
X146113333Y-68032380D02*
X145780000Y-69032380D01*
X145446666Y-68032380D01*
X145113333Y-69032380D02*
X145113333Y-68032380D01*
X144875238Y-68032380D01*
X144732380Y-68080000D01*
X144637142Y-68175238D01*
X144589523Y-68270476D01*
X144541904Y-68460952D01*
X144541904Y-68603809D01*
X144589523Y-68794285D01*
X144637142Y-68889523D01*
X144732380Y-68984761D01*
X144875238Y-69032380D01*
X145113333Y-69032380D01*
X144113333Y-69032380D02*
X144113333Y-68032380D01*
X143875238Y-68032380D01*
X143732380Y-68080000D01*
X143637142Y-68175238D01*
X143589523Y-68270476D01*
X143541904Y-68460952D01*
X143541904Y-68603809D01*
X143589523Y-68794285D01*
X143637142Y-68889523D01*
X143732380Y-68984761D01*
X143875238Y-69032380D01*
X144113333Y-69032380D01*
X146113333Y-65492380D02*
X145780000Y-66492380D01*
X145446666Y-65492380D01*
X145113333Y-66492380D02*
X145113333Y-65492380D01*
X144875238Y-65492380D01*
X144732380Y-65540000D01*
X144637142Y-65635238D01*
X144589523Y-65730476D01*
X144541904Y-65920952D01*
X144541904Y-66063809D01*
X144589523Y-66254285D01*
X144637142Y-66349523D01*
X144732380Y-66444761D01*
X144875238Y-66492380D01*
X145113333Y-66492380D01*
X144113333Y-66492380D02*
X144113333Y-65492380D01*
X143875238Y-65492380D01*
X143732380Y-65540000D01*
X143637142Y-65635238D01*
X143589523Y-65730476D01*
X143541904Y-65920952D01*
X143541904Y-66063809D01*
X143589523Y-66254285D01*
X143637142Y-66349523D01*
X143732380Y-66444761D01*
X143875238Y-66492380D01*
X144113333Y-66492380D01*
X146113333Y-62952380D02*
X145780000Y-63952380D01*
X145446666Y-62952380D01*
X145113333Y-63952380D02*
X145113333Y-62952380D01*
X144875238Y-62952380D01*
X144732380Y-63000000D01*
X144637142Y-63095238D01*
X144589523Y-63190476D01*
X144541904Y-63380952D01*
X144541904Y-63523809D01*
X144589523Y-63714285D01*
X144637142Y-63809523D01*
X144732380Y-63904761D01*
X144875238Y-63952380D01*
X145113333Y-63952380D01*
X144113333Y-63952380D02*
X144113333Y-62952380D01*
X143875238Y-62952380D01*
X143732380Y-63000000D01*
X143637142Y-63095238D01*
X143589523Y-63190476D01*
X143541904Y-63380952D01*
X143541904Y-63523809D01*
X143589523Y-63714285D01*
X143637142Y-63809523D01*
X143732380Y-63904761D01*
X143875238Y-63952380D01*
X144113333Y-63952380D01*
X168655952Y-60396428D02*
X167894047Y-60396428D01*
X168275000Y-60777380D02*
X168275000Y-60015476D01*
X168608333Y-58237380D02*
X168608333Y-57237380D01*
X168275000Y-57951666D01*
X167941666Y-57237380D01*
X167941666Y-58237380D01*
X167965476Y-55602142D02*
X168013095Y-55649761D01*
X168155952Y-55697380D01*
X168251190Y-55697380D01*
X168394047Y-55649761D01*
X168489285Y-55554523D01*
X168536904Y-55459285D01*
X168584523Y-55268809D01*
X168584523Y-55125952D01*
X168536904Y-54935476D01*
X168489285Y-54840238D01*
X168394047Y-54745000D01*
X168251190Y-54697380D01*
X168155952Y-54697380D01*
X168013095Y-54745000D01*
X167965476Y-54792619D01*
X167965476Y-53157380D02*
X168298809Y-52681190D01*
X168536904Y-53157380D02*
X168536904Y-52157380D01*
X168155952Y-52157380D01*
X168060714Y-52205000D01*
X168013095Y-52252619D01*
X167965476Y-52347857D01*
X167965476Y-52490714D01*
X168013095Y-52585952D01*
X168060714Y-52633571D01*
X168155952Y-52681190D01*
X168536904Y-52681190D01*
X174720238Y-59777380D02*
X174529761Y-59777380D01*
X174434523Y-59825000D01*
X174339285Y-59920238D01*
X174291666Y-60110714D01*
X174291666Y-60444047D01*
X174339285Y-60634523D01*
X174434523Y-60729761D01*
X174529761Y-60777380D01*
X174720238Y-60777380D01*
X174815476Y-60729761D01*
X174910714Y-60634523D01*
X174958333Y-60444047D01*
X174958333Y-60110714D01*
X174910714Y-59920238D01*
X174815476Y-59825000D01*
X174720238Y-59777380D01*
X174625000Y-58237380D02*
X174625000Y-57237380D01*
X174363095Y-54745000D02*
X174458333Y-54697380D01*
X174601190Y-54697380D01*
X174744047Y-54745000D01*
X174839285Y-54840238D01*
X174886904Y-54935476D01*
X174934523Y-55125952D01*
X174934523Y-55268809D01*
X174886904Y-55459285D01*
X174839285Y-55554523D01*
X174744047Y-55649761D01*
X174601190Y-55697380D01*
X174505952Y-55697380D01*
X174363095Y-55649761D01*
X174315476Y-55602142D01*
X174315476Y-55268809D01*
X174505952Y-55268809D01*
X174363095Y-52205000D02*
X174458333Y-52157380D01*
X174601190Y-52157380D01*
X174744047Y-52205000D01*
X174839285Y-52300238D01*
X174886904Y-52395476D01*
X174934523Y-52585952D01*
X174934523Y-52728809D01*
X174886904Y-52919285D01*
X174839285Y-53014523D01*
X174744047Y-53109761D01*
X174601190Y-53157380D01*
X174505952Y-53157380D01*
X174363095Y-53109761D01*
X174315476Y-53062142D01*
X174315476Y-52728809D01*
X174505952Y-52728809D01*
X161742380Y-55816666D02*
X160742380Y-55816666D01*
X160742380Y-56197619D01*
X160790000Y-56292857D01*
X160837619Y-56340476D01*
X160932857Y-56388095D01*
X161075714Y-56388095D01*
X161170952Y-56340476D01*
X161218571Y-56292857D01*
X161266190Y-56197619D01*
X161266190Y-55816666D01*
X160742380Y-56721428D02*
X161742380Y-56959523D01*
X161028095Y-57150000D01*
X161742380Y-57340476D01*
X160742380Y-57578571D01*
X160790000Y-58483333D02*
X160742380Y-58388095D01*
X160742380Y-58245238D01*
X160790000Y-58102380D01*
X160885238Y-58007142D01*
X160980476Y-57959523D01*
X161170952Y-57911904D01*
X161313809Y-57911904D01*
X161504285Y-57959523D01*
X161599523Y-58007142D01*
X161694761Y-58102380D01*
X161742380Y-58245238D01*
X161742380Y-58340476D01*
X161694761Y-58483333D01*
X161647142Y-58530952D01*
X161313809Y-58530952D01*
X161313809Y-58340476D01*
X159202380Y-56150000D02*
X158202380Y-56150000D01*
X159202380Y-56626190D02*
X158202380Y-56626190D01*
X158202380Y-57007142D01*
X158250000Y-57102380D01*
X158297619Y-57150000D01*
X158392857Y-57197619D01*
X158535714Y-57197619D01*
X158630952Y-57150000D01*
X158678571Y-57102380D01*
X158726190Y-57007142D01*
X158726190Y-56626190D01*
X159107142Y-58197619D02*
X159154761Y-58150000D01*
X159202380Y-58007142D01*
X159202380Y-57911904D01*
X159154761Y-57769047D01*
X159059523Y-57673809D01*
X158964285Y-57626190D01*
X158773809Y-57578571D01*
X158630952Y-57578571D01*
X158440476Y-57626190D01*
X158345238Y-57673809D01*
X158250000Y-57769047D01*
X158202380Y-57911904D01*
X158202380Y-58007142D01*
X158250000Y-58150000D01*
X158297619Y-58197619D01*
X156614761Y-55935714D02*
X156662380Y-56078571D01*
X156662380Y-56316666D01*
X156614761Y-56411904D01*
X156567142Y-56459523D01*
X156471904Y-56507142D01*
X156376666Y-56507142D01*
X156281428Y-56459523D01*
X156233809Y-56411904D01*
X156186190Y-56316666D01*
X156138571Y-56126190D01*
X156090952Y-56030952D01*
X156043333Y-55983333D01*
X155948095Y-55935714D01*
X155852857Y-55935714D01*
X155757619Y-55983333D01*
X155710000Y-56030952D01*
X155662380Y-56126190D01*
X155662380Y-56364285D01*
X155710000Y-56507142D01*
X156662380Y-56935714D02*
X155662380Y-56935714D01*
X155662380Y-57173809D01*
X155710000Y-57316666D01*
X155805238Y-57411904D01*
X155900476Y-57459523D01*
X156090952Y-57507142D01*
X156233809Y-57507142D01*
X156424285Y-57459523D01*
X156519523Y-57411904D01*
X156614761Y-57316666D01*
X156662380Y-57173809D01*
X156662380Y-56935714D01*
X156376666Y-57888095D02*
X156376666Y-58364285D01*
X156662380Y-57792857D02*
X155662380Y-58126190D01*
X156662380Y-58459523D01*
X154074761Y-55959523D02*
X154122380Y-56102380D01*
X154122380Y-56340476D01*
X154074761Y-56435714D01*
X154027142Y-56483333D01*
X153931904Y-56530952D01*
X153836666Y-56530952D01*
X153741428Y-56483333D01*
X153693809Y-56435714D01*
X153646190Y-56340476D01*
X153598571Y-56150000D01*
X153550952Y-56054761D01*
X153503333Y-56007142D01*
X153408095Y-55959523D01*
X153312857Y-55959523D01*
X153217619Y-56007142D01*
X153170000Y-56054761D01*
X153122380Y-56150000D01*
X153122380Y-56388095D01*
X153170000Y-56530952D01*
X154027142Y-57530952D02*
X154074761Y-57483333D01*
X154122380Y-57340476D01*
X154122380Y-57245238D01*
X154074761Y-57102380D01*
X153979523Y-57007142D01*
X153884285Y-56959523D01*
X153693809Y-56911904D01*
X153550952Y-56911904D01*
X153360476Y-56959523D01*
X153265238Y-57007142D01*
X153170000Y-57102380D01*
X153122380Y-57245238D01*
X153122380Y-57340476D01*
X153170000Y-57483333D01*
X153217619Y-57530952D01*
X154122380Y-58435714D02*
X154122380Y-57959523D01*
X153122380Y-57959523D01*
D11*
G04 #@! TO.C,C3*
X144360000Y-57285000D02*
X144360000Y-58285000D01*
X142660000Y-58285000D02*
X142660000Y-57285000D01*
D12*
G04 #@! TO.C,J8*
X143891000Y-68580000D02*
G75*
G03X143891000Y-68580000I-381000J0D01*
G01*
G04 #@! TO.C,J9*
X175641000Y-68580000D02*
G75*
G03X175641000Y-68580000I-381000J0D01*
G01*
G04 #@! TO.C,J4*
X154051000Y-55880000D02*
G75*
G03X154051000Y-55880000I-381000J0D01*
G01*
G04 #@! TO.C,C3*
D13*
X143676666Y-55602142D02*
X143724285Y-55649761D01*
X143867142Y-55697380D01*
X143962380Y-55697380D01*
X144105238Y-55649761D01*
X144200476Y-55554523D01*
X144248095Y-55459285D01*
X144295714Y-55268809D01*
X144295714Y-55125952D01*
X144248095Y-54935476D01*
X144200476Y-54840238D01*
X144105238Y-54745000D01*
X143962380Y-54697380D01*
X143867142Y-54697380D01*
X143724285Y-54745000D01*
X143676666Y-54792619D01*
X143343333Y-54697380D02*
X142724285Y-54697380D01*
X143057619Y-55078333D01*
X142914761Y-55078333D01*
X142819523Y-55125952D01*
X142771904Y-55173571D01*
X142724285Y-55268809D01*
X142724285Y-55506904D01*
X142771904Y-55602142D01*
X142819523Y-55649761D01*
X142914761Y-55697380D01*
X143200476Y-55697380D01*
X143295714Y-55649761D01*
X143343333Y-55602142D01*
G04 #@! TD*
M02*
