G04 #@! TF.GenerationSoftware,KiCad,Pcbnew,(5.0.2)-1*
G04 #@! TF.CreationDate,2019-06-27T19:33:00-04:00*
G04 #@! TF.ProjectId,IGEM_Device,4947454d-5f44-4657-9669-63652e6b6963,rev?*
G04 #@! TF.SameCoordinates,Original*
G04 #@! TF.FileFunction,Copper,L2,Bot*
G04 #@! TF.FilePolarity,Positive*
%FSLAX46Y46*%
G04 Gerber Fmt 4.6, Leading zero omitted, Abs format (unit mm)*
G04 Created by KiCad (PCBNEW (5.0.2)-1) date 2019-06-27 7:33:00 PM*
%MOMM*%
%LPD*%
G01*
G04 APERTURE LIST*
G04 #@! TA.AperFunction,ComponentPad*
%ADD10C,1.524000*%
G04 #@! TD*
G04 #@! TA.AperFunction,SMDPad,CuDef*
%ADD11R,0.710000X0.280000*%
G04 #@! TD*
G04 #@! TA.AperFunction,SMDPad,CuDef*
%ADD12R,1.300000X1.800000*%
G04 #@! TD*
G04 #@! TA.AperFunction,ViaPad*
%ADD13C,0.600000*%
G04 #@! TD*
G04 #@! TA.AperFunction,Conductor*
%ADD14C,0.250000*%
G04 #@! TD*
G04 APERTURE END LIST*
D10*
G04 #@! TO.P,J1,1*
G04 #@! TO.N,+3V3*
X142875000Y-59055000D03*
G04 #@! TO.P,J1,2*
G04 #@! TO.N,GND*
X140335000Y-59055000D03*
G04 #@! TO.P,J1,3*
X137795000Y-59055000D03*
G04 #@! TO.P,J1,4*
G04 #@! TO.N,Net-(J1-Pad4)*
X135255000Y-59055000D03*
G04 #@! TO.P,J1,5*
G04 #@! TO.N,GND*
X132715000Y-59055000D03*
G04 #@! TO.P,J1,6*
G04 #@! TO.N,/RESET*
X142875000Y-61595000D03*
G04 #@! TO.P,J1,7*
G04 #@! TO.N,/JTAG_TCXC*
X140335000Y-61595000D03*
G04 #@! TO.P,J1,8*
G04 #@! TO.N,/JTAG_TMSC*
X137795000Y-61595000D03*
G04 #@! TO.P,J1,9*
G04 #@! TO.N,/JTAG_TDO*
X135255000Y-61595000D03*
G04 #@! TO.P,J1,10*
G04 #@! TO.N,/JTAG_TDI*
X132715000Y-61595000D03*
G04 #@! TD*
D11*
G04 #@! TO.P,U6,1*
G04 #@! TO.N,+2V85*
X109875000Y-72505000D03*
G04 #@! TO.P,U6,2*
G04 #@! TO.N,/EXT_TEMP_SCL*
X109875000Y-72005000D03*
G04 #@! TO.P,U6,3*
G04 #@! TO.N,/EXT_TEMP_SDA*
X109875000Y-71505000D03*
G04 #@! TO.P,U6,4*
G04 #@! TO.N,GND*
X109875000Y-71005000D03*
G04 #@! TO.P,U6,5*
G04 #@! TO.N,N/C*
X112375000Y-71005000D03*
G04 #@! TO.P,U6,6*
X112375000Y-71505000D03*
G04 #@! TO.P,U6,7*
X112375000Y-72005000D03*
G04 #@! TO.P,U6,8*
X112375000Y-72505000D03*
D12*
G04 #@! TO.P,U6,9*
G04 #@! TO.N,Net-(U6-Pad9)*
X111125000Y-71755000D03*
G04 #@! TD*
D13*
G04 #@! TO.N,+2V85*
X122555000Y-69850000D03*
G04 #@! TO.N,GND*
X107315000Y-68580000D03*
G04 #@! TO.N,/EXT_TEMP_SCL*
X107950000Y-73025000D03*
X123190000Y-64135000D03*
X137160000Y-80010000D03*
G04 #@! TO.N,/EXT_TEMP_SDA*
X124460000Y-64135000D03*
X146685000Y-79375000D03*
X106680000Y-71755000D03*
G04 #@! TO.N,+2V85*
X110490000Y-74295000D03*
X122555000Y-66945000D03*
G04 #@! TO.N,/TEMP_OUT*
X139700000Y-78740000D03*
X128905000Y-57785000D03*
G04 #@! TO.N,+1V8*
X114300000Y-55880000D03*
X128270000Y-56515000D03*
G04 #@! TO.N,/POWER_GOOD*
X102235000Y-54610000D03*
X128905000Y-71120000D03*
G04 #@! TO.N,/JTAG_TDO*
X129540000Y-62865000D03*
X130175000Y-66675000D03*
G04 #@! TO.N,/JTAG_TDI*
X129540000Y-67310000D03*
X128270000Y-61595000D03*
G04 #@! TO.N,/IP_CONTROL*
X129540000Y-68580000D03*
X140335000Y-56515000D03*
G04 #@! TD*
D14*
G04 #@! TO.N,GND*
X107315000Y-70350000D02*
X107335000Y-70370000D01*
X107315000Y-68580000D02*
X107315000Y-70350000D01*
X107970000Y-71005000D02*
X109875000Y-71005000D01*
X107315000Y-70350000D02*
X107970000Y-71005000D01*
G04 #@! TO.N,/EXT_TEMP_SCL*
X108970000Y-72005000D02*
X109875000Y-72005000D01*
X107950000Y-73025000D02*
X108970000Y-72005000D01*
X136525000Y-78105000D02*
X132080000Y-73660000D01*
X132080000Y-73369998D02*
X127925002Y-69215000D01*
X132080000Y-73660000D02*
X132080000Y-73369998D01*
X123190000Y-64559264D02*
X123190000Y-64135000D01*
X123190000Y-64771410D02*
X123190000Y-64559264D01*
X127633590Y-69215000D02*
X123190000Y-64771410D01*
X127925002Y-69215000D02*
X127633590Y-69215000D01*
X114510736Y-80010000D02*
X137160000Y-80010000D01*
X107950000Y-73025000D02*
X107950000Y-73449264D01*
X107950000Y-73449264D02*
X114510736Y-80010000D01*
X137160000Y-80010000D02*
X136525000Y-79375000D01*
X136525000Y-79375000D02*
X136525000Y-78105000D01*
G04 #@! TO.N,/EXT_TEMP_SDA*
X109270000Y-71505000D02*
X109875000Y-71505000D01*
X107354264Y-71505000D02*
X109270000Y-71505000D01*
X107104264Y-71755000D02*
X107354264Y-71505000D01*
X106680000Y-71755000D02*
X107104264Y-71755000D01*
X136975010Y-77920010D02*
X138430000Y-79375000D01*
X138430000Y-79375000D02*
X146685000Y-79375000D01*
X124460000Y-65405000D02*
X127819991Y-68764991D01*
X124460000Y-64135000D02*
X124460000Y-65405000D01*
X136975009Y-77918599D02*
X136975010Y-77920010D01*
X127819991Y-68764991D02*
X128111403Y-68764991D01*
X132530009Y-73183597D02*
X132530010Y-73473600D01*
X128111403Y-68764991D02*
X132530009Y-73183597D01*
X132530010Y-73473600D02*
X136975009Y-77918599D01*
X106680000Y-72179264D02*
X106680000Y-71755000D01*
X106680000Y-72815674D02*
X106680000Y-72179264D01*
X118319326Y-84455000D02*
X106680000Y-72815674D01*
X146685000Y-79375000D02*
X141605000Y-84455000D01*
X141605000Y-84455000D02*
X118319326Y-84455000D01*
G04 #@! TO.N,+2V85*
X109875000Y-73680000D02*
X110490000Y-74295000D01*
X109875000Y-72505000D02*
X109875000Y-73680000D01*
X122555000Y-66945000D02*
X122555000Y-69850000D01*
G04 #@! TO.N,/TEMP_OUT*
X126657822Y-60032178D02*
X128905000Y-57785000D01*
X126657822Y-66675000D02*
X126657822Y-60032178D01*
X132980018Y-72997196D02*
X126657822Y-66675000D01*
X132980018Y-73287198D02*
X132980018Y-72997196D01*
X137797820Y-78105000D02*
X132980018Y-73287198D01*
X139065000Y-78105000D02*
X139700000Y-78740000D01*
X137797820Y-78105000D02*
X139065000Y-78105000D01*
G04 #@! TO.N,+1V8*
X128270000Y-56515000D02*
X114935000Y-56515000D01*
X114935000Y-56515000D02*
X114300000Y-55880000D01*
G04 #@! TO.N,/POWER_GOOD*
X118110000Y-70485000D02*
X102235000Y-54610000D01*
X118745000Y-71120000D02*
X118110000Y-70485000D01*
X128905000Y-71120000D02*
X118745000Y-71120000D01*
G04 #@! TO.N,/JTAG_TDO*
X130175000Y-63500000D02*
X129540000Y-62865000D01*
X130175000Y-66675000D02*
X130175000Y-63500000D01*
G04 #@! TO.N,/JTAG_TDI*
X128270000Y-66040000D02*
X128270000Y-61595000D01*
X129540000Y-67310000D02*
X128270000Y-66040000D01*
G04 #@! TO.N,/IP_CONTROL*
X144145000Y-56515000D02*
X145415000Y-57785000D01*
X140970000Y-56515000D02*
X144145000Y-56515000D01*
X145415000Y-57785000D02*
X145415000Y-63500000D01*
X145415000Y-63500000D02*
X144780000Y-64135000D01*
X133985000Y-64135000D02*
X129540000Y-68580000D01*
X144780000Y-64135000D02*
X133985000Y-64135000D01*
X140970000Y-56515000D02*
X140335000Y-56515000D01*
G04 #@! TD*
M02*
