M48
;DRILL file {KiCad (5.0.2)-1} date 2019-08-29 6:06:33 PM
;FORMAT={3:3/ absolute / metric / suppress leading zeros}
FMAT,2
METRIC,TZ
T1C0.400
T2C0.889
T3C1.016
%
G90
G05
T1
X147955Y-90170
X150495Y-87630
X154940Y-87630
X157480Y-87630
X157480Y-93345
X159655Y-86785
X163445Y-91210
X163830Y-88900
X164465Y-84455
X172720Y-83185
T2
X173355Y-92710
X173355Y-95250
X173355Y-97790
X153670Y-83185
X156210Y-83185
X158750Y-83185
X161290Y-83185
X141605Y-92710
X141605Y-95250
X141605Y-97790
T3
X152400Y-97155
X154940Y-97155
X157480Y-97155
X160020Y-97155
X162560Y-97155
T0
M30
