G04 #@! TF.GenerationSoftware,KiCad,Pcbnew,(5.0.2)-1*
G04 #@! TF.CreationDate,2019-08-29T18:06:14-04:00*
G04 #@! TF.ProjectId,IGEM_Device,4947454d-5f44-4657-9669-63652e6b6963,rev?*
G04 #@! TF.SameCoordinates,Original*
G04 #@! TF.FileFunction,Legend,Bot*
G04 #@! TF.FilePolarity,Positive*
%FSLAX46Y46*%
G04 Gerber Fmt 4.6, Leading zero omitted, Abs format (unit mm)*
G04 Created by KiCad (PCBNEW (5.0.2)-1) date 2019-08-29 6:06:14 PM*
%MOMM*%
%LPD*%
G01*
G04 APERTURE LIST*
%ADD10C,0.100000*%
%ADD11C,0.300000*%
%ADD12C,0.152400*%
%ADD13C,0.150000*%
G04 APERTURE END LIST*
D10*
X162123333Y-86177380D02*
X162123333Y-85177380D01*
X161742380Y-85177380D01*
X161647142Y-85225000D01*
X161599523Y-85272619D01*
X161551904Y-85367857D01*
X161551904Y-85510714D01*
X161599523Y-85605952D01*
X161647142Y-85653571D01*
X161742380Y-85701190D01*
X162123333Y-85701190D01*
X161218571Y-85177380D02*
X160980476Y-86177380D01*
X160790000Y-85463095D01*
X160599523Y-86177380D01*
X160361428Y-85177380D01*
X155368571Y-94702380D02*
X155130476Y-95702380D01*
X154940000Y-94988095D01*
X154749523Y-95702380D01*
X154511428Y-94702380D01*
X156900476Y-86177380D02*
X156900476Y-85177380D01*
X156662380Y-85177380D01*
X156519523Y-85225000D01*
X156424285Y-85320238D01*
X156376666Y-85415476D01*
X156329047Y-85605952D01*
X156329047Y-85748809D01*
X156376666Y-85939285D01*
X156424285Y-86034523D01*
X156519523Y-86129761D01*
X156662380Y-86177380D01*
X156900476Y-86177380D01*
X155948095Y-85891666D02*
X155471904Y-85891666D01*
X156043333Y-86177380D02*
X155710000Y-85177380D01*
X155376666Y-86177380D01*
D11*
X161480000Y-90991428D02*
X161622857Y-90920000D01*
X161765714Y-90777142D01*
X161980000Y-90562857D01*
X162122857Y-90491428D01*
X162265714Y-90491428D01*
X162194285Y-90848571D02*
X162337142Y-90777142D01*
X162480000Y-90634285D01*
X162551428Y-90348571D01*
X162551428Y-89848571D01*
X162480000Y-89562857D01*
X162337142Y-89420000D01*
X162194285Y-89348571D01*
X161908571Y-89348571D01*
X161765714Y-89420000D01*
X161622857Y-89562857D01*
X161551428Y-89848571D01*
X161551428Y-90348571D01*
X161622857Y-90634285D01*
X161765714Y-90777142D01*
X161908571Y-90848571D01*
X162194285Y-90848571D01*
X160265714Y-89848571D02*
X160265714Y-90848571D01*
X160908571Y-89848571D02*
X160908571Y-90634285D01*
X160837142Y-90777142D01*
X160694285Y-90848571D01*
X160480000Y-90848571D01*
X160337142Y-90777142D01*
X160265714Y-90705714D01*
X158908571Y-90848571D02*
X158908571Y-90062857D01*
X158980000Y-89920000D01*
X159122857Y-89848571D01*
X159408571Y-89848571D01*
X159551428Y-89920000D01*
X158908571Y-90777142D02*
X159051428Y-90848571D01*
X159408571Y-90848571D01*
X159551428Y-90777142D01*
X159622857Y-90634285D01*
X159622857Y-90491428D01*
X159551428Y-90348571D01*
X159408571Y-90277142D01*
X159051428Y-90277142D01*
X158908571Y-90205714D01*
X158194285Y-89848571D02*
X158194285Y-90848571D01*
X158194285Y-89991428D02*
X158122857Y-89920000D01*
X157980000Y-89848571D01*
X157765714Y-89848571D01*
X157622857Y-89920000D01*
X157551428Y-90062857D01*
X157551428Y-90848571D01*
X157051428Y-89848571D02*
X156480000Y-89848571D01*
X156837142Y-89348571D02*
X156837142Y-90634285D01*
X156765714Y-90777142D01*
X156622857Y-90848571D01*
X156480000Y-90848571D01*
X155980000Y-90848571D02*
X155980000Y-89848571D01*
X155980000Y-89348571D02*
X156051428Y-89420000D01*
X155980000Y-89491428D01*
X155908571Y-89420000D01*
X155980000Y-89348571D01*
X155980000Y-89491428D01*
X155480000Y-89848571D02*
X154908571Y-89848571D01*
X155265714Y-90848571D02*
X155265714Y-89562857D01*
X155194285Y-89420000D01*
X155051428Y-89348571D01*
X154908571Y-89348571D01*
X153837142Y-90777142D02*
X153980000Y-90848571D01*
X154265714Y-90848571D01*
X154408571Y-90777142D01*
X154480000Y-90634285D01*
X154480000Y-90062857D01*
X154408571Y-89920000D01*
X154265714Y-89848571D01*
X153980000Y-89848571D01*
X153837142Y-89920000D01*
X153765714Y-90062857D01*
X153765714Y-90205714D01*
X154480000Y-90348571D01*
X153122857Y-89848571D02*
X153122857Y-90848571D01*
X153122857Y-89991428D02*
X153051428Y-89920000D01*
X152908571Y-89848571D01*
X152694285Y-89848571D01*
X152551428Y-89920000D01*
X152480000Y-90062857D01*
X152480000Y-90848571D01*
D10*
X153765238Y-86082142D02*
X153812857Y-86129761D01*
X153955714Y-86177380D01*
X154050952Y-86177380D01*
X154193809Y-86129761D01*
X154289047Y-86034523D01*
X154336666Y-85939285D01*
X154384285Y-85748809D01*
X154384285Y-85605952D01*
X154336666Y-85415476D01*
X154289047Y-85320238D01*
X154193809Y-85225000D01*
X154050952Y-85177380D01*
X153955714Y-85177380D01*
X153812857Y-85225000D01*
X153765238Y-85272619D01*
X152860476Y-86177380D02*
X153336666Y-86177380D01*
X153336666Y-85177380D01*
X159250000Y-86177380D02*
X159250000Y-85177380D01*
X158773809Y-86177380D02*
X158773809Y-85177380D01*
X158392857Y-85177380D01*
X158297619Y-85225000D01*
X158250000Y-85272619D01*
X158202380Y-85367857D01*
X158202380Y-85510714D01*
X158250000Y-85605952D01*
X158297619Y-85653571D01*
X158392857Y-85701190D01*
X158773809Y-85701190D01*
X146748333Y-94702380D02*
X146415000Y-95702380D01*
X146081666Y-94702380D01*
X145748333Y-95702380D02*
X145748333Y-94702380D01*
X145510238Y-94702380D01*
X145367380Y-94750000D01*
X145272142Y-94845238D01*
X145224523Y-94940476D01*
X145176904Y-95130952D01*
X145176904Y-95273809D01*
X145224523Y-95464285D01*
X145272142Y-95559523D01*
X145367380Y-95654761D01*
X145510238Y-95702380D01*
X145748333Y-95702380D01*
X144748333Y-95702380D02*
X144748333Y-94702380D01*
X144510238Y-94702380D01*
X144367380Y-94750000D01*
X144272142Y-94845238D01*
X144224523Y-94940476D01*
X144176904Y-95130952D01*
X144176904Y-95273809D01*
X144224523Y-95464285D01*
X144272142Y-95559523D01*
X144367380Y-95654761D01*
X144510238Y-95702380D01*
X144748333Y-95702380D01*
X157170476Y-95702380D02*
X157503809Y-95226190D01*
X157741904Y-95702380D02*
X157741904Y-94702380D01*
X157360952Y-94702380D01*
X157265714Y-94750000D01*
X157218095Y-94797619D01*
X157170476Y-94892857D01*
X157170476Y-95035714D01*
X157218095Y-95130952D01*
X157265714Y-95178571D01*
X157360952Y-95226190D01*
X157741904Y-95226190D01*
X152780952Y-95321428D02*
X152019047Y-95321428D01*
X152400000Y-95702380D02*
X152400000Y-94940476D01*
X170306904Y-97290000D02*
X170402142Y-97242380D01*
X170545000Y-97242380D01*
X170687857Y-97290000D01*
X170783095Y-97385238D01*
X170830714Y-97480476D01*
X170878333Y-97670952D01*
X170878333Y-97813809D01*
X170830714Y-98004285D01*
X170783095Y-98099523D01*
X170687857Y-98194761D01*
X170545000Y-98242380D01*
X170449761Y-98242380D01*
X170306904Y-98194761D01*
X170259285Y-98147142D01*
X170259285Y-97813809D01*
X170449761Y-97813809D01*
X169830714Y-98242380D02*
X169830714Y-97242380D01*
X169259285Y-98242380D01*
X169259285Y-97242380D01*
X168783095Y-98242380D02*
X168783095Y-97242380D01*
X168545000Y-97242380D01*
X168402142Y-97290000D01*
X168306904Y-97385238D01*
X168259285Y-97480476D01*
X168211666Y-97670952D01*
X168211666Y-97813809D01*
X168259285Y-98004285D01*
X168306904Y-98099523D01*
X168402142Y-98194761D01*
X168545000Y-98242380D01*
X168783095Y-98242380D01*
X170306904Y-92210000D02*
X170402142Y-92162380D01*
X170545000Y-92162380D01*
X170687857Y-92210000D01*
X170783095Y-92305238D01*
X170830714Y-92400476D01*
X170878333Y-92590952D01*
X170878333Y-92733809D01*
X170830714Y-92924285D01*
X170783095Y-93019523D01*
X170687857Y-93114761D01*
X170545000Y-93162380D01*
X170449761Y-93162380D01*
X170306904Y-93114761D01*
X170259285Y-93067142D01*
X170259285Y-92733809D01*
X170449761Y-92733809D01*
X169830714Y-93162380D02*
X169830714Y-92162380D01*
X169259285Y-93162380D01*
X169259285Y-92162380D01*
X168783095Y-93162380D02*
X168783095Y-92162380D01*
X168545000Y-92162380D01*
X168402142Y-92210000D01*
X168306904Y-92305238D01*
X168259285Y-92400476D01*
X168211666Y-92590952D01*
X168211666Y-92733809D01*
X168259285Y-92924285D01*
X168306904Y-93019523D01*
X168402142Y-93114761D01*
X168545000Y-93162380D01*
X168783095Y-93162380D01*
X146748333Y-97242380D02*
X146415000Y-98242380D01*
X146081666Y-97242380D01*
X145748333Y-98242380D02*
X145748333Y-97242380D01*
X145510238Y-97242380D01*
X145367380Y-97290000D01*
X145272142Y-97385238D01*
X145224523Y-97480476D01*
X145176904Y-97670952D01*
X145176904Y-97813809D01*
X145224523Y-98004285D01*
X145272142Y-98099523D01*
X145367380Y-98194761D01*
X145510238Y-98242380D01*
X145748333Y-98242380D01*
X144748333Y-98242380D02*
X144748333Y-97242380D01*
X144510238Y-97242380D01*
X144367380Y-97290000D01*
X144272142Y-97385238D01*
X144224523Y-97480476D01*
X144176904Y-97670952D01*
X144176904Y-97813809D01*
X144224523Y-98004285D01*
X144272142Y-98099523D01*
X144367380Y-98194761D01*
X144510238Y-98242380D01*
X144748333Y-98242380D01*
X146748333Y-92162380D02*
X146415000Y-93162380D01*
X146081666Y-92162380D01*
X145748333Y-93162380D02*
X145748333Y-92162380D01*
X145510238Y-92162380D01*
X145367380Y-92210000D01*
X145272142Y-92305238D01*
X145224523Y-92400476D01*
X145176904Y-92590952D01*
X145176904Y-92733809D01*
X145224523Y-92924285D01*
X145272142Y-93019523D01*
X145367380Y-93114761D01*
X145510238Y-93162380D01*
X145748333Y-93162380D01*
X144748333Y-93162380D02*
X144748333Y-92162380D01*
X144510238Y-92162380D01*
X144367380Y-92210000D01*
X144272142Y-92305238D01*
X144224523Y-92400476D01*
X144176904Y-92590952D01*
X144176904Y-92733809D01*
X144224523Y-92924285D01*
X144272142Y-93019523D01*
X144367380Y-93114761D01*
X144510238Y-93162380D01*
X144748333Y-93162380D01*
X159710476Y-95607142D02*
X159758095Y-95654761D01*
X159900952Y-95702380D01*
X159996190Y-95702380D01*
X160139047Y-95654761D01*
X160234285Y-95559523D01*
X160281904Y-95464285D01*
X160329523Y-95273809D01*
X160329523Y-95130952D01*
X160281904Y-94940476D01*
X160234285Y-94845238D01*
X160139047Y-94750000D01*
X159996190Y-94702380D01*
X159900952Y-94702380D01*
X159758095Y-94750000D01*
X159710476Y-94797619D01*
X170306904Y-94750000D02*
X170402142Y-94702380D01*
X170545000Y-94702380D01*
X170687857Y-94750000D01*
X170783095Y-94845238D01*
X170830714Y-94940476D01*
X170878333Y-95130952D01*
X170878333Y-95273809D01*
X170830714Y-95464285D01*
X170783095Y-95559523D01*
X170687857Y-95654761D01*
X170545000Y-95702380D01*
X170449761Y-95702380D01*
X170306904Y-95654761D01*
X170259285Y-95607142D01*
X170259285Y-95273809D01*
X170449761Y-95273809D01*
X169830714Y-95702380D02*
X169830714Y-94702380D01*
X169259285Y-95702380D01*
X169259285Y-94702380D01*
X168783095Y-95702380D02*
X168783095Y-94702380D01*
X168545000Y-94702380D01*
X168402142Y-94750000D01*
X168306904Y-94845238D01*
X168259285Y-94940476D01*
X168211666Y-95130952D01*
X168211666Y-95273809D01*
X168259285Y-95464285D01*
X168306904Y-95559523D01*
X168402142Y-95654761D01*
X168545000Y-95702380D01*
X168783095Y-95702380D01*
X162940952Y-95321428D02*
X162179047Y-95321428D01*
D12*
G04 #@! TO.C,J6*
X139700000Y-91313000D02*
X143510000Y-91313000D01*
X139700000Y-99187000D02*
X139700000Y-91313000D01*
X143510000Y-99187000D02*
X139700000Y-99187000D01*
X143510000Y-91313000D02*
X143510000Y-99187000D01*
X138303000Y-98425000D02*
X139573000Y-97790000D01*
X138303000Y-97155000D02*
X138303000Y-98425000D01*
X139573000Y-97790000D02*
X138303000Y-97155000D01*
G04 #@! TO.C,J5*
X153670000Y-81153000D02*
X154305000Y-79883000D01*
X154305000Y-79883000D02*
X153035000Y-79883000D01*
X153035000Y-79883000D02*
X153670000Y-81153000D01*
X162687000Y-85090000D02*
X152273000Y-85090000D01*
X152273000Y-85090000D02*
X152273000Y-81280000D01*
X152273000Y-81280000D02*
X162687000Y-81280000D01*
X162687000Y-81280000D02*
X162687000Y-85090000D01*
G04 #@! TO.C,J7*
X171323000Y-97790000D02*
X170053000Y-97155000D01*
X170053000Y-97155000D02*
X170053000Y-98425000D01*
X170053000Y-98425000D02*
X171323000Y-97790000D01*
X175260000Y-91313000D02*
X175260000Y-99187000D01*
X175260000Y-99187000D02*
X171450000Y-99187000D01*
X171450000Y-99187000D02*
X171450000Y-91313000D01*
X171450000Y-91313000D02*
X175260000Y-91313000D01*
G04 #@! TO.C,J2*
X162941000Y-95250000D02*
G75*
G03X162941000Y-95250000I-381000J0D01*
G01*
G04 #@! TO.C,J6*
D13*
X141057380Y-94916666D02*
X141771666Y-94916666D01*
X141914523Y-94869047D01*
X142009761Y-94773809D01*
X142057380Y-94630952D01*
X142057380Y-94535714D01*
X141057380Y-95821428D02*
X141057380Y-95630952D01*
X141105000Y-95535714D01*
X141152619Y-95488095D01*
X141295476Y-95392857D01*
X141485952Y-95345238D01*
X141866904Y-95345238D01*
X141962142Y-95392857D01*
X142009761Y-95440476D01*
X142057380Y-95535714D01*
X142057380Y-95726190D01*
X142009761Y-95821428D01*
X141962142Y-95869047D01*
X141866904Y-95916666D01*
X141628809Y-95916666D01*
X141533571Y-95869047D01*
X141485952Y-95821428D01*
X141438333Y-95726190D01*
X141438333Y-95535714D01*
X141485952Y-95440476D01*
X141533571Y-95392857D01*
X141628809Y-95345238D01*
X141057380Y-92710000D02*
X141295476Y-92710000D01*
X141200238Y-92471904D02*
X141295476Y-92710000D01*
X141200238Y-92948095D01*
X141485952Y-92567142D02*
X141295476Y-92710000D01*
X141485952Y-92852857D01*
G04 #@! TO.C,J5*
X157813333Y-82637380D02*
X157813333Y-83351666D01*
X157860952Y-83494523D01*
X157956190Y-83589761D01*
X158099047Y-83637380D01*
X158194285Y-83637380D01*
X156860952Y-82637380D02*
X157337142Y-82637380D01*
X157384761Y-83113571D01*
X157337142Y-83065952D01*
X157241904Y-83018333D01*
X157003809Y-83018333D01*
X156908571Y-83065952D01*
X156860952Y-83113571D01*
X156813333Y-83208809D01*
X156813333Y-83446904D01*
X156860952Y-83542142D01*
X156908571Y-83589761D01*
X157003809Y-83637380D01*
X157241904Y-83637380D01*
X157337142Y-83589761D01*
X157384761Y-83542142D01*
X161290000Y-82637380D02*
X161290000Y-82875476D01*
X161528095Y-82780238D02*
X161290000Y-82875476D01*
X161051904Y-82780238D01*
X161432857Y-83065952D02*
X161290000Y-82875476D01*
X161147142Y-83065952D01*
G04 #@! TO.C,J7*
X172807380Y-94916666D02*
X173521666Y-94916666D01*
X173664523Y-94869047D01*
X173759761Y-94773809D01*
X173807380Y-94630952D01*
X173807380Y-94535714D01*
X172807380Y-95297619D02*
X172807380Y-95964285D01*
X173807380Y-95535714D01*
X172807380Y-92710000D02*
X173045476Y-92710000D01*
X172950238Y-92471904D02*
X173045476Y-92710000D01*
X172950238Y-92948095D01*
X173235952Y-92567142D02*
X173045476Y-92710000D01*
X173235952Y-92852857D01*
G04 #@! TD*
M02*
