G04 #@! TF.GenerationSoftware,KiCad,Pcbnew,(5.0.2)-1*
G04 #@! TF.CreationDate,2019-08-29T18:06:14-04:00*
G04 #@! TF.ProjectId,IGEM_Device,4947454d-5f44-4657-9669-63652e6b6963,rev?*
G04 #@! TF.SameCoordinates,Original*
G04 #@! TF.FileFunction,Soldermask,Top*
G04 #@! TF.FilePolarity,Negative*
%FSLAX46Y46*%
G04 Gerber Fmt 4.6, Leading zero omitted, Abs format (unit mm)*
G04 Created by KiCad (PCBNEW (5.0.2)-1) date 2019-08-29 6:06:14 PM*
%MOMM*%
%LPD*%
G01*
G04 APERTURE LIST*
%ADD10C,0.100000*%
G04 APERTURE END LIST*
D10*
G36*
X174104500Y-98539500D02*
X172605500Y-98539500D01*
X172605500Y-97040500D01*
X174104500Y-97040500D01*
X174104500Y-98539500D01*
X174104500Y-98539500D01*
G37*
G36*
X142354500Y-98539500D02*
X140855500Y-98539500D01*
X140855500Y-97040500D01*
X142354500Y-97040500D01*
X142354500Y-98539500D01*
X142354500Y-98539500D01*
G37*
G36*
X160257142Y-96373242D02*
X160405102Y-96434530D01*
X160538258Y-96523502D01*
X160651498Y-96636742D01*
X160740470Y-96769898D01*
X160801758Y-96917858D01*
X160833000Y-97074925D01*
X160833000Y-97235075D01*
X160801758Y-97392142D01*
X160740470Y-97540102D01*
X160651498Y-97673258D01*
X160538258Y-97786498D01*
X160405102Y-97875470D01*
X160257142Y-97936758D01*
X160100075Y-97968000D01*
X159939925Y-97968000D01*
X159782858Y-97936758D01*
X159634898Y-97875470D01*
X159501742Y-97786498D01*
X159388502Y-97673258D01*
X159299530Y-97540102D01*
X159238242Y-97392142D01*
X159207000Y-97235075D01*
X159207000Y-97074925D01*
X159238242Y-96917858D01*
X159299530Y-96769898D01*
X159388502Y-96636742D01*
X159501742Y-96523502D01*
X159634898Y-96434530D01*
X159782858Y-96373242D01*
X159939925Y-96342000D01*
X160100075Y-96342000D01*
X160257142Y-96373242D01*
X160257142Y-96373242D01*
G37*
G36*
X157717142Y-96373242D02*
X157865102Y-96434530D01*
X157998258Y-96523502D01*
X158111498Y-96636742D01*
X158200470Y-96769898D01*
X158261758Y-96917858D01*
X158293000Y-97074925D01*
X158293000Y-97235075D01*
X158261758Y-97392142D01*
X158200470Y-97540102D01*
X158111498Y-97673258D01*
X157998258Y-97786498D01*
X157865102Y-97875470D01*
X157717142Y-97936758D01*
X157560075Y-97968000D01*
X157399925Y-97968000D01*
X157242858Y-97936758D01*
X157094898Y-97875470D01*
X156961742Y-97786498D01*
X156848502Y-97673258D01*
X156759530Y-97540102D01*
X156698242Y-97392142D01*
X156667000Y-97235075D01*
X156667000Y-97074925D01*
X156698242Y-96917858D01*
X156759530Y-96769898D01*
X156848502Y-96636742D01*
X156961742Y-96523502D01*
X157094898Y-96434530D01*
X157242858Y-96373242D01*
X157399925Y-96342000D01*
X157560075Y-96342000D01*
X157717142Y-96373242D01*
X157717142Y-96373242D01*
G37*
G36*
X155177142Y-96373242D02*
X155325102Y-96434530D01*
X155458258Y-96523502D01*
X155571498Y-96636742D01*
X155660470Y-96769898D01*
X155721758Y-96917858D01*
X155753000Y-97074925D01*
X155753000Y-97235075D01*
X155721758Y-97392142D01*
X155660470Y-97540102D01*
X155571498Y-97673258D01*
X155458258Y-97786498D01*
X155325102Y-97875470D01*
X155177142Y-97936758D01*
X155020075Y-97968000D01*
X154859925Y-97968000D01*
X154702858Y-97936758D01*
X154554898Y-97875470D01*
X154421742Y-97786498D01*
X154308502Y-97673258D01*
X154219530Y-97540102D01*
X154158242Y-97392142D01*
X154127000Y-97235075D01*
X154127000Y-97074925D01*
X154158242Y-96917858D01*
X154219530Y-96769898D01*
X154308502Y-96636742D01*
X154421742Y-96523502D01*
X154554898Y-96434530D01*
X154702858Y-96373242D01*
X154859925Y-96342000D01*
X155020075Y-96342000D01*
X155177142Y-96373242D01*
X155177142Y-96373242D01*
G37*
G36*
X152637142Y-96373242D02*
X152785102Y-96434530D01*
X152918258Y-96523502D01*
X153031498Y-96636742D01*
X153120470Y-96769898D01*
X153181758Y-96917858D01*
X153213000Y-97074925D01*
X153213000Y-97235075D01*
X153181758Y-97392142D01*
X153120470Y-97540102D01*
X153031498Y-97673258D01*
X152918258Y-97786498D01*
X152785102Y-97875470D01*
X152637142Y-97936758D01*
X152480075Y-97968000D01*
X152319925Y-97968000D01*
X152162858Y-97936758D01*
X152014898Y-97875470D01*
X151881742Y-97786498D01*
X151768502Y-97673258D01*
X151679530Y-97540102D01*
X151618242Y-97392142D01*
X151587000Y-97235075D01*
X151587000Y-97074925D01*
X151618242Y-96917858D01*
X151679530Y-96769898D01*
X151768502Y-96636742D01*
X151881742Y-96523502D01*
X152014898Y-96434530D01*
X152162858Y-96373242D01*
X152319925Y-96342000D01*
X152480075Y-96342000D01*
X152637142Y-96373242D01*
X152637142Y-96373242D01*
G37*
G36*
X162797142Y-96373242D02*
X162945102Y-96434530D01*
X163078258Y-96523502D01*
X163191498Y-96636742D01*
X163280470Y-96769898D01*
X163341758Y-96917858D01*
X163373000Y-97074925D01*
X163373000Y-97235075D01*
X163341758Y-97392142D01*
X163280470Y-97540102D01*
X163191498Y-97673258D01*
X163078258Y-97786498D01*
X162945102Y-97875470D01*
X162797142Y-97936758D01*
X162640075Y-97968000D01*
X162479925Y-97968000D01*
X162322858Y-97936758D01*
X162174898Y-97875470D01*
X162041742Y-97786498D01*
X161928502Y-97673258D01*
X161839530Y-97540102D01*
X161778242Y-97392142D01*
X161747000Y-97235075D01*
X161747000Y-97074925D01*
X161778242Y-96917858D01*
X161839530Y-96769898D01*
X161928502Y-96636742D01*
X162041742Y-96523502D01*
X162174898Y-96434530D01*
X162322858Y-96373242D01*
X162479925Y-96342000D01*
X162640075Y-96342000D01*
X162797142Y-96373242D01*
X162797142Y-96373242D01*
G37*
G36*
X141823621Y-94529302D02*
X141960022Y-94585801D01*
X142082779Y-94667825D01*
X142187175Y-94772221D01*
X142269199Y-94894978D01*
X142325698Y-95031379D01*
X142354500Y-95176181D01*
X142354500Y-95323819D01*
X142325698Y-95468621D01*
X142269199Y-95605022D01*
X142187175Y-95727779D01*
X142082779Y-95832175D01*
X141960022Y-95914199D01*
X141823621Y-95970698D01*
X141678819Y-95999500D01*
X141531181Y-95999500D01*
X141386379Y-95970698D01*
X141249978Y-95914199D01*
X141127221Y-95832175D01*
X141022825Y-95727779D01*
X140940801Y-95605022D01*
X140884302Y-95468621D01*
X140855500Y-95323819D01*
X140855500Y-95176181D01*
X140884302Y-95031379D01*
X140940801Y-94894978D01*
X141022825Y-94772221D01*
X141127221Y-94667825D01*
X141249978Y-94585801D01*
X141386379Y-94529302D01*
X141531181Y-94500500D01*
X141678819Y-94500500D01*
X141823621Y-94529302D01*
X141823621Y-94529302D01*
G37*
G36*
X173573621Y-94529302D02*
X173710022Y-94585801D01*
X173832779Y-94667825D01*
X173937175Y-94772221D01*
X174019199Y-94894978D01*
X174075698Y-95031379D01*
X174104500Y-95176181D01*
X174104500Y-95323819D01*
X174075698Y-95468621D01*
X174019199Y-95605022D01*
X173937175Y-95727779D01*
X173832779Y-95832175D01*
X173710022Y-95914199D01*
X173573621Y-95970698D01*
X173428819Y-95999500D01*
X173281181Y-95999500D01*
X173136379Y-95970698D01*
X172999978Y-95914199D01*
X172877221Y-95832175D01*
X172772825Y-95727779D01*
X172690801Y-95605022D01*
X172634302Y-95468621D01*
X172605500Y-95323819D01*
X172605500Y-95176181D01*
X172634302Y-95031379D01*
X172690801Y-94894978D01*
X172772825Y-94772221D01*
X172877221Y-94667825D01*
X172999978Y-94585801D01*
X173136379Y-94529302D01*
X173281181Y-94500500D01*
X173428819Y-94500500D01*
X173573621Y-94529302D01*
X173573621Y-94529302D01*
G37*
G36*
X146836000Y-95501000D02*
X146204000Y-95501000D01*
X146204000Y-94999000D01*
X146836000Y-94999000D01*
X146836000Y-95501000D01*
X146836000Y-95501000D01*
G37*
G36*
X148436000Y-95501000D02*
X147804000Y-95501000D01*
X147804000Y-94999000D01*
X148436000Y-94999000D01*
X148436000Y-95501000D01*
X148436000Y-95501000D01*
G37*
G36*
X146751000Y-94061000D02*
X145349000Y-94061000D01*
X145349000Y-93259000D01*
X146751000Y-93259000D01*
X146751000Y-94061000D01*
X146751000Y-94061000D01*
G37*
G36*
X149291000Y-94061000D02*
X147889000Y-94061000D01*
X147889000Y-93259000D01*
X149291000Y-93259000D01*
X149291000Y-94061000D01*
X149291000Y-94061000D01*
G37*
G36*
X155856000Y-94021000D02*
X154754000Y-94021000D01*
X154754000Y-92669000D01*
X155856000Y-92669000D01*
X155856000Y-94021000D01*
X155856000Y-94021000D01*
G37*
G36*
X153856000Y-94021000D02*
X152754000Y-94021000D01*
X152754000Y-92669000D01*
X153856000Y-92669000D01*
X153856000Y-94021000D01*
X153856000Y-94021000D01*
G37*
G36*
X173573621Y-91989302D02*
X173710022Y-92045801D01*
X173832779Y-92127825D01*
X173937175Y-92232221D01*
X174019199Y-92354978D01*
X174075698Y-92491379D01*
X174104500Y-92636181D01*
X174104500Y-92783819D01*
X174075698Y-92928621D01*
X174019199Y-93065022D01*
X173937175Y-93187779D01*
X173832779Y-93292175D01*
X173710022Y-93374199D01*
X173573621Y-93430698D01*
X173428819Y-93459500D01*
X173281181Y-93459500D01*
X173136379Y-93430698D01*
X172999978Y-93374199D01*
X172877221Y-93292175D01*
X172772825Y-93187779D01*
X172690801Y-93065022D01*
X172634302Y-92928621D01*
X172605500Y-92783819D01*
X172605500Y-92636181D01*
X172634302Y-92491379D01*
X172690801Y-92354978D01*
X172772825Y-92232221D01*
X172877221Y-92127825D01*
X172999978Y-92045801D01*
X173136379Y-91989302D01*
X173281181Y-91960500D01*
X173428819Y-91960500D01*
X173573621Y-91989302D01*
X173573621Y-91989302D01*
G37*
G36*
X141823621Y-91989302D02*
X141960022Y-92045801D01*
X142082779Y-92127825D01*
X142187175Y-92232221D01*
X142269199Y-92354978D01*
X142325698Y-92491379D01*
X142354500Y-92636181D01*
X142354500Y-92783819D01*
X142325698Y-92928621D01*
X142269199Y-93065022D01*
X142187175Y-93187779D01*
X142082779Y-93292175D01*
X141960022Y-93374199D01*
X141823621Y-93430698D01*
X141678819Y-93459500D01*
X141531181Y-93459500D01*
X141386379Y-93430698D01*
X141249978Y-93374199D01*
X141127221Y-93292175D01*
X141022825Y-93187779D01*
X140940801Y-93065022D01*
X140884302Y-92928621D01*
X140855500Y-92783819D01*
X140855500Y-92636181D01*
X140884302Y-92491379D01*
X140940801Y-92354978D01*
X141022825Y-92232221D01*
X141127221Y-92127825D01*
X141249978Y-92045801D01*
X141386379Y-91989302D01*
X141531181Y-91960500D01*
X141678819Y-91960500D01*
X141823621Y-91989302D01*
X141823621Y-91989302D01*
G37*
G36*
X162341000Y-88716000D02*
X162331000Y-88716000D01*
X162306614Y-88718402D01*
X162283165Y-88725515D01*
X162261554Y-88737066D01*
X162242612Y-88752612D01*
X162227066Y-88771554D01*
X162215515Y-88793165D01*
X162208402Y-88816614D01*
X162206000Y-88841000D01*
X162206000Y-91499000D01*
X162208402Y-91523386D01*
X162215515Y-91546835D01*
X162227066Y-91568446D01*
X162242612Y-91587388D01*
X162261554Y-91602934D01*
X162283165Y-91614485D01*
X162306614Y-91621598D01*
X162331000Y-91624000D01*
X162341000Y-91624000D01*
X162341000Y-92586000D01*
X158969000Y-92586000D01*
X158969000Y-91624000D01*
X158979000Y-91624000D01*
X159003386Y-91621598D01*
X159026835Y-91614485D01*
X159048446Y-91602934D01*
X159067388Y-91587388D01*
X159082934Y-91568446D01*
X159094485Y-91546835D01*
X159101598Y-91523386D01*
X159104000Y-91499000D01*
X159104000Y-88841000D01*
X159101598Y-88816614D01*
X159094485Y-88793165D01*
X159082934Y-88771554D01*
X159067388Y-88752612D01*
X159048446Y-88737066D01*
X159026835Y-88725515D01*
X159003386Y-88718402D01*
X158979000Y-88716000D01*
X158969000Y-88716000D01*
X158969000Y-87754000D01*
X162341000Y-87754000D01*
X162341000Y-88716000D01*
X162341000Y-88716000D01*
G37*
G36*
X146751000Y-92161000D02*
X145349000Y-92161000D01*
X145349000Y-91359000D01*
X146751000Y-91359000D01*
X146751000Y-92161000D01*
X146751000Y-92161000D01*
G37*
G36*
X149291000Y-92161000D02*
X147889000Y-92161000D01*
X147889000Y-91359000D01*
X149291000Y-91359000D01*
X149291000Y-92161000D01*
X149291000Y-92161000D01*
G37*
G36*
X151171000Y-91721000D02*
X149819000Y-91721000D01*
X149819000Y-90619000D01*
X151171000Y-90619000D01*
X151171000Y-91721000D01*
X151171000Y-91721000D01*
G37*
G36*
X153975000Y-91450401D02*
X152399800Y-91450401D01*
X152399800Y-90789601D01*
X153975000Y-90789601D01*
X153975000Y-91450401D01*
X153975000Y-91450401D01*
G37*
G36*
X156210200Y-91450401D02*
X154635000Y-91450401D01*
X154635000Y-90789601D01*
X156210200Y-90789601D01*
X156210200Y-91450401D01*
X156210200Y-91450401D01*
G37*
G36*
X153975000Y-90500400D02*
X152399800Y-90500400D01*
X152399800Y-89839600D01*
X153975000Y-89839600D01*
X153975000Y-90500400D01*
X153975000Y-90500400D01*
G37*
G36*
X156210200Y-90500400D02*
X154635000Y-90500400D01*
X154635000Y-89839600D01*
X156210200Y-89839600D01*
X156210200Y-90500400D01*
X156210200Y-90500400D01*
G37*
G36*
X151171000Y-89721000D02*
X149819000Y-89721000D01*
X149819000Y-88619000D01*
X151171000Y-88619000D01*
X151171000Y-89721000D01*
X151171000Y-89721000D01*
G37*
G36*
X156210200Y-89550399D02*
X154635000Y-89550399D01*
X154635000Y-88889599D01*
X156210200Y-88889599D01*
X156210200Y-89550399D01*
X156210200Y-89550399D01*
G37*
G36*
X153975000Y-89550399D02*
X152399800Y-89550399D01*
X152399800Y-88889599D01*
X153975000Y-88889599D01*
X153975000Y-89550399D01*
X153975000Y-89550399D01*
G37*
G36*
X147650400Y-89230400D02*
X146989600Y-89230400D01*
X146989600Y-87147200D01*
X147650400Y-87147200D01*
X147650400Y-89230400D01*
X147650400Y-89230400D01*
G37*
G36*
X148920400Y-89230400D02*
X148259600Y-89230400D01*
X148259600Y-87147200D01*
X148920400Y-87147200D01*
X148920400Y-89230400D01*
X148920400Y-89230400D01*
G37*
G36*
X145110400Y-89230400D02*
X144449600Y-89230400D01*
X144449600Y-87147200D01*
X145110400Y-87147200D01*
X145110400Y-89230400D01*
X145110400Y-89230400D01*
G37*
G36*
X146380400Y-89230400D02*
X145719600Y-89230400D01*
X145719600Y-87147200D01*
X146380400Y-87147200D01*
X146380400Y-89230400D01*
X146380400Y-89230400D01*
G37*
G36*
X171491000Y-89181000D02*
X170139000Y-89181000D01*
X170139000Y-88079000D01*
X171491000Y-88079000D01*
X171491000Y-89181000D01*
X171491000Y-89181000D01*
G37*
G36*
X165166000Y-88346000D02*
X163764000Y-88346000D01*
X163764000Y-87544000D01*
X165166000Y-87544000D01*
X165166000Y-88346000D01*
X165166000Y-88346000D01*
G37*
G36*
X167310000Y-87238799D02*
X166039600Y-87238799D01*
X166039600Y-85481201D01*
X167310000Y-85481201D01*
X167310000Y-87238799D01*
X167310000Y-87238799D01*
G37*
G36*
X169240400Y-87238799D02*
X167970000Y-87238799D01*
X167970000Y-86781199D01*
X169240400Y-86781199D01*
X169240400Y-87238799D01*
X169240400Y-87238799D01*
G37*
G36*
X171491000Y-87181000D02*
X170139000Y-87181000D01*
X170139000Y-86079000D01*
X171491000Y-86079000D01*
X171491000Y-87181000D01*
X171491000Y-87181000D01*
G37*
G36*
X154386000Y-87061000D02*
X153584000Y-87061000D01*
X153584000Y-85659000D01*
X154386000Y-85659000D01*
X154386000Y-87061000D01*
X154386000Y-87061000D01*
G37*
G36*
X152486000Y-87061000D02*
X151684000Y-87061000D01*
X151684000Y-85659000D01*
X152486000Y-85659000D01*
X152486000Y-87061000D01*
X152486000Y-87061000D01*
G37*
G36*
X157031000Y-87036000D02*
X155929000Y-87036000D01*
X155929000Y-85684000D01*
X157031000Y-85684000D01*
X157031000Y-87036000D01*
X157031000Y-87036000D01*
G37*
G36*
X159031000Y-87036000D02*
X157929000Y-87036000D01*
X157929000Y-85684000D01*
X159031000Y-85684000D01*
X159031000Y-87036000D01*
X159031000Y-87036000D01*
G37*
G36*
X165166000Y-86446000D02*
X163764000Y-86446000D01*
X163764000Y-85644000D01*
X165166000Y-85644000D01*
X165166000Y-86446000D01*
X165166000Y-86446000D01*
G37*
G36*
X169240400Y-85938801D02*
X167970000Y-85938801D01*
X167970000Y-85481201D01*
X169240400Y-85481201D01*
X169240400Y-85938801D01*
X169240400Y-85938801D01*
G37*
G36*
X171491000Y-85371000D02*
X170139000Y-85371000D01*
X170139000Y-84269000D01*
X171491000Y-84269000D01*
X171491000Y-85371000D01*
X171491000Y-85371000D01*
G37*
G36*
X168991000Y-84521000D02*
X168189000Y-84521000D01*
X168189000Y-83119000D01*
X168991000Y-83119000D01*
X168991000Y-84521000D01*
X168991000Y-84521000D01*
G37*
G36*
X167091000Y-84521000D02*
X166289000Y-84521000D01*
X166289000Y-83119000D01*
X167091000Y-83119000D01*
X167091000Y-84521000D01*
X167091000Y-84521000D01*
G37*
G36*
X146380400Y-84302800D02*
X145719600Y-84302800D01*
X145719600Y-82219600D01*
X146380400Y-82219600D01*
X146380400Y-84302800D01*
X146380400Y-84302800D01*
G37*
G36*
X145110400Y-84302800D02*
X144449600Y-84302800D01*
X144449600Y-82219600D01*
X145110400Y-82219600D01*
X145110400Y-84302800D01*
X145110400Y-84302800D01*
G37*
G36*
X148920400Y-84302800D02*
X148259600Y-84302800D01*
X148259600Y-82219600D01*
X148920400Y-82219600D01*
X148920400Y-84302800D01*
X148920400Y-84302800D01*
G37*
G36*
X147650400Y-84302800D02*
X146989600Y-84302800D01*
X146989600Y-82219600D01*
X147650400Y-82219600D01*
X147650400Y-84302800D01*
X147650400Y-84302800D01*
G37*
G36*
X154419500Y-83934500D02*
X152920500Y-83934500D01*
X152920500Y-82435500D01*
X154419500Y-82435500D01*
X154419500Y-83934500D01*
X154419500Y-83934500D01*
G37*
G36*
X156428621Y-82464302D02*
X156565022Y-82520801D01*
X156687779Y-82602825D01*
X156792175Y-82707221D01*
X156874199Y-82829978D01*
X156930698Y-82966379D01*
X156959500Y-83111181D01*
X156959500Y-83258819D01*
X156930698Y-83403621D01*
X156874199Y-83540022D01*
X156792175Y-83662779D01*
X156687779Y-83767175D01*
X156565022Y-83849199D01*
X156428621Y-83905698D01*
X156283819Y-83934500D01*
X156136181Y-83934500D01*
X155991379Y-83905698D01*
X155854978Y-83849199D01*
X155732221Y-83767175D01*
X155627825Y-83662779D01*
X155545801Y-83540022D01*
X155489302Y-83403621D01*
X155460500Y-83258819D01*
X155460500Y-83111181D01*
X155489302Y-82966379D01*
X155545801Y-82829978D01*
X155627825Y-82707221D01*
X155732221Y-82602825D01*
X155854978Y-82520801D01*
X155991379Y-82464302D01*
X156136181Y-82435500D01*
X156283819Y-82435500D01*
X156428621Y-82464302D01*
X156428621Y-82464302D01*
G37*
G36*
X158968621Y-82464302D02*
X159105022Y-82520801D01*
X159227779Y-82602825D01*
X159332175Y-82707221D01*
X159414199Y-82829978D01*
X159470698Y-82966379D01*
X159499500Y-83111181D01*
X159499500Y-83258819D01*
X159470698Y-83403621D01*
X159414199Y-83540022D01*
X159332175Y-83662779D01*
X159227779Y-83767175D01*
X159105022Y-83849199D01*
X158968621Y-83905698D01*
X158823819Y-83934500D01*
X158676181Y-83934500D01*
X158531379Y-83905698D01*
X158394978Y-83849199D01*
X158272221Y-83767175D01*
X158167825Y-83662779D01*
X158085801Y-83540022D01*
X158029302Y-83403621D01*
X158000500Y-83258819D01*
X158000500Y-83111181D01*
X158029302Y-82966379D01*
X158085801Y-82829978D01*
X158167825Y-82707221D01*
X158272221Y-82602825D01*
X158394978Y-82520801D01*
X158531379Y-82464302D01*
X158676181Y-82435500D01*
X158823819Y-82435500D01*
X158968621Y-82464302D01*
X158968621Y-82464302D01*
G37*
G36*
X161508621Y-82464302D02*
X161645022Y-82520801D01*
X161767779Y-82602825D01*
X161872175Y-82707221D01*
X161954199Y-82829978D01*
X162010698Y-82966379D01*
X162039500Y-83111181D01*
X162039500Y-83258819D01*
X162010698Y-83403621D01*
X161954199Y-83540022D01*
X161872175Y-83662779D01*
X161767779Y-83767175D01*
X161645022Y-83849199D01*
X161508621Y-83905698D01*
X161363819Y-83934500D01*
X161216181Y-83934500D01*
X161071379Y-83905698D01*
X160934978Y-83849199D01*
X160812221Y-83767175D01*
X160707825Y-83662779D01*
X160625801Y-83540022D01*
X160569302Y-83403621D01*
X160540500Y-83258819D01*
X160540500Y-83111181D01*
X160569302Y-82966379D01*
X160625801Y-82829978D01*
X160707825Y-82707221D01*
X160812221Y-82602825D01*
X160934978Y-82520801D01*
X161071379Y-82464302D01*
X161216181Y-82435500D01*
X161363819Y-82435500D01*
X161508621Y-82464302D01*
X161508621Y-82464302D01*
G37*
G36*
X171491000Y-83371000D02*
X170139000Y-83371000D01*
X170139000Y-82269000D01*
X171491000Y-82269000D01*
X171491000Y-83371000D01*
X171491000Y-83371000D01*
G37*
M02*
