M48
;DRILL file {KiCad (5.0.2)-1} date 2019-08-29 6:03:41 PM
;FORMAT={3:3/ absolute / metric / suppress leading zeros}
FMAT,2
METRIC,TZ
T1C0.400
T2C0.700
T3C1.000
T4C1.016
T5C1.143
%
G90
G05
T1
X146050Y-57785
X149860Y-53340
X156210Y-65405
X158115Y-69215
X159385Y-69215
X160655Y-69215
X167640Y-66040
T2
X140970Y-58055
X140970Y-60055
T3
X170180Y-52705
X170180Y-55245
X170180Y-57785
X170180Y-60325
X172720Y-52705
X172720Y-55245
X172720Y-57785
X172720Y-60325
T4
X153670Y-53975
X156210Y-53975
X158750Y-53975
X161290Y-53975
T5
X173355Y-63500
X173355Y-66040
X173355Y-68580
X141605Y-63500
X141605Y-66040
X141605Y-68580
T0
M30
