G04 #@! TF.GenerationSoftware,KiCad,Pcbnew,(5.0.2)-1*
G04 #@! TF.CreationDate,2019-08-29T18:00:19-04:00*
G04 #@! TF.ProjectId,IGEM_Device,4947454d-5f44-4657-9669-63652e6b6963,rev?*
G04 #@! TF.SameCoordinates,Original*
G04 #@! TF.FileFunction,Copper,L1,Top*
G04 #@! TF.FilePolarity,Positive*
%FSLAX46Y46*%
G04 Gerber Fmt 4.6, Leading zero omitted, Abs format (unit mm)*
G04 Created by KiCad (PCBNEW (5.0.2)-1) date 2019-08-29 6:00:19 PM*
%MOMM*%
%LPD*%
G01*
G04 APERTURE LIST*
G04 #@! TA.AperFunction,ComponentPad*
%ADD10C,1.651000*%
G04 #@! TD*
G04 #@! TA.AperFunction,ComponentPad*
%ADD11R,1.208000X1.208000*%
G04 #@! TD*
G04 #@! TA.AperFunction,ComponentPad*
%ADD12C,1.208000*%
G04 #@! TD*
G04 #@! TA.AperFunction,ComponentPad*
%ADD13C,1.524000*%
G04 #@! TD*
G04 #@! TA.AperFunction,ComponentPad*
%ADD14R,1.508000X1.508000*%
G04 #@! TD*
G04 #@! TA.AperFunction,ComponentPad*
%ADD15C,1.508000*%
G04 #@! TD*
G04 #@! TA.AperFunction,SMDPad,CuDef*
%ADD16R,0.760000X0.760000*%
G04 #@! TD*
G04 #@! TA.AperFunction,SMDPad,CuDef*
%ADD17R,1.000000X1.250000*%
G04 #@! TD*
G04 #@! TA.AperFunction,SMDPad,CuDef*
%ADD18R,1.250000X1.000000*%
G04 #@! TD*
G04 #@! TA.AperFunction,SMDPad,CuDef*
%ADD19R,1.320800X0.558800*%
G04 #@! TD*
G04 #@! TA.AperFunction,ViaPad*
%ADD20C,0.600000*%
G04 #@! TD*
G04 #@! TA.AperFunction,Conductor*
%ADD21C,0.250000*%
G04 #@! TD*
G04 APERTURE END LIST*
D10*
G04 #@! TO.P,J8,3*
G04 #@! TO.N,+2V85*
X141605000Y-63500000D03*
G04 #@! TO.P,J8,2*
X141605000Y-66040000D03*
G04 #@! TO.P,J8,1*
X141605000Y-68580000D03*
G04 #@! TD*
G04 #@! TO.P,J9,1*
G04 #@! TO.N,GND*
X173355000Y-68580000D03*
G04 #@! TO.P,J9,2*
X173355000Y-66040000D03*
G04 #@! TO.P,J9,3*
X173355000Y-63500000D03*
G04 #@! TD*
D11*
G04 #@! TO.P,J3,1*
G04 #@! TO.N,+BATT*
X140970000Y-58055000D03*
D12*
G04 #@! TO.P,J3,2*
G04 #@! TO.N,GND*
X140970000Y-60055000D03*
G04 #@! TD*
D13*
G04 #@! TO.P,J4,1*
G04 #@! TO.N,/SCL*
X153670000Y-53975000D03*
G04 #@! TO.P,J4,2*
G04 #@! TO.N,/SDA*
X156210000Y-53975000D03*
G04 #@! TO.P,J4,3*
G04 #@! TO.N,/IP_CONTROL*
X158750000Y-53975000D03*
G04 #@! TO.P,J4,4*
G04 #@! TO.N,/POWER_GOOD*
X161290000Y-53975000D03*
G04 #@! TD*
D14*
G04 #@! TO.P,J1,1*
G04 #@! TO.N,GND*
X172720000Y-52705000D03*
D15*
G04 #@! TO.P,J1,2*
G04 #@! TO.N,/RESET*
X170180000Y-52705000D03*
G04 #@! TO.P,J1,3*
G04 #@! TO.N,GND*
X172720000Y-55245000D03*
G04 #@! TO.P,J1,4*
G04 #@! TO.N,/JTAG_TCXC*
X170180000Y-55245000D03*
G04 #@! TO.P,J1,5*
G04 #@! TO.N,/JTAG_TDI*
X172720000Y-57785000D03*
G04 #@! TO.P,J1,6*
G04 #@! TO.N,/JTAG_TMSC*
X170180000Y-57785000D03*
G04 #@! TO.P,J1,7*
G04 #@! TO.N,/JTAG_TDO*
X172720000Y-60325000D03*
G04 #@! TO.P,J1,8*
G04 #@! TO.N,+2V85*
X170180000Y-60325000D03*
G04 #@! TD*
D16*
G04 #@! TO.P,U1,1*
G04 #@! TO.N,Net-(U1-Pad1)*
X153460000Y-67770000D03*
G04 #@! TO.P,U1,2*
G04 #@! TO.N,GND*
X154460000Y-67770000D03*
G04 #@! TO.P,U1,3*
X155460000Y-67770000D03*
G04 #@! TO.P,U1,4*
G04 #@! TO.N,Net-(U1-Pad4)*
X156460000Y-67770000D03*
G04 #@! TO.P,U1,5*
G04 #@! TO.N,Net-(U1-Pad5)*
X157460000Y-67770000D03*
G04 #@! TO.P,U1,6*
G04 #@! TO.N,/RESET*
X158460000Y-67770000D03*
G04 #@! TO.P,U1,7*
G04 #@! TO.N,/JTAG_TCXC*
X159460000Y-67770000D03*
G04 #@! TO.P,U1,8*
G04 #@! TO.N,/JTAG_TMSC*
X160460000Y-67770000D03*
G04 #@! TO.P,U1,9*
G04 #@! TO.N,Net-(U1-Pad9)*
X161460000Y-67770000D03*
G04 #@! TO.P,U1,10*
G04 #@! TO.N,Net-(U1-Pad10)*
X162460000Y-67770000D03*
G04 #@! TO.P,U1,11*
G04 #@! TO.N,+2V85*
X163460000Y-67770000D03*
G04 #@! TO.P,U1,12*
X164460000Y-67770000D03*
G04 #@! TO.P,U1,13*
G04 #@! TO.N,/JTAG_TDO*
X165460000Y-66865000D03*
G04 #@! TO.P,U1,14*
G04 #@! TO.N,/JTAG_TDI*
X165460000Y-65865000D03*
G04 #@! TO.P,U1,15*
G04 #@! TO.N,Net-(U1-Pad15)*
X165460000Y-64865000D03*
G04 #@! TO.P,U1,16*
G04 #@! TO.N,Net-(U1-Pad16)*
X165460000Y-63865000D03*
G04 #@! TO.P,U1,17*
G04 #@! TO.N,Net-(U1-Pad17)*
X165460000Y-62865000D03*
G04 #@! TO.P,U1,18*
G04 #@! TO.N,Net-(U1-Pad18)*
X165460000Y-61865000D03*
G04 #@! TO.P,U1,19*
G04 #@! TO.N,Net-(U1-Pad19)*
X165460000Y-60865000D03*
G04 #@! TO.P,U1,20*
G04 #@! TO.N,Net-(U1-Pad20)*
X165460000Y-59865000D03*
G04 #@! TO.P,U1,21*
G04 #@! TO.N,Net-(U1-Pad21)*
X165460000Y-58865000D03*
G04 #@! TO.P,U1,22*
G04 #@! TO.N,GND*
X164460000Y-57960000D03*
G04 #@! TO.P,U1,23*
G04 #@! TO.N,Net-(U1-Pad23)*
X163460000Y-57960000D03*
G04 #@! TO.P,U1,24*
G04 #@! TO.N,Net-(U1-Pad24)*
X162460000Y-57960000D03*
G04 #@! TO.P,U1,25*
G04 #@! TO.N,Net-(U1-Pad25)*
X161460000Y-57960000D03*
G04 #@! TO.P,U1,26*
G04 #@! TO.N,Net-(U1-Pad26)*
X160460000Y-57960000D03*
G04 #@! TO.P,U1,27*
G04 #@! TO.N,Net-(U1-Pad27)*
X159460000Y-57960000D03*
G04 #@! TO.P,U1,28*
G04 #@! TO.N,Net-(U1-Pad28)*
X158460000Y-57960000D03*
G04 #@! TO.P,U1,29*
G04 #@! TO.N,/POWER_GOOD*
X157460000Y-57960000D03*
G04 #@! TO.P,U1,30*
G04 #@! TO.N,/IP_CONTROL*
X156460000Y-57960000D03*
G04 #@! TO.P,U1,31*
G04 #@! TO.N,/SDA*
X155460000Y-57960000D03*
G04 #@! TO.P,U1,32*
G04 #@! TO.N,/SCL*
X154460000Y-57960000D03*
G04 #@! TO.P,U1,33*
G04 #@! TO.N,GND*
X153460000Y-57960000D03*
G04 #@! TO.P,U1,34*
X162480000Y-64135000D03*
G04 #@! TO.P,U1,35*
X161210000Y-64135000D03*
G04 #@! TO.P,U1,36*
X159940000Y-64135000D03*
G04 #@! TO.P,U1,37*
X159940000Y-61595000D03*
G04 #@! TO.P,U1,38*
X161210000Y-61595000D03*
G04 #@! TO.P,U1,39*
X162460000Y-61595000D03*
G04 #@! TD*
D17*
G04 #@! TO.P,C2,2*
G04 #@! TO.N,GND*
X146415000Y-68580000D03*
G04 #@! TO.P,C2,1*
G04 #@! TO.N,+2V85*
X144415000Y-68580000D03*
G04 #@! TD*
G04 #@! TO.P,C1,2*
G04 #@! TO.N,GND*
X146415000Y-66040000D03*
G04 #@! TO.P,C1,1*
G04 #@! TO.N,Net-(C1-Pad1)*
X144415000Y-66040000D03*
G04 #@! TD*
G04 #@! TO.P,C7,2*
G04 #@! TO.N,GND*
X171180000Y-63500000D03*
G04 #@! TO.P,C7,1*
G04 #@! TO.N,+2V85*
X169180000Y-63500000D03*
G04 #@! TD*
G04 #@! TO.P,C10,1*
G04 #@! TO.N,+2V85*
X169180000Y-66040000D03*
G04 #@! TO.P,C10,2*
G04 #@! TO.N,GND*
X171180000Y-66040000D03*
G04 #@! TD*
D18*
G04 #@! TO.P,C11,2*
G04 #@! TO.N,GND*
X142875000Y-54975000D03*
G04 #@! TO.P,C11,1*
G04 #@! TO.N,+BATT*
X142875000Y-52975000D03*
G04 #@! TD*
D19*
G04 #@! TO.P,U2,1*
G04 #@! TO.N,+BATT*
X145389600Y-53024999D03*
G04 #@! TO.P,U2,2*
G04 #@! TO.N,GND*
X145389600Y-53975000D03*
G04 #@! TO.P,U2,3*
G04 #@! TO.N,+BATT*
X145389600Y-54925001D03*
G04 #@! TO.P,U2,4*
G04 #@! TO.N,Net-(C1-Pad1)*
X147980400Y-54925001D03*
G04 #@! TO.P,U2,5*
G04 #@! TO.N,+2V85*
X147980400Y-53024999D03*
G04 #@! TD*
D20*
G04 #@! TO.N,GND*
X146050000Y-57785000D03*
G04 #@! TO.N,+2V85*
X156210000Y-65405000D03*
X149860000Y-53340000D03*
G04 #@! TO.N,/RESET*
X158115000Y-69215000D03*
G04 #@! TO.N,/JTAG_TCXC*
X159385000Y-69215000D03*
G04 #@! TO.N,/JTAG_TMSC*
X160655000Y-69215000D03*
G04 #@! TO.N,/JTAG_TDO*
X167640000Y-66040000D03*
G04 #@! TD*
D21*
G04 #@! TO.N,GND*
X171180000Y-63500000D02*
X171180000Y-66040000D01*
X171180000Y-63500000D02*
X173355000Y-63500000D01*
X172720000Y-52705000D02*
X172720000Y-55245000D01*
X172720000Y-55245000D02*
X174625000Y-57150000D01*
X174625000Y-62230000D02*
X173355000Y-63500000D01*
X174625000Y-57150000D02*
X174625000Y-62230000D01*
X162480000Y-64135000D02*
X161210000Y-64135000D01*
X161210000Y-64135000D02*
X159940000Y-64135000D01*
X159940000Y-63505000D02*
X159940000Y-61595000D01*
X159940000Y-64135000D02*
X159940000Y-63505000D01*
X159940000Y-61595000D02*
X161210000Y-61595000D01*
X161210000Y-61595000D02*
X162460000Y-61595000D01*
X164460000Y-58590000D02*
X164460000Y-57960000D01*
X164460000Y-58965000D02*
X164460000Y-58590000D01*
X162460000Y-60965000D02*
X164460000Y-58965000D01*
X162460000Y-61595000D02*
X162460000Y-60965000D01*
X159940000Y-61595000D02*
X155575000Y-61595000D01*
X153460000Y-59480000D02*
X153460000Y-57960000D01*
X155575000Y-61595000D02*
X153460000Y-59480000D01*
X155460000Y-67770000D02*
X154460000Y-67770000D01*
X172720000Y-53709000D02*
X172454000Y-53975000D01*
X172720000Y-52705000D02*
X172720000Y-53709000D01*
X165090000Y-57960000D02*
X164460000Y-57960000D01*
X169075000Y-53975000D02*
X165090000Y-57960000D01*
X172454000Y-53975000D02*
X169075000Y-53975000D01*
X154460000Y-68400000D02*
X153645000Y-69215000D01*
X154460000Y-67770000D02*
X154460000Y-68400000D01*
X153645000Y-69215000D02*
X149860000Y-69215000D01*
X149225000Y-68580000D02*
X146415000Y-68580000D01*
X149860000Y-69215000D02*
X149225000Y-68580000D01*
X146415000Y-68580000D02*
X146415000Y-66040000D01*
X144750000Y-53975000D02*
X145389600Y-53975000D01*
X143750000Y-54975000D02*
X144750000Y-53975000D01*
X142875000Y-54975000D02*
X143750000Y-54975000D01*
X142875000Y-58150000D02*
X140970000Y-60055000D01*
X142875000Y-54975000D02*
X142875000Y-58150000D01*
X154460000Y-65250000D02*
X154460000Y-67770000D01*
X159940000Y-64135000D02*
X155575000Y-64135000D01*
X155575000Y-64135000D02*
X154460000Y-65250000D01*
X173355000Y-63500000D02*
X173355000Y-66040000D01*
X173355000Y-66040000D02*
X173355000Y-68580000D01*
X146415000Y-58150000D02*
X146050000Y-57785000D01*
X146415000Y-66040000D02*
X146415000Y-58150000D01*
G04 #@! TO.N,+2V85*
X163460000Y-67770000D02*
X164460000Y-67770000D01*
X169180000Y-63500000D02*
X169180000Y-66040000D01*
X165090000Y-67770000D02*
X164460000Y-67770000D01*
X167575000Y-67770000D02*
X165090000Y-67770000D01*
X169180000Y-66165000D02*
X167575000Y-67770000D01*
X169180000Y-66040000D02*
X169180000Y-66165000D01*
X144415000Y-68580000D02*
X141605000Y-68580000D01*
X141605000Y-68580000D02*
X141605000Y-66040000D01*
X141605000Y-66040000D02*
X141605000Y-63500000D01*
X149544999Y-53024999D02*
X149860000Y-53340000D01*
X147980400Y-53024999D02*
X149544999Y-53024999D01*
X156634264Y-65405000D02*
X156210000Y-65405000D01*
X161725000Y-65405000D02*
X156634264Y-65405000D01*
X163460000Y-67140000D02*
X161725000Y-65405000D01*
X163460000Y-67770000D02*
X163460000Y-67140000D01*
X169180000Y-61325000D02*
X169180000Y-63500000D01*
X170180000Y-60325000D02*
X169180000Y-61325000D01*
G04 #@! TO.N,Net-(C1-Pad1)*
X147599400Y-54925001D02*
X147980400Y-54925001D01*
X144415000Y-58109401D02*
X147599400Y-54925001D01*
X144415000Y-66040000D02*
X144415000Y-58109401D01*
G04 #@! TO.N,+BATT*
X142750000Y-52975000D02*
X142875000Y-52975000D01*
X140970000Y-54755000D02*
X142750000Y-52975000D01*
X140970000Y-58055000D02*
X140970000Y-54755000D01*
X145339601Y-52975000D02*
X145389600Y-53024999D01*
X142875000Y-52975000D02*
X145339601Y-52975000D01*
X146300000Y-54925001D02*
X145389600Y-54925001D01*
X146375001Y-54850000D02*
X146300000Y-54925001D01*
X146375001Y-53100000D02*
X146375001Y-54850000D01*
X146300000Y-53024999D02*
X146375001Y-53100000D01*
X145389600Y-53024999D02*
X146300000Y-53024999D01*
G04 #@! TO.N,/POWER_GOOD*
X160528001Y-54736999D02*
X161290000Y-53975000D01*
X160053001Y-54736999D02*
X160528001Y-54736999D01*
X157460000Y-57330000D02*
X160053001Y-54736999D01*
X157460000Y-57960000D02*
X157460000Y-57330000D01*
G04 #@! TO.N,/RESET*
X158460000Y-68870000D02*
X158115000Y-69215000D01*
X158460000Y-67770000D02*
X158460000Y-68870000D01*
G04 #@! TO.N,/JTAG_TCXC*
X159460000Y-69140000D02*
X159385000Y-69215000D01*
X159460000Y-67770000D02*
X159460000Y-69140000D01*
G04 #@! TO.N,/JTAG_TMSC*
X160460000Y-69020000D02*
X160655000Y-69215000D01*
X160460000Y-67770000D02*
X160460000Y-69020000D01*
G04 #@! TO.N,/JTAG_TDO*
X166815000Y-66865000D02*
X167640000Y-66040000D01*
X165460000Y-66865000D02*
X166815000Y-66865000D01*
G04 #@! TO.N,/JTAG_TDI*
X168354999Y-63600001D02*
X168354999Y-60245001D01*
X165460000Y-65865000D02*
X166090000Y-65865000D01*
X166090000Y-65865000D02*
X168354999Y-63600001D01*
X168354999Y-60245001D02*
X169545000Y-59055000D01*
X171450000Y-59055000D02*
X172720000Y-57785000D01*
X169545000Y-59055000D02*
X171450000Y-59055000D01*
G04 #@! TO.N,/IP_CONTROL*
X156460000Y-56265000D02*
X158750000Y-53975000D01*
X156460000Y-57960000D02*
X156460000Y-56265000D01*
G04 #@! TO.N,/SDA*
X155460000Y-54725000D02*
X156210000Y-53975000D01*
X155460000Y-57960000D02*
X155460000Y-54725000D01*
G04 #@! TO.N,/SCL*
X154460000Y-54765000D02*
X153670000Y-53975000D01*
X154460000Y-57960000D02*
X154460000Y-54765000D01*
G04 #@! TD*
M02*
