G04 #@! TF.GenerationSoftware,KiCad,Pcbnew,(5.0.2)-1*
G04 #@! TF.CreationDate,2019-08-29T18:00:19-04:00*
G04 #@! TF.ProjectId,IGEM_Device,4947454d-5f44-4657-9669-63652e6b6963,rev?*
G04 #@! TF.SameCoordinates,Original*
G04 #@! TF.FileFunction,Copper,L2,Bot*
G04 #@! TF.FilePolarity,Positive*
%FSLAX46Y46*%
G04 Gerber Fmt 4.6, Leading zero omitted, Abs format (unit mm)*
G04 Created by KiCad (PCBNEW (5.0.2)-1) date 2019-08-29 6:00:19 PM*
%MOMM*%
%LPD*%
G01*
G04 APERTURE LIST*
G04 #@! TA.AperFunction,SMDPad,CuDef*
%ADD10R,1.250000X1.000000*%
G04 #@! TD*
G04 #@! TA.AperFunction,ComponentPad*
%ADD11C,1.651000*%
G04 #@! TD*
G04 #@! TA.AperFunction,ComponentPad*
%ADD12R,1.208000X1.208000*%
G04 #@! TD*
G04 #@! TA.AperFunction,ComponentPad*
%ADD13C,1.208000*%
G04 #@! TD*
G04 #@! TA.AperFunction,ComponentPad*
%ADD14C,1.524000*%
G04 #@! TD*
G04 #@! TA.AperFunction,ComponentPad*
%ADD15R,1.508000X1.508000*%
G04 #@! TD*
G04 #@! TA.AperFunction,ComponentPad*
%ADD16C,1.508000*%
G04 #@! TD*
G04 #@! TA.AperFunction,ViaPad*
%ADD17C,0.600000*%
G04 #@! TD*
G04 #@! TA.AperFunction,Conductor*
%ADD18C,0.250000*%
G04 #@! TD*
G04 APERTURE END LIST*
D10*
G04 #@! TO.P,C3,2*
G04 #@! TO.N,GND*
X143510000Y-58785000D03*
G04 #@! TO.P,C3,1*
G04 #@! TO.N,+BATT*
X143510000Y-56785000D03*
G04 #@! TD*
D11*
G04 #@! TO.P,J8,3*
G04 #@! TO.N,+2V85*
X141605000Y-63500000D03*
G04 #@! TO.P,J8,2*
X141605000Y-66040000D03*
G04 #@! TO.P,J8,1*
X141605000Y-68580000D03*
G04 #@! TD*
G04 #@! TO.P,J9,1*
G04 #@! TO.N,GND*
X173355000Y-68580000D03*
G04 #@! TO.P,J9,2*
X173355000Y-66040000D03*
G04 #@! TO.P,J9,3*
X173355000Y-63500000D03*
G04 #@! TD*
D12*
G04 #@! TO.P,J3,1*
G04 #@! TO.N,+BATT*
X140970000Y-58055000D03*
D13*
G04 #@! TO.P,J3,2*
G04 #@! TO.N,GND*
X140970000Y-60055000D03*
G04 #@! TD*
D14*
G04 #@! TO.P,J4,1*
G04 #@! TO.N,/SCL*
X153670000Y-53975000D03*
G04 #@! TO.P,J4,2*
G04 #@! TO.N,/SDA*
X156210000Y-53975000D03*
G04 #@! TO.P,J4,3*
G04 #@! TO.N,/IP_CONTROL*
X158750000Y-53975000D03*
G04 #@! TO.P,J4,4*
G04 #@! TO.N,/POWER_GOOD*
X161290000Y-53975000D03*
G04 #@! TD*
D15*
G04 #@! TO.P,J1,1*
G04 #@! TO.N,GND*
X172720000Y-52705000D03*
D16*
G04 #@! TO.P,J1,2*
G04 #@! TO.N,/RESET*
X170180000Y-52705000D03*
G04 #@! TO.P,J1,3*
G04 #@! TO.N,GND*
X172720000Y-55245000D03*
G04 #@! TO.P,J1,4*
G04 #@! TO.N,/JTAG_TCXC*
X170180000Y-55245000D03*
G04 #@! TO.P,J1,5*
G04 #@! TO.N,/JTAG_TDI*
X172720000Y-57785000D03*
G04 #@! TO.P,J1,6*
G04 #@! TO.N,/JTAG_TMSC*
X170180000Y-57785000D03*
G04 #@! TO.P,J1,7*
G04 #@! TO.N,/JTAG_TDO*
X172720000Y-60325000D03*
G04 #@! TO.P,J1,8*
G04 #@! TO.N,+2V85*
X170180000Y-60325000D03*
G04 #@! TD*
D17*
G04 #@! TO.N,GND*
X146050000Y-57785000D03*
G04 #@! TO.N,+2V85*
X156210000Y-65405000D03*
X149860000Y-53340000D03*
G04 #@! TO.N,/RESET*
X158115000Y-69215000D03*
G04 #@! TO.N,/JTAG_TCXC*
X159385000Y-69215000D03*
G04 #@! TO.N,/JTAG_TMSC*
X160655000Y-69215000D03*
G04 #@! TO.N,/JTAG_TDO*
X167640000Y-66040000D03*
G04 #@! TD*
D18*
G04 #@! TO.N,GND*
X145050000Y-58785000D02*
X146050000Y-57785000D01*
X143510000Y-58785000D02*
X145050000Y-58785000D01*
X142240000Y-58785000D02*
X140970000Y-60055000D01*
X143510000Y-58785000D02*
X142240000Y-58785000D01*
G04 #@! TO.N,+2V85*
X149860000Y-55245000D02*
X141605000Y-63500000D01*
X149860000Y-53340000D02*
X149860000Y-55245000D01*
X156210000Y-59690000D02*
X149860000Y-53340000D01*
X156210000Y-65405000D02*
X156210000Y-59690000D01*
G04 #@! TO.N,+BATT*
X140970000Y-57201000D02*
X140970000Y-58055000D01*
X141386000Y-56785000D02*
X140970000Y-57201000D01*
X143510000Y-56785000D02*
X141386000Y-56785000D01*
G04 #@! TO.N,/RESET*
X158115000Y-64770000D02*
X170180000Y-52705000D01*
X158115000Y-69215000D02*
X158115000Y-64770000D01*
G04 #@! TO.N,/JTAG_TCXC*
X159385000Y-66040000D02*
X170180000Y-55245000D01*
X159385000Y-69215000D02*
X159385000Y-66040000D01*
G04 #@! TO.N,/JTAG_TMSC*
X160655000Y-67310000D02*
X170180000Y-57785000D01*
X160655000Y-69215000D02*
X160655000Y-67310000D01*
G04 #@! TO.N,/JTAG_TDO*
X167640000Y-65405000D02*
X172720000Y-60325000D01*
X167640000Y-66040000D02*
X167640000Y-65405000D01*
G04 #@! TD*
M02*
