G04 #@! TF.GenerationSoftware,KiCad,Pcbnew,(5.0.2)-1*
G04 #@! TF.CreationDate,2019-07-02T12:14:06-04:00*
G04 #@! TF.ProjectId,IGEM_Device,4947454d-5f44-4657-9669-63652e6b6963,rev?*
G04 #@! TF.SameCoordinates,Original*
G04 #@! TF.FileFunction,Paste,Top*
G04 #@! TF.FilePolarity,Positive*
%FSLAX46Y46*%
G04 Gerber Fmt 4.6, Leading zero omitted, Abs format (unit mm)*
G04 Created by KiCad (PCBNEW (5.0.2)-1) date 2019-07-02 12:14:06 PM*
%MOMM*%
%LPD*%
G01*
G04 APERTURE LIST*
%ADD10C,0.100000*%
%ADD11R,0.760000X0.760000*%
%ADD12R,1.300000X0.700000*%
%ADD13R,3.149600X4.775200*%
%ADD14R,0.530000X0.400000*%
%ADD15R,1.193800X2.489200*%
%ADD16R,1.250000X1.000000*%
%ADD17R,1.270000X3.180000*%
%ADD18R,1.000000X1.250000*%
%ADD19R,0.700000X1.300000*%
%ADD20R,1.320800X0.558800*%
%ADD21R,0.270000X0.860000*%
%ADD22R,3.000000X2.600000*%
%ADD23R,1.981200X0.558800*%
%ADD24R,1.168400X0.355600*%
G04 APERTURE END LIST*
D10*
G04 #@! TO.C,J2*
G36*
X119380000Y-51318010D02*
X120650000Y-51318010D01*
X120650000Y-54498010D01*
X119380000Y-54498010D01*
X119380000Y-51318010D01*
G37*
G36*
X121920000Y-51318010D02*
X123190000Y-51318010D01*
X123190000Y-54498010D01*
X121920000Y-54498010D01*
X121920000Y-51318010D01*
G37*
G36*
X124460000Y-51318010D02*
X125730000Y-51318010D01*
X125730000Y-54498010D01*
X124460000Y-54498010D01*
X124460000Y-51318010D01*
G37*
G36*
X127000000Y-51318010D02*
X128270000Y-51318010D01*
X128270000Y-54498010D01*
X127000000Y-54498010D01*
X127000000Y-51318010D01*
G37*
G36*
X129540000Y-51318010D02*
X130810000Y-51318010D01*
X130810000Y-54498010D01*
X129540000Y-54498010D01*
X129540000Y-51318010D01*
G37*
G04 #@! TO.C,U3*
G36*
X124145000Y-60510574D02*
X124145000Y-58870000D01*
X126045666Y-58870000D01*
X126045666Y-60510574D01*
X124145000Y-60510574D01*
G37*
G04 #@! TD*
D11*
G04 #@! TO.C,U1*
X144355000Y-66215000D03*
X143355000Y-66215000D03*
X142355000Y-66215000D03*
X141355000Y-66215000D03*
X140355000Y-66215000D03*
X139355000Y-66215000D03*
X138355000Y-66215000D03*
X137355000Y-66215000D03*
X136355000Y-66215000D03*
X135355000Y-66215000D03*
X134355000Y-66215000D03*
X133355000Y-66215000D03*
X132355000Y-67120000D03*
X132355000Y-68120000D03*
X132355000Y-69120000D03*
X132355000Y-70120000D03*
X132355000Y-71120000D03*
X132355000Y-72120000D03*
X132355000Y-73120000D03*
X132355000Y-74120000D03*
X132355000Y-75120000D03*
X133355000Y-76025000D03*
X134355000Y-76025000D03*
X135355000Y-76025000D03*
X136355000Y-76025000D03*
X137355000Y-76025000D03*
X138355000Y-76025000D03*
X139355000Y-76025000D03*
X140355000Y-76025000D03*
X141355000Y-76025000D03*
X142355000Y-76025000D03*
X143355000Y-76025000D03*
X144355000Y-76025000D03*
X135335000Y-69850000D03*
X136605000Y-69850000D03*
X137875000Y-69850000D03*
X137875000Y-72390000D03*
X136605000Y-72390000D03*
X135355000Y-72390000D03*
G04 #@! TD*
D12*
G04 #@! TO.C,R1*
X144780000Y-82865000D03*
X144780000Y-80965000D03*
G04 #@! TD*
D13*
G04 #@! TO.C,J3*
X140893800Y-94615000D03*
X109855000Y-94615000D03*
G04 #@! TD*
D14*
G04 #@! TO.C,D1*
X136360000Y-52070000D03*
X137960000Y-52070000D03*
G04 #@! TD*
D15*
G04 #@! TO.C,SW1*
X102910000Y-82765900D03*
X105410000Y-82765900D03*
X107910000Y-82765900D03*
X107910000Y-77254100D03*
X105410000Y-77254100D03*
X102910000Y-77254100D03*
G04 #@! TD*
D16*
G04 #@! TO.C,C2*
X111125000Y-63865000D03*
X111125000Y-61865000D03*
G04 #@! TD*
D17*
G04 #@! TO.C,J2*
X120015000Y-52908000D03*
X122555000Y-52908000D03*
X125095000Y-52908000D03*
X127635000Y-52908000D03*
X130175000Y-52908000D03*
G04 #@! TD*
D18*
G04 #@! TO.C,C1*
X106950000Y-66675000D03*
X108950000Y-66675000D03*
G04 #@! TD*
D16*
G04 #@! TO.C,C3*
X104140000Y-65675000D03*
X104140000Y-67675000D03*
G04 #@! TD*
G04 #@! TO.C,C4*
X108585000Y-57420000D03*
X108585000Y-59420000D03*
G04 #@! TD*
G04 #@! TO.C,C5*
X108585000Y-52975000D03*
X108585000Y-54975000D03*
G04 #@! TD*
G04 #@! TO.C,C6*
X104140000Y-70120000D03*
X104140000Y-72120000D03*
G04 #@! TD*
G04 #@! TO.C,C7*
X126365000Y-68945000D03*
X126365000Y-66945000D03*
G04 #@! TD*
D18*
G04 #@! TO.C,C8*
X126635000Y-64770000D03*
X128635000Y-64770000D03*
G04 #@! TD*
D16*
G04 #@! TO.C,C9*
X111760000Y-52975000D03*
X111760000Y-54975000D03*
G04 #@! TD*
G04 #@! TO.C,C10*
X120015000Y-66945000D03*
X120015000Y-68945000D03*
G04 #@! TD*
G04 #@! TO.C,C11*
X102870000Y-88630000D03*
X102870000Y-86630000D03*
G04 #@! TD*
G04 #@! TO.C,C12*
X147320000Y-58690000D03*
X147320000Y-60690000D03*
G04 #@! TD*
D12*
G04 #@! TO.C,R2*
X141605000Y-80965000D03*
X141605000Y-82865000D03*
G04 #@! TD*
G04 #@! TO.C,R3*
X138430000Y-56195000D03*
X138430000Y-54295000D03*
G04 #@! TD*
D19*
G04 #@! TO.C,R4*
X103825000Y-53340000D03*
X105725000Y-53340000D03*
G04 #@! TD*
D12*
G04 #@! TO.C,R5*
X135890000Y-54295000D03*
X135890000Y-56195000D03*
G04 #@! TD*
D20*
G04 #@! TO.C,U2*
X104749600Y-61914999D03*
X104749600Y-62865000D03*
X104749600Y-63815001D03*
X107340400Y-63815001D03*
X107340400Y-61914999D03*
G04 #@! TD*
D21*
G04 #@! TO.C,U3*
X123595000Y-61625000D03*
X124095000Y-61625000D03*
X124595000Y-61625000D03*
X125095000Y-61625000D03*
X125595000Y-61625000D03*
X126095000Y-61625000D03*
X126595000Y-61625000D03*
X126595000Y-57755000D03*
X126095000Y-57755000D03*
X125595000Y-57755000D03*
X125095000Y-57755000D03*
X124595000Y-57755000D03*
X124095000Y-57755000D03*
X123595000Y-57755000D03*
D22*
X125095000Y-59690000D03*
G04 #@! TD*
D23*
G04 #@! TO.C,U4*
X142951200Y-52070000D03*
X142951200Y-53340000D03*
X142951200Y-54610000D03*
X142951200Y-55880000D03*
X147878800Y-55880000D03*
X147878800Y-54610000D03*
X147878800Y-53340000D03*
X147878800Y-52070000D03*
G04 #@! TD*
D24*
G04 #@! TO.C,U5*
X103809800Y-55865001D03*
X103809800Y-56515000D03*
X103809800Y-57164999D03*
X105740200Y-57164999D03*
X105740200Y-55865001D03*
G04 #@! TD*
M02*
