G04 #@! TF.GenerationSoftware,KiCad,Pcbnew,(5.0.2)-1*
G04 #@! TF.CreationDate,2019-06-27T19:33:00-04:00*
G04 #@! TF.ProjectId,IGEM_Device,4947454d-5f44-4657-9669-63652e6b6963,rev?*
G04 #@! TF.SameCoordinates,Original*
G04 #@! TF.FileFunction,Copper,L1,Top*
G04 #@! TF.FilePolarity,Positive*
%FSLAX46Y46*%
G04 Gerber Fmt 4.6, Leading zero omitted, Abs format (unit mm)*
G04 Created by KiCad (PCBNEW (5.0.2)-1) date 2019-06-27 7:33:00 PM*
%MOMM*%
%LPD*%
G01*
G04 APERTURE LIST*
G04 #@! TA.AperFunction,SMDPad,CuDef*
%ADD10R,0.760000X0.760000*%
G04 #@! TD*
G04 #@! TA.AperFunction,SMDPad,CuDef*
%ADD11R,1.300000X0.700000*%
G04 #@! TD*
G04 #@! TA.AperFunction,SMDPad,CuDef*
%ADD12R,3.149600X4.775200*%
G04 #@! TD*
G04 #@! TA.AperFunction,SMDPad,CuDef*
%ADD13R,0.530000X0.400000*%
G04 #@! TD*
G04 #@! TA.AperFunction,SMDPad,CuDef*
%ADD14R,1.193800X2.489200*%
G04 #@! TD*
G04 #@! TA.AperFunction,SMDPad,CuDef*
%ADD15R,1.250000X1.000000*%
G04 #@! TD*
G04 #@! TA.AperFunction,SMDPad,CuDef*
%ADD16R,1.270000X3.180000*%
G04 #@! TD*
G04 #@! TA.AperFunction,SMDPad,CuDef*
%ADD17R,1.000000X1.250000*%
G04 #@! TD*
G04 #@! TA.AperFunction,ComponentPad*
%ADD18C,1.524000*%
G04 #@! TD*
G04 #@! TA.AperFunction,SMDPad,CuDef*
%ADD19R,0.700000X1.300000*%
G04 #@! TD*
G04 #@! TA.AperFunction,SMDPad,CuDef*
%ADD20R,1.320800X0.558800*%
G04 #@! TD*
G04 #@! TA.AperFunction,SMDPad,CuDef*
%ADD21R,0.270000X0.860000*%
G04 #@! TD*
G04 #@! TA.AperFunction,SMDPad,CuDef*
%ADD22R,3.000000X2.600000*%
G04 #@! TD*
G04 #@! TA.AperFunction,SMDPad,CuDef*
%ADD23R,1.981200X0.558800*%
G04 #@! TD*
G04 #@! TA.AperFunction,SMDPad,CuDef*
%ADD24R,1.168400X0.355600*%
G04 #@! TD*
G04 #@! TA.AperFunction,ViaPad*
%ADD25C,0.600000*%
G04 #@! TD*
G04 #@! TA.AperFunction,Conductor*
%ADD26C,0.250000*%
G04 #@! TD*
G04 APERTURE END LIST*
D10*
G04 #@! TO.P,U1,1*
G04 #@! TO.N,Net-(U1-Pad1)*
X144355000Y-66215000D03*
G04 #@! TO.P,U1,2*
G04 #@! TO.N,GND*
X143355000Y-66215000D03*
G04 #@! TO.P,U1,3*
X142355000Y-66215000D03*
G04 #@! TO.P,U1,4*
G04 #@! TO.N,Net-(U1-Pad4)*
X141355000Y-66215000D03*
G04 #@! TO.P,U1,5*
G04 #@! TO.N,Net-(U1-Pad5)*
X140355000Y-66215000D03*
G04 #@! TO.P,U1,6*
G04 #@! TO.N,/RESET*
X139355000Y-66215000D03*
G04 #@! TO.P,U1,7*
G04 #@! TO.N,/JTAG_TCXC*
X138355000Y-66215000D03*
G04 #@! TO.P,U1,8*
G04 #@! TO.N,/JTAG_TMSC*
X137355000Y-66215000D03*
G04 #@! TO.P,U1,9*
G04 #@! TO.N,Net-(U1-Pad9)*
X136355000Y-66215000D03*
G04 #@! TO.P,U1,10*
G04 #@! TO.N,Net-(U1-Pad10)*
X135355000Y-66215000D03*
G04 #@! TO.P,U1,11*
G04 #@! TO.N,+2V85*
X134355000Y-66215000D03*
G04 #@! TO.P,U1,12*
X133355000Y-66215000D03*
G04 #@! TO.P,U1,13*
G04 #@! TO.N,/JTAG_TDO*
X132355000Y-67120000D03*
G04 #@! TO.P,U1,14*
G04 #@! TO.N,/JTAG_TDI*
X132355000Y-68120000D03*
G04 #@! TO.P,U1,15*
G04 #@! TO.N,Net-(U1-Pad15)*
X132355000Y-69120000D03*
G04 #@! TO.P,U1,16*
G04 #@! TO.N,Net-(U1-Pad16)*
X132355000Y-70120000D03*
G04 #@! TO.P,U1,17*
G04 #@! TO.N,/IP_CONTROL*
X132355000Y-71120000D03*
G04 #@! TO.P,U1,18*
G04 #@! TO.N,Net-(U1-Pad18)*
X132355000Y-72120000D03*
G04 #@! TO.P,U1,19*
G04 #@! TO.N,Net-(U1-Pad19)*
X132355000Y-73120000D03*
G04 #@! TO.P,U1,20*
G04 #@! TO.N,Net-(U1-Pad20)*
X132355000Y-74120000D03*
G04 #@! TO.P,U1,21*
G04 #@! TO.N,/POWER_GOOD*
X132355000Y-75120000D03*
G04 #@! TO.P,U1,22*
G04 #@! TO.N,GND*
X133355000Y-76025000D03*
G04 #@! TO.P,U1,23*
G04 #@! TO.N,Net-(U1-Pad23)*
X134355000Y-76025000D03*
G04 #@! TO.P,U1,24*
G04 #@! TO.N,/TEMP_OUT*
X135355000Y-76025000D03*
G04 #@! TO.P,U1,25*
G04 #@! TO.N,Net-(U1-Pad25)*
X136355000Y-76025000D03*
G04 #@! TO.P,U1,26*
G04 #@! TO.N,Net-(U1-Pad26)*
X137355000Y-76025000D03*
G04 #@! TO.P,U1,27*
G04 #@! TO.N,Net-(U1-Pad27)*
X138355000Y-76025000D03*
G04 #@! TO.P,U1,28*
G04 #@! TO.N,Net-(U1-Pad28)*
X139355000Y-76025000D03*
G04 #@! TO.P,U1,29*
G04 #@! TO.N,Net-(U1-Pad29)*
X140355000Y-76025000D03*
G04 #@! TO.P,U1,30*
G04 #@! TO.N,Net-(U1-Pad30)*
X141355000Y-76025000D03*
G04 #@! TO.P,U1,31*
G04 #@! TO.N,/EXT_TEMP_SCL*
X142355000Y-76025000D03*
G04 #@! TO.P,U1,32*
G04 #@! TO.N,/EXT_TEMP_SDA*
X143355000Y-76025000D03*
G04 #@! TO.P,U1,33*
G04 #@! TO.N,GND*
X144355000Y-76025000D03*
G04 #@! TO.P,U1,34*
X135335000Y-69850000D03*
G04 #@! TO.P,U1,35*
X136605000Y-69850000D03*
G04 #@! TO.P,U1,36*
X137875000Y-69850000D03*
G04 #@! TO.P,U1,37*
X137875000Y-72390000D03*
G04 #@! TO.P,U1,38*
X136605000Y-72390000D03*
G04 #@! TO.P,U1,39*
X135355000Y-72390000D03*
G04 #@! TD*
D11*
G04 #@! TO.P,R1,1*
G04 #@! TO.N,+2V85*
X144780000Y-82865000D03*
G04 #@! TO.P,R1,2*
G04 #@! TO.N,/EXT_TEMP_SDA*
X144780000Y-80965000D03*
G04 #@! TD*
D12*
G04 #@! TO.P,J3,1*
G04 #@! TO.N,+BATT*
X140893800Y-94615000D03*
G04 #@! TO.P,J3,2*
G04 #@! TO.N,GND*
X109855000Y-94615000D03*
G04 #@! TD*
D13*
G04 #@! TO.P,D1,C*
G04 #@! TO.N,/IP_CATHODE*
X136360000Y-52070000D03*
G04 #@! TO.P,D1,A*
G04 #@! TO.N,Net-(D1-PadA)*
X137960000Y-52070000D03*
G04 #@! TD*
D14*
G04 #@! TO.P,SW1,1*
G04 #@! TO.N,+BATT*
X102910000Y-82765900D03*
G04 #@! TO.P,SW1,2*
G04 #@! TO.N,Net-(C3-Pad1)*
X105410000Y-82765900D03*
G04 #@! TO.P,SW1,3*
G04 #@! TO.N,N/C*
X107910000Y-82765900D03*
G04 #@! TO.P,SW1,4*
X107910000Y-77254100D03*
G04 #@! TO.P,SW1,5*
X105410000Y-77254100D03*
G04 #@! TO.P,SW1,6*
X102910000Y-77254100D03*
G04 #@! TD*
D15*
G04 #@! TO.P,C2,2*
G04 #@! TO.N,GND*
X111125000Y-63865000D03*
G04 #@! TO.P,C2,1*
G04 #@! TO.N,+2V85*
X111125000Y-61865000D03*
G04 #@! TD*
D16*
G04 #@! TO.P,J2,1*
G04 #@! TO.N,GND*
X120015000Y-52908000D03*
G04 #@! TO.P,J2,2*
G04 #@! TO.N,/COUN_ELECTRODE*
X122555000Y-52908000D03*
G04 #@! TO.P,J2,3*
G04 #@! TO.N,/REF_ELECTRODE*
X125095000Y-52908000D03*
G04 #@! TO.P,J2,4*
G04 #@! TO.N,/WORK_ELECTRODE*
X127635000Y-52908000D03*
G04 #@! TO.P,J2,5*
G04 #@! TO.N,/IP_CATHODE*
X130175000Y-52908000D03*
G04 #@! TD*
D17*
G04 #@! TO.P,C1,2*
G04 #@! TO.N,GND*
X106950000Y-66675000D03*
G04 #@! TO.P,C1,1*
G04 #@! TO.N,Net-(C1-Pad1)*
X108950000Y-66675000D03*
G04 #@! TD*
D15*
G04 #@! TO.P,C3,1*
G04 #@! TO.N,Net-(C3-Pad1)*
X104140000Y-65675000D03*
G04 #@! TO.P,C3,2*
G04 #@! TO.N,GND*
X104140000Y-67675000D03*
G04 #@! TD*
G04 #@! TO.P,C4,1*
G04 #@! TO.N,+2V85*
X108585000Y-57420000D03*
G04 #@! TO.P,C4,2*
G04 #@! TO.N,GND*
X108585000Y-59420000D03*
G04 #@! TD*
G04 #@! TO.P,C5,2*
G04 #@! TO.N,GND*
X108585000Y-52975000D03*
G04 #@! TO.P,C5,1*
G04 #@! TO.N,+1V8*
X108585000Y-54975000D03*
G04 #@! TD*
G04 #@! TO.P,C6,1*
G04 #@! TO.N,GND*
X104140000Y-70120000D03*
G04 #@! TO.P,C6,2*
G04 #@! TO.N,+2V85*
X104140000Y-72120000D03*
G04 #@! TD*
G04 #@! TO.P,C7,2*
G04 #@! TO.N,GND*
X126365000Y-68945000D03*
G04 #@! TO.P,C7,1*
G04 #@! TO.N,+2V85*
X126365000Y-66945000D03*
G04 #@! TD*
D17*
G04 #@! TO.P,C8,1*
G04 #@! TO.N,+2V85*
X126635000Y-64770000D03*
G04 #@! TO.P,C8,2*
G04 #@! TO.N,GND*
X128635000Y-64770000D03*
G04 #@! TD*
D15*
G04 #@! TO.P,C9,2*
G04 #@! TO.N,GND*
X111760000Y-52975000D03*
G04 #@! TO.P,C9,1*
G04 #@! TO.N,+1V8*
X111760000Y-54975000D03*
G04 #@! TD*
G04 #@! TO.P,C10,1*
G04 #@! TO.N,+2V85*
X120015000Y-66945000D03*
G04 #@! TO.P,C10,2*
G04 #@! TO.N,GND*
X120015000Y-68945000D03*
G04 #@! TD*
G04 #@! TO.P,C11,2*
G04 #@! TO.N,GND*
X102870000Y-88630000D03*
G04 #@! TO.P,C11,1*
G04 #@! TO.N,+BATT*
X102870000Y-86630000D03*
G04 #@! TD*
G04 #@! TO.P,C12,1*
G04 #@! TO.N,+3V3*
X147320000Y-58690000D03*
G04 #@! TO.P,C12,2*
G04 #@! TO.N,GND*
X147320000Y-60690000D03*
G04 #@! TD*
D18*
G04 #@! TO.P,J1,1*
G04 #@! TO.N,+3V3*
X142875000Y-59055000D03*
G04 #@! TO.P,J1,2*
G04 #@! TO.N,GND*
X140335000Y-59055000D03*
G04 #@! TO.P,J1,3*
X137795000Y-59055000D03*
G04 #@! TO.P,J1,4*
G04 #@! TO.N,Net-(J1-Pad4)*
X135255000Y-59055000D03*
G04 #@! TO.P,J1,5*
G04 #@! TO.N,GND*
X132715000Y-59055000D03*
G04 #@! TO.P,J1,6*
G04 #@! TO.N,/RESET*
X142875000Y-61595000D03*
G04 #@! TO.P,J1,7*
G04 #@! TO.N,/JTAG_TCXC*
X140335000Y-61595000D03*
G04 #@! TO.P,J1,8*
G04 #@! TO.N,/JTAG_TMSC*
X137795000Y-61595000D03*
G04 #@! TO.P,J1,9*
G04 #@! TO.N,/JTAG_TDO*
X135255000Y-61595000D03*
G04 #@! TO.P,J1,10*
G04 #@! TO.N,/JTAG_TDI*
X132715000Y-61595000D03*
G04 #@! TD*
D11*
G04 #@! TO.P,R2,2*
G04 #@! TO.N,/EXT_TEMP_SCL*
X141605000Y-80965000D03*
G04 #@! TO.P,R2,1*
G04 #@! TO.N,+2V85*
X141605000Y-82865000D03*
G04 #@! TD*
G04 #@! TO.P,R3,2*
G04 #@! TO.N,Net-(R3-Pad2)*
X138430000Y-56195000D03*
G04 #@! TO.P,R3,1*
G04 #@! TO.N,Net-(D1-PadA)*
X138430000Y-54295000D03*
G04 #@! TD*
D19*
G04 #@! TO.P,R4,2*
G04 #@! TO.N,/POWER_GOOD*
X103825000Y-53340000D03*
G04 #@! TO.P,R4,1*
G04 #@! TO.N,+1V8*
X105725000Y-53340000D03*
G04 #@! TD*
D11*
G04 #@! TO.P,R5,1*
G04 #@! TO.N,/IP_CATHODE*
X135890000Y-54295000D03*
G04 #@! TO.P,R5,2*
G04 #@! TO.N,Net-(R3-Pad2)*
X135890000Y-56195000D03*
G04 #@! TD*
D20*
G04 #@! TO.P,U2,1*
G04 #@! TO.N,Net-(C3-Pad1)*
X104749600Y-61914999D03*
G04 #@! TO.P,U2,2*
G04 #@! TO.N,GND*
X104749600Y-62865000D03*
G04 #@! TO.P,U2,3*
G04 #@! TO.N,Net-(C3-Pad1)*
X104749600Y-63815001D03*
G04 #@! TO.P,U2,4*
G04 #@! TO.N,Net-(C1-Pad1)*
X107340400Y-63815001D03*
G04 #@! TO.P,U2,5*
G04 #@! TO.N,+2V85*
X107340400Y-61914999D03*
G04 #@! TD*
D21*
G04 #@! TO.P,U3,1*
G04 #@! TO.N,GND*
X123595000Y-61625000D03*
G04 #@! TO.P,U3,2*
X124095000Y-61625000D03*
G04 #@! TO.P,U3,3*
G04 #@! TO.N,/EXT_TEMP_SCL*
X124595000Y-61625000D03*
G04 #@! TO.P,U3,4*
G04 #@! TO.N,/EXT_TEMP_SDA*
X125095000Y-61625000D03*
G04 #@! TO.P,U3,5*
G04 #@! TO.N,N/C*
X125595000Y-61625000D03*
G04 #@! TO.P,U3,6*
G04 #@! TO.N,+2V85*
X126095000Y-61625000D03*
G04 #@! TO.P,U3,7*
G04 #@! TO.N,GND*
X126595000Y-61625000D03*
G04 #@! TO.P,U3,8*
G04 #@! TO.N,/TEMP_OUT*
X126595000Y-57755000D03*
G04 #@! TO.P,U3,9*
G04 #@! TO.N,Net-(U3-Pad9)*
X126095000Y-57755000D03*
G04 #@! TO.P,U3,10*
G04 #@! TO.N,Net-(U3-Pad10)*
X125595000Y-57755000D03*
G04 #@! TO.P,U3,11*
G04 #@! TO.N,+1V8*
X125095000Y-57755000D03*
G04 #@! TO.P,U3,12*
G04 #@! TO.N,/WORK_ELECTRODE*
X124595000Y-57755000D03*
G04 #@! TO.P,U3,13*
G04 #@! TO.N,/REF_ELECTRODE*
X124095000Y-57755000D03*
G04 #@! TO.P,U3,14*
G04 #@! TO.N,/COUN_ELECTRODE*
X123595000Y-57755000D03*
D22*
G04 #@! TO.P,U3,15*
G04 #@! TO.N,GND*
X125095000Y-59690000D03*
G04 #@! TD*
D23*
G04 #@! TO.P,U4,1*
G04 #@! TO.N,Net-(D1-PadA)*
X142951200Y-52070000D03*
G04 #@! TO.P,U4,2*
G04 #@! TO.N,Net-(R3-Pad2)*
X142951200Y-53340000D03*
G04 #@! TO.P,U4,3*
G04 #@! TO.N,/IP_CONTROL*
X142951200Y-54610000D03*
G04 #@! TO.P,U4,4*
G04 #@! TO.N,Net-(U4-Pad4)*
X142951200Y-55880000D03*
G04 #@! TO.P,U4,5*
G04 #@! TO.N,Net-(U4-Pad5)*
X147878800Y-55880000D03*
G04 #@! TO.P,U4,6*
G04 #@! TO.N,Net-(U4-Pad6)*
X147878800Y-54610000D03*
G04 #@! TO.P,U4,7*
G04 #@! TO.N,Net-(U4-Pad7)*
X147878800Y-53340000D03*
G04 #@! TO.P,U4,8*
G04 #@! TO.N,Net-(U4-Pad8)*
X147878800Y-52070000D03*
G04 #@! TD*
D24*
G04 #@! TO.P,U5,1*
G04 #@! TO.N,/POWER_GOOD*
X103809800Y-55865001D03*
G04 #@! TO.P,U5,2*
G04 #@! TO.N,GND*
X103809800Y-56515000D03*
G04 #@! TO.P,U5,3*
G04 #@! TO.N,Net-(U5-Pad3)*
X103809800Y-57164999D03*
G04 #@! TO.P,U5,4*
G04 #@! TO.N,+2V85*
X105740200Y-57164999D03*
G04 #@! TO.P,U5,5*
G04 #@! TO.N,+1V8*
X105740200Y-55865001D03*
G04 #@! TD*
D25*
G04 #@! TO.N,+2V85*
X122555000Y-69850000D03*
G04 #@! TO.N,GND*
X107315000Y-68580000D03*
G04 #@! TO.N,/EXT_TEMP_SCL*
X107950000Y-73025000D03*
X123190000Y-64135000D03*
X137160000Y-80010000D03*
G04 #@! TO.N,/EXT_TEMP_SDA*
X124460000Y-64135000D03*
X146685000Y-79375000D03*
X106680000Y-71755000D03*
G04 #@! TO.N,+2V85*
X110490000Y-74295000D03*
X122555000Y-66945000D03*
G04 #@! TO.N,/TEMP_OUT*
X139700000Y-78740000D03*
X128905000Y-57785000D03*
G04 #@! TO.N,+1V8*
X114300000Y-55880000D03*
X128270000Y-56515000D03*
G04 #@! TO.N,/POWER_GOOD*
X102235000Y-54610000D03*
X128905000Y-71120000D03*
G04 #@! TO.N,/JTAG_TDO*
X129540000Y-62865000D03*
X130175000Y-66675000D03*
G04 #@! TO.N,/JTAG_TDI*
X129540000Y-67310000D03*
X128270000Y-61595000D03*
G04 #@! TO.N,/IP_CONTROL*
X129540000Y-68580000D03*
X140335000Y-56515000D03*
G04 #@! TD*
D26*
G04 #@! TO.N,GND*
X104140000Y-67675000D02*
X104140000Y-70120000D01*
X106950000Y-66800000D02*
X106950000Y-66675000D01*
X106075000Y-67675000D02*
X106950000Y-66800000D01*
X104140000Y-67675000D02*
X106075000Y-67675000D01*
X106045000Y-61085000D02*
X106045000Y-63250000D01*
X107710000Y-59420000D02*
X106045000Y-61085000D01*
X106045000Y-63250000D02*
X105660000Y-62865000D01*
X110250000Y-63865000D02*
X111125000Y-63865000D01*
X105660000Y-62865000D02*
X109250000Y-62865000D01*
X109250000Y-62865000D02*
X110250000Y-63865000D01*
X106950000Y-65800000D02*
X106950000Y-66675000D01*
X106304999Y-65154999D02*
X106950000Y-65800000D01*
X106304999Y-63509999D02*
X106304999Y-65154999D01*
X105660000Y-62865000D02*
X106304999Y-63509999D01*
X104749600Y-62865000D02*
X105660000Y-62865000D01*
X109855000Y-92532200D02*
X109855000Y-93345000D01*
X102870000Y-88630000D02*
X105952800Y-88630000D01*
X135335000Y-71735000D02*
X135355000Y-71755000D01*
X147195000Y-60690000D02*
X147320000Y-60690000D01*
X143355000Y-64530000D02*
X147195000Y-60690000D01*
X119140000Y-68945000D02*
X120015000Y-68945000D01*
X116330000Y-68945000D02*
X119140000Y-68945000D01*
X111250000Y-63865000D02*
X116330000Y-68945000D01*
X111125000Y-63865000D02*
X111250000Y-63865000D01*
X108585000Y-52975000D02*
X111760000Y-52975000D01*
X102745000Y-88630000D02*
X100965000Y-86850000D01*
X102870000Y-88630000D02*
X102745000Y-88630000D01*
X107710000Y-59420000D02*
X108585000Y-59420000D01*
X104717799Y-59420000D02*
X107710000Y-59420000D01*
X102900599Y-57602800D02*
X104717799Y-59420000D01*
X102900599Y-56590001D02*
X102900599Y-57602800D01*
X102975600Y-56515000D02*
X102900599Y-56590001D01*
X103809800Y-56515000D02*
X102975600Y-56515000D01*
X137033001Y-58293001D02*
X137795000Y-59055000D01*
X136707999Y-57967999D02*
X137033001Y-58293001D01*
X133802001Y-57967999D02*
X136707999Y-57967999D01*
X132715000Y-59055000D02*
X133802001Y-57967999D01*
X139573001Y-58293001D02*
X140335000Y-59055000D01*
X138556999Y-58293001D02*
X139573001Y-58293001D01*
X137795000Y-59055000D02*
X138556999Y-58293001D01*
X106950000Y-68215000D02*
X107315000Y-68580000D01*
X106950000Y-66675000D02*
X106950000Y-68215000D01*
X108585000Y-52225000D02*
X107795000Y-51435000D01*
X108585000Y-52975000D02*
X108585000Y-52225000D01*
X107795000Y-51435000D02*
X102235000Y-51435000D01*
X102235000Y-51435000D02*
X100965000Y-52705000D01*
X100965000Y-52705000D02*
X100965000Y-57150000D01*
X101330000Y-59420000D02*
X100965000Y-59055000D01*
X104717799Y-59420000D02*
X101330000Y-59420000D01*
X100965000Y-86850000D02*
X100965000Y-59055000D01*
X100965000Y-59055000D02*
X100965000Y-57150000D01*
X147445000Y-60690000D02*
X147320000Y-60690000D01*
X148590000Y-59545000D02*
X147445000Y-60690000D01*
X148590000Y-57150000D02*
X148590000Y-59545000D01*
X142240000Y-57150000D02*
X148590000Y-57150000D01*
X140335000Y-59055000D02*
X142240000Y-57150000D01*
X126365000Y-68945000D02*
X120015000Y-68945000D01*
X119948000Y-52975000D02*
X120015000Y-52908000D01*
X111760000Y-52975000D02*
X119948000Y-52975000D01*
X123595000Y-61625000D02*
X124095000Y-61625000D01*
X124095000Y-60690000D02*
X125095000Y-59690000D01*
X124095000Y-61625000D02*
X124095000Y-60690000D01*
X126595000Y-60945000D02*
X126595000Y-61625000D01*
X125340000Y-59690000D02*
X126595000Y-60945000D01*
X125095000Y-59690000D02*
X125340000Y-59690000D01*
X128635000Y-63895000D02*
X128635000Y-64770000D01*
X128635000Y-63280000D02*
X128635000Y-63895000D01*
X126980000Y-61625000D02*
X128635000Y-63280000D01*
X126595000Y-61625000D02*
X126980000Y-61625000D01*
X109855000Y-93802200D02*
X109855000Y-94615000D01*
X105952800Y-89900000D02*
X109855000Y-93802200D01*
X105952800Y-88630000D02*
X105952800Y-89900000D01*
X125730000Y-59055000D02*
X125095000Y-59690000D01*
X132715000Y-59055000D02*
X125730000Y-59055000D01*
X143355000Y-64530000D02*
X143355000Y-66215000D01*
X142355000Y-66215000D02*
X143355000Y-66215000D01*
X138505000Y-69850000D02*
X137875000Y-69850000D01*
X139350000Y-69850000D02*
X138505000Y-69850000D01*
X142355000Y-66845000D02*
X139350000Y-69850000D01*
X142355000Y-66215000D02*
X142355000Y-66845000D01*
X137875000Y-69850000D02*
X136605000Y-69850000D01*
X135335000Y-69850000D02*
X136605000Y-69850000D01*
X135335000Y-72370000D02*
X135355000Y-72390000D01*
X135335000Y-69850000D02*
X135335000Y-72370000D01*
X135355000Y-72390000D02*
X136605000Y-72390000D01*
X136605000Y-72390000D02*
X137875000Y-72390000D01*
X144355000Y-75395000D02*
X144355000Y-76025000D01*
X141350000Y-72390000D02*
X144355000Y-75395000D01*
X137875000Y-72390000D02*
X141350000Y-72390000D01*
X133355000Y-75395000D02*
X133355000Y-76025000D01*
X133355000Y-75020000D02*
X133355000Y-75395000D01*
X135355000Y-73020000D02*
X133355000Y-75020000D01*
X135355000Y-72390000D02*
X135355000Y-73020000D01*
X126365000Y-69695000D02*
X126365000Y-68945000D01*
X126365000Y-70475002D02*
X126365000Y-69695000D01*
X131914998Y-76025000D02*
X126365000Y-70475002D01*
X133355000Y-76025000D02*
X131914998Y-76025000D01*
G04 #@! TO.N,/EXT_TEMP_SCL*
X124595000Y-62730000D02*
X123190000Y-64135000D01*
X124595000Y-61625000D02*
X124595000Y-62730000D01*
X138115000Y-80965000D02*
X137160000Y-80010000D01*
X141605000Y-80965000D02*
X138115000Y-80965000D01*
X142355000Y-80215000D02*
X141605000Y-80965000D01*
X142355000Y-80215000D02*
X142355000Y-76025000D01*
G04 #@! TO.N,/EXT_TEMP_SDA*
X125095000Y-63500000D02*
X124460000Y-64135000D01*
X125095000Y-61625000D02*
X125095000Y-63500000D01*
X144480000Y-80965000D02*
X144780000Y-80965000D01*
X143355000Y-79840000D02*
X144480000Y-80965000D01*
X144780000Y-80645000D02*
X144780000Y-80965000D01*
X145095000Y-80965000D02*
X144780000Y-80965000D01*
X146685000Y-79375000D02*
X145095000Y-80965000D01*
X143355000Y-79840000D02*
X143355000Y-76025000D01*
G04 #@! TO.N,+2V85*
X107390399Y-61865000D02*
X107340400Y-61914999D01*
X111125000Y-61865000D02*
X107390399Y-61865000D01*
X108710000Y-57420000D02*
X108585000Y-57420000D01*
X111125000Y-59835000D02*
X108710000Y-57420000D01*
X111125000Y-61865000D02*
X111125000Y-59835000D01*
X105995201Y-57420000D02*
X105740200Y-57164999D01*
X108585000Y-57420000D02*
X105995201Y-57420000D01*
X109855000Y-76772598D02*
X109917402Y-76835000D01*
X114677402Y-81595000D02*
X109917402Y-76835000D01*
X109917402Y-76835000D02*
X105202402Y-72120000D01*
X104775000Y-72120000D02*
X104140000Y-72120000D01*
X126635000Y-64645000D02*
X126635000Y-64770000D01*
X126365000Y-65040000D02*
X126635000Y-64770000D01*
X126365000Y-66945000D02*
X126365000Y-65040000D01*
X126365000Y-66945000D02*
X122555000Y-66945000D01*
X105202402Y-72120000D02*
X104140000Y-72120000D01*
X105015000Y-72120000D02*
X104140000Y-72120000D01*
X106015000Y-71120000D02*
X105015000Y-72120000D01*
X106970002Y-71120000D02*
X106015000Y-71120000D01*
X110145002Y-74295000D02*
X106970002Y-71120000D01*
X110490000Y-74295000D02*
X110145002Y-74295000D01*
X112000000Y-61865000D02*
X111125000Y-61865000D01*
X115685000Y-61865000D02*
X112000000Y-61865000D01*
X120015000Y-66195000D02*
X115685000Y-61865000D01*
X120015000Y-66945000D02*
X120015000Y-66195000D01*
X126095000Y-64230000D02*
X126635000Y-64770000D01*
X126095000Y-61625000D02*
X126095000Y-64230000D01*
X144780000Y-82865000D02*
X141605000Y-82865000D01*
X115947402Y-82865000D02*
X114677402Y-81595000D01*
X141605000Y-82865000D02*
X115947402Y-82865000D01*
X122555000Y-66945000D02*
X120015000Y-66945000D01*
X114935000Y-69850000D02*
X110490000Y-74295000D01*
X122555000Y-69850000D02*
X114935000Y-69850000D01*
X132725000Y-66215000D02*
X133355000Y-66215000D01*
X132544991Y-66034991D02*
X132725000Y-66215000D01*
X129890007Y-66034991D02*
X132544991Y-66034991D01*
X128979998Y-66945000D02*
X129890007Y-66034991D01*
X126365000Y-66945000D02*
X128979998Y-66945000D01*
X133355000Y-66215000D02*
X134355000Y-66215000D01*
G04 #@! TO.N,/TEMP_OUT*
X128875000Y-57755000D02*
X128905000Y-57785000D01*
X126595000Y-57755000D02*
X128875000Y-57755000D01*
X139275736Y-78740000D02*
X139700000Y-78740000D01*
X137440000Y-78740000D02*
X139275736Y-78740000D01*
X135355000Y-76655000D02*
X137440000Y-78740000D01*
X135355000Y-76025000D02*
X135355000Y-76655000D01*
G04 #@! TO.N,+1V8*
X108585000Y-54975000D02*
X111760000Y-54975000D01*
X105740200Y-55437201D02*
X105740200Y-55865001D01*
X106202401Y-54975000D02*
X105740200Y-55437201D01*
X108585000Y-54975000D02*
X106202401Y-54975000D01*
X105725000Y-55849801D02*
X105740200Y-55865001D01*
X105725000Y-53340000D02*
X105725000Y-55849801D01*
X111760000Y-55725000D02*
X111760000Y-54975000D01*
X111915000Y-55880000D02*
X111760000Y-55725000D01*
X114300000Y-55880000D02*
X111915000Y-55880000D01*
X127845736Y-56515000D02*
X128270000Y-56515000D01*
X125655000Y-56515000D02*
X127845736Y-56515000D01*
X125095000Y-57075000D02*
X125655000Y-56515000D01*
X125095000Y-57755000D02*
X125095000Y-57075000D01*
G04 #@! TO.N,/WORK_ELECTRODE*
X124595000Y-57075000D02*
X124595000Y-57755000D01*
X124595000Y-56903000D02*
X124595000Y-57075000D01*
X127635000Y-53863000D02*
X124595000Y-56903000D01*
X127635000Y-52908000D02*
X127635000Y-53863000D01*
G04 #@! TO.N,/REF_ELECTRODE*
X125095000Y-54748000D02*
X124055001Y-55787999D01*
X125095000Y-52908000D02*
X125095000Y-54748000D01*
X124095000Y-55827998D02*
X124095000Y-57755000D01*
X124055001Y-55787999D02*
X124095000Y-55827998D01*
G04 #@! TO.N,/COUN_ELECTRODE*
X122555000Y-55195000D02*
X122555000Y-54748000D01*
X122555000Y-54748000D02*
X122555000Y-52908000D01*
X122555000Y-57100000D02*
X122555000Y-54748000D01*
X123210000Y-57755000D02*
X122555000Y-57100000D01*
X123595000Y-57755000D02*
X123210000Y-57755000D01*
G04 #@! TO.N,Net-(C1-Pad1)*
X107721400Y-63815001D02*
X107340400Y-63815001D01*
X108950000Y-65043601D02*
X107721400Y-63815001D01*
X108950000Y-66675000D02*
X108950000Y-65043601D01*
G04 #@! TO.N,Net-(C3-Pad1)*
X104749600Y-65065400D02*
X104140000Y-65675000D01*
X104749600Y-63815001D02*
X104749600Y-65065400D01*
X103839200Y-61914999D02*
X102235000Y-63519199D01*
X104749600Y-61914999D02*
X103839200Y-61914999D01*
X102235000Y-63895000D02*
X104015000Y-65675000D01*
X102235000Y-63519199D02*
X102235000Y-63895000D01*
X104015000Y-65675000D02*
X104140000Y-65675000D01*
X101988099Y-67701901D02*
X104015000Y-65675000D01*
X101988099Y-78696299D02*
X101988099Y-67701901D01*
X105410000Y-82118200D02*
X101988099Y-78696299D01*
X105410000Y-82765900D02*
X105410000Y-82118200D01*
G04 #@! TO.N,+BATT*
X102910000Y-86590000D02*
X102870000Y-86630000D01*
X102910000Y-82765900D02*
X102910000Y-86590000D01*
X140893800Y-93802200D02*
X140893800Y-94615000D01*
X133721600Y-86630000D02*
X140893800Y-93802200D01*
X102870000Y-86630000D02*
X133721600Y-86630000D01*
G04 #@! TO.N,+3V3*
X146955000Y-59055000D02*
X147320000Y-58690000D01*
X142875000Y-59055000D02*
X146955000Y-59055000D01*
G04 #@! TO.N,/IP_CATHODE*
X133553000Y-52908000D02*
X130175000Y-52908000D01*
X134940000Y-54295000D02*
X135890000Y-54295000D01*
X133553000Y-52908000D02*
X134940000Y-54295000D01*
X136360000Y-53825000D02*
X135890000Y-54295000D01*
X136360000Y-52070000D02*
X136360000Y-53825000D01*
G04 #@! TO.N,Net-(R3-Pad2)*
X138430000Y-56195000D02*
X135890000Y-56195000D01*
X143586200Y-53340000D02*
X142875000Y-53340000D01*
X141710600Y-53340000D02*
X142951200Y-53340000D01*
X141585000Y-53340000D02*
X141710600Y-53340000D01*
X138730000Y-56195000D02*
X141585000Y-53340000D01*
X138430000Y-56195000D02*
X138730000Y-56195000D01*
G04 #@! TO.N,/POWER_GOOD*
X103825000Y-55849801D02*
X103809800Y-55865001D01*
X103825000Y-53340000D02*
X103825000Y-55849801D01*
X103505000Y-53340000D02*
X102235000Y-54610000D01*
X103825000Y-53340000D02*
X103505000Y-53340000D01*
X128905000Y-71544264D02*
X128905000Y-71120000D01*
X128905000Y-72300000D02*
X128905000Y-71544264D01*
X131725000Y-75120000D02*
X128905000Y-72300000D01*
X132355000Y-75120000D02*
X131725000Y-75120000D01*
G04 #@! TO.N,/RESET*
X139355000Y-65115000D02*
X139355000Y-66215000D01*
X142875000Y-61595000D02*
X139355000Y-65115000D01*
G04 #@! TO.N,/JTAG_TCXC*
X140335000Y-61595000D02*
X138355000Y-63575000D01*
X138355000Y-63575000D02*
X138355000Y-66215000D01*
G04 #@! TO.N,/JTAG_TMSC*
X137795000Y-62672630D02*
X137355000Y-63112630D01*
X137795000Y-61595000D02*
X137795000Y-62672630D01*
X137355000Y-63112630D02*
X137355000Y-66215000D01*
G04 #@! TO.N,/JTAG_TDO*
X130365000Y-66485000D02*
X130175000Y-66675000D01*
X133985000Y-62865000D02*
X129540000Y-62865000D01*
X135255000Y-61595000D02*
X133985000Y-62865000D01*
X131910000Y-66675000D02*
X132355000Y-67120000D01*
X130175000Y-66675000D02*
X131910000Y-66675000D01*
G04 #@! TO.N,/JTAG_TDI*
X132715000Y-61595000D02*
X128270000Y-61595000D01*
X131270000Y-68120000D02*
X132355000Y-68120000D01*
X129540000Y-67310000D02*
X130460000Y-67310000D01*
X130460000Y-67310000D02*
X131270000Y-68120000D01*
G04 #@! TO.N,/IP_CONTROL*
X143586200Y-54610000D02*
X142875000Y-54610000D01*
X142240000Y-54610000D02*
X140335000Y-56515000D01*
X142951200Y-54610000D02*
X142240000Y-54610000D01*
X129540000Y-68935000D02*
X129540000Y-68580000D01*
X131725000Y-71120000D02*
X129540000Y-68935000D01*
X132355000Y-71120000D02*
X131725000Y-71120000D01*
G04 #@! TO.N,Net-(D1-PadA)*
X138430000Y-53695000D02*
X138430000Y-54295000D01*
X140055000Y-52070000D02*
X138430000Y-53695000D01*
X138430000Y-52419990D02*
X138080010Y-52070000D01*
X138430000Y-54295000D02*
X138430000Y-52419990D01*
X140055000Y-52070000D02*
X142951200Y-52070000D01*
G04 #@! TD*
M02*
