M48
;DRILL file {KiCad (5.0.2)-1} date 2019-06-27 7:11:14 PM
;FORMAT={3:3/ absolute / metric / suppress leading zeros}
FMAT,2
METRIC,TZ
T1C0.400
T2C1.016
%
G90
G05
T1
X102235Y-54610
X106680Y-71755
X107315Y-68580
X107950Y-73025
X110490Y-74295
X114300Y-55880
X122555Y-66945
X122555Y-69850
X123190Y-64135
X124460Y-64135
X128270Y-56515
X128270Y-61595
X128905Y-57785
X128905Y-71120
X129540Y-62865
X129540Y-67310
X129540Y-68580
X130175Y-66675
X137160Y-80010
X139700Y-78740
X140335Y-56515
X146685Y-79375
T2
X132715Y-59055
X132715Y-61595
X135255Y-59055
X135255Y-61595
X137795Y-59055
X137795Y-61595
X140335Y-59055
X140335Y-61595
X142875Y-59055
X142875Y-61595
T0
M30
