G04 #@! TF.GenerationSoftware,KiCad,Pcbnew,(5.0.2)-1*
G04 #@! TF.CreationDate,2019-07-02T12:14:06-04:00*
G04 #@! TF.ProjectId,IGEM_Device,4947454d-5f44-4657-9669-63652e6b6963,rev?*
G04 #@! TF.SameCoordinates,Original*
G04 #@! TF.FileFunction,Profile,NP*
%FSLAX46Y46*%
G04 Gerber Fmt 4.6, Leading zero omitted, Abs format (unit mm)*
G04 Created by KiCad (PCBNEW (5.0.2)-1) date 2019-07-02 12:14:06 PM*
%MOMM*%
%LPD*%
G01*
G04 APERTURE LIST*
%ADD10C,0.150000*%
%ADD11C,0.050000*%
G04 APERTURE END LIST*
D10*
X104775000Y-97790000D02*
X104775000Y-90170000D01*
X146050000Y-97790000D02*
X104775000Y-97790000D01*
X146050000Y-90170000D02*
X146050000Y-97790000D01*
X150495000Y-90170000D02*
X146050000Y-90170000D01*
X100330000Y-90170000D02*
X100330000Y-50800000D01*
X104775000Y-90170000D02*
X100330000Y-90170000D01*
X150495000Y-50800000D02*
X150495000Y-90170000D01*
X100330000Y-50800000D02*
X150495000Y-50800000D01*
G04 #@! TO.C,J2*
D11*
X114608629Y-55618629D02*
X114656248Y-55571010D01*
X114751486Y-55523390D01*
X114989581Y-55523390D01*
X115084819Y-55571010D01*
X115132438Y-55618629D01*
X115180057Y-55713867D01*
X115180057Y-55809105D01*
X115132438Y-55951962D01*
X114561010Y-56523390D01*
X115180057Y-56523390D01*
X115608629Y-56428152D02*
X115656248Y-56475771D01*
X115608629Y-56523390D01*
X115561010Y-56475771D01*
X115608629Y-56428152D01*
X115608629Y-56523390D01*
X116561010Y-55523390D02*
X116084819Y-55523390D01*
X116037200Y-55999581D01*
X116084819Y-55951962D01*
X116180057Y-55904343D01*
X116418152Y-55904343D01*
X116513390Y-55951962D01*
X116561010Y-55999581D01*
X116608629Y-56094819D01*
X116608629Y-56332914D01*
X116561010Y-56428152D01*
X116513390Y-56475771D01*
X116418152Y-56523390D01*
X116180057Y-56523390D01*
X116084819Y-56475771D01*
X116037200Y-56428152D01*
X117465771Y-55856724D02*
X117465771Y-56523390D01*
X117227676Y-55475771D02*
X116989581Y-56190057D01*
X117608629Y-56190057D01*
X118180057Y-55523390D02*
X118275295Y-55523390D01*
X118370533Y-55571010D01*
X118418152Y-55618629D01*
X118465771Y-55713867D01*
X118513390Y-55904343D01*
X118513390Y-56142438D01*
X118465771Y-56332914D01*
X118418152Y-56428152D01*
X118370533Y-56475771D01*
X118275295Y-56523390D01*
X118180057Y-56523390D01*
X118084819Y-56475771D01*
X118037200Y-56428152D01*
X117989581Y-56332914D01*
X117941962Y-56142438D01*
X117941962Y-55904343D01*
X117989581Y-55713867D01*
X118037200Y-55618629D01*
X118084819Y-55571010D01*
X118180057Y-55523390D01*
X117210704Y-53995380D02*
X116639275Y-53995380D01*
X116924990Y-53995380D02*
X116924990Y-52995380D01*
X116829751Y-53138238D01*
X116734513Y-53233476D01*
X116639275Y-53281095D01*
X114430619Y-47299619D02*
X114478238Y-47252000D01*
X114573476Y-47204380D01*
X114811571Y-47204380D01*
X114906809Y-47252000D01*
X114954428Y-47299619D01*
X115002047Y-47394857D01*
X115002047Y-47490095D01*
X114954428Y-47632952D01*
X114383000Y-48204380D01*
X115002047Y-48204380D01*
X115430619Y-48109142D02*
X115478238Y-48156761D01*
X115430619Y-48204380D01*
X115383000Y-48156761D01*
X115430619Y-48109142D01*
X115430619Y-48204380D01*
X116383000Y-47204380D02*
X115906809Y-47204380D01*
X115859190Y-47680571D01*
X115906809Y-47632952D01*
X116002047Y-47585333D01*
X116240142Y-47585333D01*
X116335380Y-47632952D01*
X116383000Y-47680571D01*
X116430619Y-47775809D01*
X116430619Y-48013904D01*
X116383000Y-48109142D01*
X116335380Y-48156761D01*
X116240142Y-48204380D01*
X116002047Y-48204380D01*
X115906809Y-48156761D01*
X115859190Y-48109142D01*
X117287761Y-47537714D02*
X117287761Y-48204380D01*
X117049666Y-47156761D02*
X116811571Y-47871047D01*
X117430619Y-47871047D01*
X118002047Y-47204380D02*
X118097285Y-47204380D01*
X118192523Y-47252000D01*
X118240142Y-47299619D01*
X118287761Y-47394857D01*
X118335380Y-47585333D01*
X118335380Y-47823428D01*
X118287761Y-48013904D01*
X118240142Y-48109142D01*
X118192523Y-48156761D01*
X118097285Y-48204380D01*
X118002047Y-48204380D01*
X117906809Y-48156761D01*
X117859190Y-48109142D01*
X117811571Y-48013904D01*
X117763952Y-47823428D01*
X117763952Y-47585333D01*
X117811571Y-47394857D01*
X117859190Y-47299619D01*
X117906809Y-47252000D01*
X118002047Y-47204380D01*
X122437859Y-57539390D02*
X121866430Y-57539390D01*
X122152144Y-57539390D02*
X122152144Y-56539390D01*
X122056906Y-56682248D01*
X121961668Y-56777486D01*
X121866430Y-56825105D01*
X123056906Y-56539390D02*
X123152144Y-56539390D01*
X123247382Y-56587010D01*
X123295002Y-56634629D01*
X123342621Y-56729867D01*
X123390240Y-56920343D01*
X123390240Y-57158438D01*
X123342621Y-57348914D01*
X123295002Y-57444152D01*
X123247382Y-57491771D01*
X123152144Y-57539390D01*
X123056906Y-57539390D01*
X122961668Y-57491771D01*
X122914049Y-57444152D01*
X122866430Y-57348914D01*
X122818811Y-57158438D01*
X122818811Y-56920343D01*
X122866430Y-56729867D01*
X122914049Y-56634629D01*
X122961668Y-56587010D01*
X123056906Y-56539390D01*
X123818811Y-57444152D02*
X123866430Y-57491771D01*
X123818811Y-57539390D01*
X123771192Y-57491771D01*
X123818811Y-57444152D01*
X123818811Y-57539390D01*
X124818811Y-57539390D02*
X124247382Y-57539390D01*
X124533097Y-57539390D02*
X124533097Y-56539390D01*
X124437859Y-56682248D01*
X124342621Y-56777486D01*
X124247382Y-56825105D01*
X125675954Y-56539390D02*
X125485478Y-56539390D01*
X125390240Y-56587010D01*
X125342621Y-56634629D01*
X125247382Y-56777486D01*
X125199763Y-56967962D01*
X125199763Y-57348914D01*
X125247382Y-57444152D01*
X125295002Y-57491771D01*
X125390240Y-57539390D01*
X125580716Y-57539390D01*
X125675954Y-57491771D01*
X125723573Y-57444152D01*
X125771192Y-57348914D01*
X125771192Y-57110819D01*
X125723573Y-57015581D01*
X125675954Y-56967962D01*
X125580716Y-56920343D01*
X125390240Y-56920343D01*
X125295002Y-56967962D01*
X125247382Y-57015581D01*
X125199763Y-57110819D01*
X126390240Y-56539390D02*
X126485478Y-56539390D01*
X126580716Y-56587010D01*
X126628335Y-56634629D01*
X126675954Y-56729867D01*
X126723573Y-56920343D01*
X126723573Y-57158438D01*
X126675954Y-57348914D01*
X126628335Y-57444152D01*
X126580716Y-57491771D01*
X126485478Y-57539390D01*
X126390240Y-57539390D01*
X126295002Y-57491771D01*
X126247382Y-57444152D01*
X126199763Y-57348914D01*
X126152144Y-57158438D01*
X126152144Y-56920343D01*
X126199763Y-56729867D01*
X126247382Y-56634629D01*
X126295002Y-56587010D01*
X126390240Y-56539390D01*
X122437859Y-39667390D02*
X121866430Y-39667390D01*
X122152144Y-39667390D02*
X122152144Y-38667390D01*
X122056906Y-38810248D01*
X121961668Y-38905486D01*
X121866430Y-38953105D01*
X122818811Y-38762629D02*
X122866430Y-38715010D01*
X122961668Y-38667390D01*
X123199763Y-38667390D01*
X123295002Y-38715010D01*
X123342621Y-38762629D01*
X123390240Y-38857867D01*
X123390240Y-38953105D01*
X123342621Y-39095962D01*
X122771192Y-39667390D01*
X123390240Y-39667390D01*
X123818811Y-39572152D02*
X123866430Y-39619771D01*
X123818811Y-39667390D01*
X123771192Y-39619771D01*
X123818811Y-39572152D01*
X123818811Y-39667390D01*
X124199763Y-38667390D02*
X124866430Y-38667390D01*
X124437859Y-39667390D01*
X125437859Y-38667390D02*
X125533097Y-38667390D01*
X125628335Y-38715010D01*
X125675954Y-38762629D01*
X125723573Y-38857867D01*
X125771192Y-39048343D01*
X125771192Y-39286438D01*
X125723573Y-39476914D01*
X125675954Y-39572152D01*
X125628335Y-39619771D01*
X125533097Y-39667390D01*
X125437859Y-39667390D01*
X125342621Y-39619771D01*
X125295002Y-39572152D01*
X125247382Y-39476914D01*
X125199763Y-39286438D01*
X125199763Y-39048343D01*
X125247382Y-38857867D01*
X125295002Y-38762629D01*
X125342621Y-38715010D01*
X125437859Y-38667390D01*
X126390240Y-38667390D02*
X126485478Y-38667390D01*
X126580716Y-38715010D01*
X126628335Y-38762629D01*
X126675954Y-38857867D01*
X126723573Y-39048343D01*
X126723573Y-39286438D01*
X126675954Y-39476914D01*
X126628335Y-39572152D01*
X126580716Y-39619771D01*
X126485478Y-39667390D01*
X126390240Y-39667390D01*
X126295002Y-39619771D01*
X126247382Y-39572152D01*
X126199763Y-39476914D01*
X126152144Y-39286438D01*
X126152144Y-39048343D01*
X126199763Y-38857867D01*
X126247382Y-38762629D01*
X126295002Y-38715010D01*
X126390240Y-38667390D01*
X132474105Y-52995380D02*
X131997914Y-52995380D01*
X131950295Y-53471571D01*
X131997914Y-53423952D01*
X132093152Y-53376333D01*
X132331248Y-53376333D01*
X132426486Y-53423952D01*
X132474105Y-53471571D01*
X132521724Y-53566809D01*
X132521724Y-53804904D01*
X132474105Y-53900142D01*
X132426486Y-53947761D01*
X132331248Y-53995380D01*
X132093152Y-53995380D01*
X131997914Y-53947761D01*
X131950295Y-53900142D01*
G04 #@! TD*
M02*
