G04 #@! TF.GenerationSoftware,KiCad,Pcbnew,(5.0.2)-1*
G04 #@! TF.CreationDate,2019-07-02T12:14:06-04:00*
G04 #@! TF.ProjectId,IGEM_Device,4947454d-5f44-4657-9669-63652e6b6963,rev?*
G04 #@! TF.SameCoordinates,Original*
G04 #@! TF.FileFunction,Soldermask,Top*
G04 #@! TF.FilePolarity,Negative*
%FSLAX46Y46*%
G04 Gerber Fmt 4.6, Leading zero omitted, Abs format (unit mm)*
G04 Created by KiCad (PCBNEW (5.0.2)-1) date 2019-07-02 12:14:06 PM*
%MOMM*%
%LPD*%
G01*
G04 APERTURE LIST*
%ADD10C,0.100000*%
G04 APERTURE END LIST*
D10*
G04 #@! TO.C,J2*
G36*
X119329000Y-51267000D02*
X120701000Y-51267000D01*
X120701000Y-54549020D01*
X119329000Y-54549020D01*
X119329000Y-51267000D01*
G37*
G36*
X121869000Y-51267000D02*
X123241000Y-51267000D01*
X123241000Y-54549020D01*
X121869000Y-54549020D01*
X121869000Y-51267000D01*
G37*
G36*
X124408997Y-51267000D02*
X125781003Y-51267000D01*
X125781003Y-54549020D01*
X124408997Y-54549020D01*
X124408997Y-51267000D01*
G37*
G36*
X126949000Y-51267000D02*
X128321000Y-51267000D01*
X128321000Y-54549020D01*
X126949000Y-54549020D01*
X126949000Y-51267000D01*
G37*
G36*
X129489000Y-51267000D02*
X130861000Y-51267000D01*
X130861000Y-54549020D01*
X129489000Y-54549020D01*
X129489000Y-51267000D01*
G37*
G36*
X142519600Y-97053600D02*
X139268000Y-97053600D01*
X139268000Y-92176400D01*
X142519600Y-92176400D01*
X142519600Y-97053600D01*
X142519600Y-97053600D01*
G37*
G36*
X111480800Y-97053600D02*
X108229200Y-97053600D01*
X108229200Y-92176400D01*
X111480800Y-92176400D01*
X111480800Y-97053600D01*
X111480800Y-97053600D01*
G37*
G36*
X103546000Y-89181000D02*
X102194000Y-89181000D01*
X102194000Y-88079000D01*
X103546000Y-88079000D01*
X103546000Y-89181000D01*
X103546000Y-89181000D01*
G37*
G36*
X103546000Y-87181000D02*
X102194000Y-87181000D01*
X102194000Y-86079000D01*
X103546000Y-86079000D01*
X103546000Y-87181000D01*
X103546000Y-87181000D01*
G37*
G36*
X108557900Y-84061500D02*
X107262100Y-84061500D01*
X107262100Y-81470300D01*
X108557900Y-81470300D01*
X108557900Y-84061500D01*
X108557900Y-84061500D01*
G37*
G36*
X103557900Y-84061500D02*
X102262100Y-84061500D01*
X102262100Y-81470300D01*
X103557900Y-81470300D01*
X103557900Y-84061500D01*
X103557900Y-84061500D01*
G37*
G36*
X106057900Y-84061500D02*
X104762100Y-84061500D01*
X104762100Y-81470300D01*
X106057900Y-81470300D01*
X106057900Y-84061500D01*
X106057900Y-84061500D01*
G37*
G36*
X145481000Y-83266000D02*
X144079000Y-83266000D01*
X144079000Y-82464000D01*
X145481000Y-82464000D01*
X145481000Y-83266000D01*
X145481000Y-83266000D01*
G37*
G36*
X142306000Y-83266000D02*
X140904000Y-83266000D01*
X140904000Y-82464000D01*
X142306000Y-82464000D01*
X142306000Y-83266000D01*
X142306000Y-83266000D01*
G37*
G36*
X145481000Y-81366000D02*
X144079000Y-81366000D01*
X144079000Y-80564000D01*
X145481000Y-80564000D01*
X145481000Y-81366000D01*
X145481000Y-81366000D01*
G37*
G36*
X142306000Y-81366000D02*
X140904000Y-81366000D01*
X140904000Y-80564000D01*
X142306000Y-80564000D01*
X142306000Y-81366000D01*
X142306000Y-81366000D01*
G37*
G36*
X103557900Y-78549700D02*
X102262100Y-78549700D01*
X102262100Y-75958500D01*
X103557900Y-75958500D01*
X103557900Y-78549700D01*
X103557900Y-78549700D01*
G37*
G36*
X106057900Y-78549700D02*
X104762100Y-78549700D01*
X104762100Y-75958500D01*
X106057900Y-75958500D01*
X106057900Y-78549700D01*
X106057900Y-78549700D01*
G37*
G36*
X108557900Y-78549700D02*
X107262100Y-78549700D01*
X107262100Y-75958500D01*
X108557900Y-75958500D01*
X108557900Y-78549700D01*
X108557900Y-78549700D01*
G37*
G36*
X132911000Y-75594000D02*
X144786000Y-75594000D01*
X144786000Y-76456000D01*
X132924000Y-76456000D01*
X132924000Y-75676000D01*
X132921598Y-75651614D01*
X132914485Y-75628165D01*
X132902934Y-75606554D01*
X132891015Y-75592032D01*
X132911000Y-75594000D01*
X132911000Y-75594000D01*
G37*
G36*
X132807066Y-66701554D02*
X132795515Y-66723165D01*
X132788402Y-66746614D01*
X132786000Y-66771000D01*
X132786000Y-75469000D01*
X132788402Y-75493386D01*
X132795515Y-75516835D01*
X132807066Y-75538446D01*
X132818985Y-75552968D01*
X132799000Y-75551000D01*
X131924000Y-75551000D01*
X131924000Y-66689000D01*
X132799000Y-66689000D01*
X132818985Y-66687032D01*
X132807066Y-66701554D01*
X132807066Y-66701554D01*
G37*
G36*
X135786000Y-72821000D02*
X134924000Y-72821000D01*
X134924000Y-71959000D01*
X135786000Y-71959000D01*
X135786000Y-72821000D01*
X135786000Y-72821000D01*
G37*
G36*
X137036000Y-72821000D02*
X136174000Y-72821000D01*
X136174000Y-71959000D01*
X137036000Y-71959000D01*
X137036000Y-72821000D01*
X137036000Y-72821000D01*
G37*
G36*
X138306000Y-72821000D02*
X137444000Y-72821000D01*
X137444000Y-71959000D01*
X138306000Y-71959000D01*
X138306000Y-72821000D01*
X138306000Y-72821000D01*
G37*
G36*
X104816000Y-72671000D02*
X103464000Y-72671000D01*
X103464000Y-71569000D01*
X104816000Y-71569000D01*
X104816000Y-72671000D01*
X104816000Y-72671000D01*
G37*
G36*
X104816000Y-70671000D02*
X103464000Y-70671000D01*
X103464000Y-69569000D01*
X104816000Y-69569000D01*
X104816000Y-70671000D01*
X104816000Y-70671000D01*
G37*
G36*
X135766000Y-70281000D02*
X134904000Y-70281000D01*
X134904000Y-69419000D01*
X135766000Y-69419000D01*
X135766000Y-70281000D01*
X135766000Y-70281000D01*
G37*
G36*
X137036000Y-70281000D02*
X136174000Y-70281000D01*
X136174000Y-69419000D01*
X137036000Y-69419000D01*
X137036000Y-70281000D01*
X137036000Y-70281000D01*
G37*
G36*
X138306000Y-70281000D02*
X137444000Y-70281000D01*
X137444000Y-69419000D01*
X138306000Y-69419000D01*
X138306000Y-70281000D01*
X138306000Y-70281000D01*
G37*
G36*
X120691000Y-69496000D02*
X119339000Y-69496000D01*
X119339000Y-68394000D01*
X120691000Y-68394000D01*
X120691000Y-69496000D01*
X120691000Y-69496000D01*
G37*
G36*
X127041000Y-69496000D02*
X125689000Y-69496000D01*
X125689000Y-68394000D01*
X127041000Y-68394000D01*
X127041000Y-69496000D01*
X127041000Y-69496000D01*
G37*
G36*
X104816000Y-68226000D02*
X103464000Y-68226000D01*
X103464000Y-67124000D01*
X104816000Y-67124000D01*
X104816000Y-68226000D01*
X104816000Y-68226000D01*
G37*
G36*
X120691000Y-67496000D02*
X119339000Y-67496000D01*
X119339000Y-66394000D01*
X120691000Y-66394000D01*
X120691000Y-67496000D01*
X120691000Y-67496000D01*
G37*
G36*
X127041000Y-67496000D02*
X125689000Y-67496000D01*
X125689000Y-66394000D01*
X127041000Y-66394000D01*
X127041000Y-67496000D01*
X127041000Y-67496000D01*
G37*
G36*
X107501000Y-67351000D02*
X106399000Y-67351000D01*
X106399000Y-65999000D01*
X107501000Y-65999000D01*
X107501000Y-67351000D01*
X107501000Y-67351000D01*
G37*
G36*
X109501000Y-67351000D02*
X108399000Y-67351000D01*
X108399000Y-65999000D01*
X109501000Y-65999000D01*
X109501000Y-67351000D01*
X109501000Y-67351000D01*
G37*
G36*
X144786000Y-66646000D02*
X132911000Y-66646000D01*
X132891015Y-66647968D01*
X132902934Y-66633446D01*
X132914485Y-66611835D01*
X132921598Y-66588386D01*
X132924000Y-66564000D01*
X132924000Y-65784000D01*
X144786000Y-65784000D01*
X144786000Y-66646000D01*
X144786000Y-66646000D01*
G37*
G36*
X104816000Y-66226000D02*
X103464000Y-66226000D01*
X103464000Y-65124000D01*
X104816000Y-65124000D01*
X104816000Y-66226000D01*
X104816000Y-66226000D01*
G37*
G36*
X129186000Y-65446000D02*
X128084000Y-65446000D01*
X128084000Y-64094000D01*
X129186000Y-64094000D01*
X129186000Y-65446000D01*
X129186000Y-65446000D01*
G37*
G36*
X127186000Y-65446000D02*
X126084000Y-65446000D01*
X126084000Y-64094000D01*
X127186000Y-64094000D01*
X127186000Y-65446000D01*
X127186000Y-65446000D01*
G37*
G36*
X111801000Y-64416000D02*
X110449000Y-64416000D01*
X110449000Y-63314000D01*
X111801000Y-63314000D01*
X111801000Y-64416000D01*
X111801000Y-64416000D01*
G37*
G36*
X108051800Y-64145401D02*
X106629000Y-64145401D01*
X106629000Y-63484601D01*
X108051800Y-63484601D01*
X108051800Y-64145401D01*
X108051800Y-64145401D01*
G37*
G36*
X105461000Y-64145401D02*
X104038200Y-64145401D01*
X104038200Y-63484601D01*
X105461000Y-63484601D01*
X105461000Y-64145401D01*
X105461000Y-64145401D01*
G37*
G36*
X105461000Y-63195400D02*
X104038200Y-63195400D01*
X104038200Y-62534600D01*
X105461000Y-62534600D01*
X105461000Y-63195400D01*
X105461000Y-63195400D01*
G37*
G36*
X111801000Y-62416000D02*
X110449000Y-62416000D01*
X110449000Y-61314000D01*
X111801000Y-61314000D01*
X111801000Y-62416000D01*
X111801000Y-62416000D01*
G37*
G36*
X138032142Y-60813242D02*
X138180102Y-60874530D01*
X138247130Y-60919317D01*
X138313257Y-60963501D01*
X138426499Y-61076743D01*
X138446975Y-61107388D01*
X138515470Y-61209898D01*
X138576758Y-61357858D01*
X138608000Y-61514925D01*
X138608000Y-61675075D01*
X138576758Y-61832142D01*
X138515470Y-61980102D01*
X138426498Y-62113258D01*
X138313258Y-62226498D01*
X138180102Y-62315470D01*
X138032142Y-62376758D01*
X137875075Y-62408000D01*
X137714925Y-62408000D01*
X137557858Y-62376758D01*
X137409898Y-62315470D01*
X137276742Y-62226498D01*
X137163502Y-62113258D01*
X137074530Y-61980102D01*
X137013242Y-61832142D01*
X136982000Y-61675075D01*
X136982000Y-61514925D01*
X137013242Y-61357858D01*
X137074530Y-61209898D01*
X137143025Y-61107388D01*
X137163501Y-61076743D01*
X137276743Y-60963501D01*
X137342870Y-60919317D01*
X137409898Y-60874530D01*
X137557858Y-60813242D01*
X137714925Y-60782000D01*
X137875075Y-60782000D01*
X138032142Y-60813242D01*
X138032142Y-60813242D01*
G37*
G36*
X132952142Y-60813242D02*
X133100102Y-60874530D01*
X133167130Y-60919317D01*
X133233257Y-60963501D01*
X133346499Y-61076743D01*
X133366975Y-61107388D01*
X133435470Y-61209898D01*
X133496758Y-61357858D01*
X133528000Y-61514925D01*
X133528000Y-61675075D01*
X133496758Y-61832142D01*
X133435470Y-61980102D01*
X133346498Y-62113258D01*
X133233258Y-62226498D01*
X133100102Y-62315470D01*
X132952142Y-62376758D01*
X132795075Y-62408000D01*
X132634925Y-62408000D01*
X132477858Y-62376758D01*
X132329898Y-62315470D01*
X132196742Y-62226498D01*
X132083502Y-62113258D01*
X131994530Y-61980102D01*
X131933242Y-61832142D01*
X131902000Y-61675075D01*
X131902000Y-61514925D01*
X131933242Y-61357858D01*
X131994530Y-61209898D01*
X132063025Y-61107388D01*
X132083501Y-61076743D01*
X132196743Y-60963501D01*
X132262870Y-60919317D01*
X132329898Y-60874530D01*
X132477858Y-60813242D01*
X132634925Y-60782000D01*
X132795075Y-60782000D01*
X132952142Y-60813242D01*
X132952142Y-60813242D01*
G37*
G36*
X135492142Y-60813242D02*
X135640102Y-60874530D01*
X135707130Y-60919317D01*
X135773257Y-60963501D01*
X135886499Y-61076743D01*
X135906975Y-61107388D01*
X135975470Y-61209898D01*
X136036758Y-61357858D01*
X136068000Y-61514925D01*
X136068000Y-61675075D01*
X136036758Y-61832142D01*
X135975470Y-61980102D01*
X135886498Y-62113258D01*
X135773258Y-62226498D01*
X135640102Y-62315470D01*
X135492142Y-62376758D01*
X135335075Y-62408000D01*
X135174925Y-62408000D01*
X135017858Y-62376758D01*
X134869898Y-62315470D01*
X134736742Y-62226498D01*
X134623502Y-62113258D01*
X134534530Y-61980102D01*
X134473242Y-61832142D01*
X134442000Y-61675075D01*
X134442000Y-61514925D01*
X134473242Y-61357858D01*
X134534530Y-61209898D01*
X134603025Y-61107388D01*
X134623501Y-61076743D01*
X134736743Y-60963501D01*
X134802870Y-60919317D01*
X134869898Y-60874530D01*
X135017858Y-60813242D01*
X135174925Y-60782000D01*
X135335075Y-60782000D01*
X135492142Y-60813242D01*
X135492142Y-60813242D01*
G37*
G36*
X140572142Y-60813242D02*
X140720102Y-60874530D01*
X140787130Y-60919317D01*
X140853257Y-60963501D01*
X140966499Y-61076743D01*
X140986975Y-61107388D01*
X141055470Y-61209898D01*
X141116758Y-61357858D01*
X141148000Y-61514925D01*
X141148000Y-61675075D01*
X141116758Y-61832142D01*
X141055470Y-61980102D01*
X140966498Y-62113258D01*
X140853258Y-62226498D01*
X140720102Y-62315470D01*
X140572142Y-62376758D01*
X140415075Y-62408000D01*
X140254925Y-62408000D01*
X140097858Y-62376758D01*
X139949898Y-62315470D01*
X139816742Y-62226498D01*
X139703502Y-62113258D01*
X139614530Y-61980102D01*
X139553242Y-61832142D01*
X139522000Y-61675075D01*
X139522000Y-61514925D01*
X139553242Y-61357858D01*
X139614530Y-61209898D01*
X139683025Y-61107388D01*
X139703501Y-61076743D01*
X139816743Y-60963501D01*
X139882870Y-60919317D01*
X139949898Y-60874530D01*
X140097858Y-60813242D01*
X140254925Y-60782000D01*
X140415075Y-60782000D01*
X140572142Y-60813242D01*
X140572142Y-60813242D01*
G37*
G36*
X143112142Y-60813242D02*
X143260102Y-60874530D01*
X143327130Y-60919317D01*
X143393257Y-60963501D01*
X143506499Y-61076743D01*
X143526975Y-61107388D01*
X143595470Y-61209898D01*
X143656758Y-61357858D01*
X143688000Y-61514925D01*
X143688000Y-61675075D01*
X143656758Y-61832142D01*
X143595470Y-61980102D01*
X143506498Y-62113258D01*
X143393258Y-62226498D01*
X143260102Y-62315470D01*
X143112142Y-62376758D01*
X142955075Y-62408000D01*
X142794925Y-62408000D01*
X142637858Y-62376758D01*
X142489898Y-62315470D01*
X142356742Y-62226498D01*
X142243502Y-62113258D01*
X142154530Y-61980102D01*
X142093242Y-61832142D01*
X142062000Y-61675075D01*
X142062000Y-61514925D01*
X142093242Y-61357858D01*
X142154530Y-61209898D01*
X142223025Y-61107388D01*
X142243501Y-61076743D01*
X142356743Y-60963501D01*
X142422870Y-60919317D01*
X142489898Y-60874530D01*
X142637858Y-60813242D01*
X142794925Y-60782000D01*
X142955075Y-60782000D01*
X143112142Y-60813242D01*
X143112142Y-60813242D01*
G37*
G36*
X105461000Y-62245399D02*
X104038200Y-62245399D01*
X104038200Y-61584599D01*
X105461000Y-61584599D01*
X105461000Y-62245399D01*
X105461000Y-62245399D01*
G37*
G36*
X108051800Y-62245399D02*
X106629000Y-62245399D01*
X106629000Y-61584599D01*
X108051800Y-61584599D01*
X108051800Y-62245399D01*
X108051800Y-62245399D01*
G37*
G36*
X126781000Y-58236000D02*
X126771000Y-58236000D01*
X126746614Y-58238402D01*
X126723165Y-58245515D01*
X126701554Y-58257066D01*
X126682612Y-58272612D01*
X126667066Y-58291554D01*
X126655515Y-58313165D01*
X126648402Y-58336614D01*
X126646000Y-58361000D01*
X126646000Y-61019000D01*
X126648402Y-61043386D01*
X126655515Y-61066835D01*
X126667066Y-61088446D01*
X126682612Y-61107388D01*
X126701554Y-61122934D01*
X126723165Y-61134485D01*
X126746614Y-61141598D01*
X126771000Y-61144000D01*
X126781000Y-61144000D01*
X126781000Y-62106000D01*
X123409000Y-62106000D01*
X123409000Y-61144000D01*
X123419000Y-61144000D01*
X123443386Y-61141598D01*
X123466835Y-61134485D01*
X123488446Y-61122934D01*
X123507388Y-61107388D01*
X123522934Y-61088446D01*
X123534485Y-61066835D01*
X123541598Y-61043386D01*
X123544000Y-61019000D01*
X123544000Y-58361000D01*
X123541598Y-58336614D01*
X123534485Y-58313165D01*
X123522934Y-58291554D01*
X123507388Y-58272612D01*
X123488446Y-58257066D01*
X123466835Y-58245515D01*
X123443386Y-58238402D01*
X123419000Y-58236000D01*
X123409000Y-58236000D01*
X123409000Y-57274000D01*
X126781000Y-57274000D01*
X126781000Y-58236000D01*
X126781000Y-58236000D01*
G37*
G36*
X147996000Y-61241000D02*
X146644000Y-61241000D01*
X146644000Y-60139000D01*
X147996000Y-60139000D01*
X147996000Y-61241000D01*
X147996000Y-61241000D01*
G37*
G36*
X109261000Y-59971000D02*
X107909000Y-59971000D01*
X107909000Y-58869000D01*
X109261000Y-58869000D01*
X109261000Y-59971000D01*
X109261000Y-59971000D01*
G37*
G36*
X143112142Y-58273242D02*
X143260102Y-58334530D01*
X143393258Y-58423502D01*
X143506498Y-58536742D01*
X143595470Y-58669898D01*
X143656758Y-58817858D01*
X143688000Y-58974925D01*
X143688000Y-59135075D01*
X143656758Y-59292142D01*
X143595470Y-59440102D01*
X143506498Y-59573258D01*
X143393258Y-59686498D01*
X143260102Y-59775470D01*
X143112142Y-59836758D01*
X142955075Y-59868000D01*
X142794925Y-59868000D01*
X142637858Y-59836758D01*
X142489898Y-59775470D01*
X142356742Y-59686498D01*
X142243502Y-59573258D01*
X142154530Y-59440102D01*
X142093242Y-59292142D01*
X142062000Y-59135075D01*
X142062000Y-58974925D01*
X142093242Y-58817858D01*
X142154530Y-58669898D01*
X142243502Y-58536742D01*
X142356742Y-58423502D01*
X142489898Y-58334530D01*
X142637858Y-58273242D01*
X142794925Y-58242000D01*
X142955075Y-58242000D01*
X143112142Y-58273242D01*
X143112142Y-58273242D01*
G37*
G36*
X140572142Y-58273242D02*
X140720102Y-58334530D01*
X140853258Y-58423502D01*
X140966498Y-58536742D01*
X141055470Y-58669898D01*
X141116758Y-58817858D01*
X141148000Y-58974925D01*
X141148000Y-59135075D01*
X141116758Y-59292142D01*
X141055470Y-59440102D01*
X140966498Y-59573258D01*
X140853258Y-59686498D01*
X140720102Y-59775470D01*
X140572142Y-59836758D01*
X140415075Y-59868000D01*
X140254925Y-59868000D01*
X140097858Y-59836758D01*
X139949898Y-59775470D01*
X139816742Y-59686498D01*
X139703502Y-59573258D01*
X139614530Y-59440102D01*
X139553242Y-59292142D01*
X139522000Y-59135075D01*
X139522000Y-58974925D01*
X139553242Y-58817858D01*
X139614530Y-58669898D01*
X139703502Y-58536742D01*
X139816742Y-58423502D01*
X139949898Y-58334530D01*
X140097858Y-58273242D01*
X140254925Y-58242000D01*
X140415075Y-58242000D01*
X140572142Y-58273242D01*
X140572142Y-58273242D01*
G37*
G36*
X138032142Y-58273242D02*
X138180102Y-58334530D01*
X138313258Y-58423502D01*
X138426498Y-58536742D01*
X138515470Y-58669898D01*
X138576758Y-58817858D01*
X138608000Y-58974925D01*
X138608000Y-59135075D01*
X138576758Y-59292142D01*
X138515470Y-59440102D01*
X138426498Y-59573258D01*
X138313258Y-59686498D01*
X138180102Y-59775470D01*
X138032142Y-59836758D01*
X137875075Y-59868000D01*
X137714925Y-59868000D01*
X137557858Y-59836758D01*
X137409898Y-59775470D01*
X137276742Y-59686498D01*
X137163502Y-59573258D01*
X137074530Y-59440102D01*
X137013242Y-59292142D01*
X136982000Y-59135075D01*
X136982000Y-58974925D01*
X137013242Y-58817858D01*
X137074530Y-58669898D01*
X137163502Y-58536742D01*
X137276742Y-58423502D01*
X137409898Y-58334530D01*
X137557858Y-58273242D01*
X137714925Y-58242000D01*
X137875075Y-58242000D01*
X138032142Y-58273242D01*
X138032142Y-58273242D01*
G37*
G36*
X135492142Y-58273242D02*
X135640102Y-58334530D01*
X135773258Y-58423502D01*
X135886498Y-58536742D01*
X135975470Y-58669898D01*
X136036758Y-58817858D01*
X136068000Y-58974925D01*
X136068000Y-59135075D01*
X136036758Y-59292142D01*
X135975470Y-59440102D01*
X135886498Y-59573258D01*
X135773258Y-59686498D01*
X135640102Y-59775470D01*
X135492142Y-59836758D01*
X135335075Y-59868000D01*
X135174925Y-59868000D01*
X135017858Y-59836758D01*
X134869898Y-59775470D01*
X134736742Y-59686498D01*
X134623502Y-59573258D01*
X134534530Y-59440102D01*
X134473242Y-59292142D01*
X134442000Y-59135075D01*
X134442000Y-58974925D01*
X134473242Y-58817858D01*
X134534530Y-58669898D01*
X134623502Y-58536742D01*
X134736742Y-58423502D01*
X134869898Y-58334530D01*
X135017858Y-58273242D01*
X135174925Y-58242000D01*
X135335075Y-58242000D01*
X135492142Y-58273242D01*
X135492142Y-58273242D01*
G37*
G36*
X132952142Y-58273242D02*
X133100102Y-58334530D01*
X133233258Y-58423502D01*
X133346498Y-58536742D01*
X133435470Y-58669898D01*
X133496758Y-58817858D01*
X133528000Y-58974925D01*
X133528000Y-59135075D01*
X133496758Y-59292142D01*
X133435470Y-59440102D01*
X133346498Y-59573258D01*
X133233258Y-59686498D01*
X133100102Y-59775470D01*
X132952142Y-59836758D01*
X132795075Y-59868000D01*
X132634925Y-59868000D01*
X132477858Y-59836758D01*
X132329898Y-59775470D01*
X132196742Y-59686498D01*
X132083502Y-59573258D01*
X131994530Y-59440102D01*
X131933242Y-59292142D01*
X131902000Y-59135075D01*
X131902000Y-58974925D01*
X131933242Y-58817858D01*
X131994530Y-58669898D01*
X132083502Y-58536742D01*
X132196742Y-58423502D01*
X132329898Y-58334530D01*
X132477858Y-58273242D01*
X132634925Y-58242000D01*
X132795075Y-58242000D01*
X132952142Y-58273242D01*
X132952142Y-58273242D01*
G37*
G36*
X147996000Y-59241000D02*
X146644000Y-59241000D01*
X146644000Y-58139000D01*
X147996000Y-58139000D01*
X147996000Y-59241000D01*
X147996000Y-59241000D01*
G37*
G36*
X109261000Y-57971000D02*
X107909000Y-57971000D01*
X107909000Y-56869000D01*
X109261000Y-56869000D01*
X109261000Y-57971000D01*
X109261000Y-57971000D01*
G37*
G36*
X106375400Y-57393799D02*
X105105000Y-57393799D01*
X105105000Y-56936199D01*
X106375400Y-56936199D01*
X106375400Y-57393799D01*
X106375400Y-57393799D01*
G37*
G36*
X104445000Y-57393799D02*
X103174600Y-57393799D01*
X103174600Y-55636201D01*
X104445000Y-55636201D01*
X104445000Y-57393799D01*
X104445000Y-57393799D01*
G37*
G36*
X139131000Y-56596000D02*
X137729000Y-56596000D01*
X137729000Y-55794000D01*
X139131000Y-55794000D01*
X139131000Y-56596000D01*
X139131000Y-56596000D01*
G37*
G36*
X136591000Y-56596000D02*
X135189000Y-56596000D01*
X135189000Y-55794000D01*
X136591000Y-55794000D01*
X136591000Y-56596000D01*
X136591000Y-56596000D01*
G37*
G36*
X148920400Y-56210400D02*
X146837200Y-56210400D01*
X146837200Y-55549600D01*
X148920400Y-55549600D01*
X148920400Y-56210400D01*
X148920400Y-56210400D01*
G37*
G36*
X143992800Y-56210400D02*
X141909600Y-56210400D01*
X141909600Y-55549600D01*
X143992800Y-55549600D01*
X143992800Y-56210400D01*
X143992800Y-56210400D01*
G37*
G36*
X106375400Y-56093801D02*
X105105000Y-56093801D01*
X105105000Y-55636201D01*
X106375400Y-55636201D01*
X106375400Y-56093801D01*
X106375400Y-56093801D01*
G37*
G36*
X109261000Y-55526000D02*
X107909000Y-55526000D01*
X107909000Y-54424000D01*
X109261000Y-54424000D01*
X109261000Y-55526000D01*
X109261000Y-55526000D01*
G37*
G36*
X112436000Y-55526000D02*
X111084000Y-55526000D01*
X111084000Y-54424000D01*
X112436000Y-54424000D01*
X112436000Y-55526000D01*
X112436000Y-55526000D01*
G37*
G36*
X143992800Y-54940400D02*
X141909600Y-54940400D01*
X141909600Y-54279600D01*
X143992800Y-54279600D01*
X143992800Y-54940400D01*
X143992800Y-54940400D01*
G37*
G36*
X148920400Y-54940400D02*
X146837200Y-54940400D01*
X146837200Y-54279600D01*
X148920400Y-54279600D01*
X148920400Y-54940400D01*
X148920400Y-54940400D01*
G37*
G36*
X136591000Y-54696000D02*
X135189000Y-54696000D01*
X135189000Y-53894000D01*
X136591000Y-53894000D01*
X136591000Y-54696000D01*
X136591000Y-54696000D01*
G37*
G36*
X139131000Y-54696000D02*
X137729000Y-54696000D01*
X137729000Y-53894000D01*
X139131000Y-53894000D01*
X139131000Y-54696000D01*
X139131000Y-54696000D01*
G37*
G36*
X130861000Y-54549000D02*
X129489000Y-54549000D01*
X129489000Y-51267000D01*
X130861000Y-51267000D01*
X130861000Y-54549000D01*
X130861000Y-54549000D01*
G37*
G36*
X128321000Y-54549000D02*
X126949000Y-54549000D01*
X126949000Y-51267000D01*
X128321000Y-51267000D01*
X128321000Y-54549000D01*
X128321000Y-54549000D01*
G37*
G36*
X125781000Y-54549000D02*
X124409000Y-54549000D01*
X124409000Y-51267000D01*
X125781000Y-51267000D01*
X125781000Y-54549000D01*
X125781000Y-54549000D01*
G37*
G36*
X123241000Y-54549000D02*
X121869000Y-54549000D01*
X121869000Y-51267000D01*
X123241000Y-51267000D01*
X123241000Y-54549000D01*
X123241000Y-54549000D01*
G37*
G36*
X120701000Y-54549000D02*
X119329000Y-54549000D01*
X119329000Y-51267000D01*
X120701000Y-51267000D01*
X120701000Y-54549000D01*
X120701000Y-54549000D01*
G37*
G36*
X104226000Y-54041000D02*
X103424000Y-54041000D01*
X103424000Y-52639000D01*
X104226000Y-52639000D01*
X104226000Y-54041000D01*
X104226000Y-54041000D01*
G37*
G36*
X106126000Y-54041000D02*
X105324000Y-54041000D01*
X105324000Y-52639000D01*
X106126000Y-52639000D01*
X106126000Y-54041000D01*
X106126000Y-54041000D01*
G37*
G36*
X148920400Y-53670400D02*
X146837200Y-53670400D01*
X146837200Y-53009600D01*
X148920400Y-53009600D01*
X148920400Y-53670400D01*
X148920400Y-53670400D01*
G37*
G36*
X143992800Y-53670400D02*
X141909600Y-53670400D01*
X141909600Y-53009600D01*
X143992800Y-53009600D01*
X143992800Y-53670400D01*
X143992800Y-53670400D01*
G37*
G36*
X112436000Y-53526000D02*
X111084000Y-53526000D01*
X111084000Y-52424000D01*
X112436000Y-52424000D01*
X112436000Y-53526000D01*
X112436000Y-53526000D01*
G37*
G36*
X109261000Y-53526000D02*
X107909000Y-53526000D01*
X107909000Y-52424000D01*
X109261000Y-52424000D01*
X109261000Y-53526000D01*
X109261000Y-53526000D01*
G37*
G36*
X143992800Y-52400400D02*
X141909600Y-52400400D01*
X141909600Y-51739600D01*
X143992800Y-51739600D01*
X143992800Y-52400400D01*
X143992800Y-52400400D01*
G37*
G36*
X148920400Y-52400400D02*
X146837200Y-52400400D01*
X146837200Y-51739600D01*
X148920400Y-51739600D01*
X148920400Y-52400400D01*
X148920400Y-52400400D01*
G37*
G36*
X138276000Y-52321000D02*
X137644000Y-52321000D01*
X137644000Y-51819000D01*
X138276000Y-51819000D01*
X138276000Y-52321000D01*
X138276000Y-52321000D01*
G37*
G36*
X136676000Y-52321000D02*
X136044000Y-52321000D01*
X136044000Y-51819000D01*
X136676000Y-51819000D01*
X136676000Y-52321000D01*
X136676000Y-52321000D01*
G37*
M02*
